<svg xmlns="http://www.w3.org/2000/svg" width="172" height="168" fill="none"><path fill="url(#a)" d="M129.975 20.405c23.03 13.291 38.53 38.172 38.53 66.672 0 42.483-34.44 76.923-76.923 76.923-13.983 0-27.095-3.731-38.394-10.252-23.03-13.29-38.53-38.171-38.53-66.671 0-42.483 34.44-76.923 76.924-76.923 13.983 0 27.094 3.73 38.393 10.252Z"/><path fill="url(#b)" d="M80.923 4C38.44 4 4 38.44 4 80.923l10.659 6.154c0-42.483 34.44-76.923 76.923-76.923L80.923 4Z"/><path fill="url(#c)" d="M4 80.923c0 28.501 15.5 53.381 38.53 66.671l10.634 6.14c-23.017-13.294-38.505-38.167-38.505-66.657L4 80.923Z"/><path fill="url(#d)" d="M119.317 14.252C108.018 7.73 94.907 4 80.923 4l10.659 6.154c13.983 0 27.094 3.73 38.393 10.252l-10.658-6.154Z"/><path fill="url(#e)" d="M42.53 147.594c11.298 6.521 24.41 10.252 38.393 10.252L91.582 164c-13.983 0-27.095-3.731-38.394-10.252l-10.659-6.154Z"/><path fill="url(#f)" d="M157.846 80.923c0-28.49-15.489-53.363-38.505-66.657l10.634 6.14c23.03 13.29 38.53 38.17 38.53 66.67l-10.659-6.153Z"/><path fill="url(#g)" d="M80.923 157.846c42.484 0 76.923-34.44 76.923-76.923l10.659 6.154c0 42.483-34.44 76.923-76.923 76.923l-10.659-6.154Z"/><path stroke="url(#h)" stroke-linejoin="round" stroke-width="6.154" d="M168.505 87.077c0 42.483-34.44 76.923-76.923 76.923m76.923-76.923c0-28.5-15.5-53.38-38.53-66.671m38.53 66.67-10.659-6.153M91.582 164c-13.983 0-27.095-3.731-38.394-10.252M91.582 164l-10.659-6.154M14.66 87.076c0-42.482 34.44-76.922 76.923-76.922M14.659 87.077c0 28.5 15.5 53.381 38.53 66.671m-38.53-66.671L4 80.923m10.659 6.154c0 28.49 15.489 53.363 38.505 66.657m38.418-143.58c13.983 0 27.094 3.73 38.393 10.252M91.582 10.153 80.923 4M53.188 153.748a.288.288 0 0 1-.024-.014m.024.014-10.659-6.154m87.446-127.188-10.658-6.154m10.658 6.153-10.634-6.14M4 80.924C4 38.44 38.44 4 80.923 4M4 80.923c0 28.501 15.5 53.381 38.53 66.671M80.922 4c13.983 0 27.095 3.731 38.394 10.252M42.53 147.594l10.634 6.14m-10.635-6.14c11.3 6.521 24.411 10.252 38.394 10.252m38.394-143.594.024.014m-38.418 143.58c42.484 0 76.923-34.44 76.923-76.923m-38.505-66.657c23.016 13.294 38.505 38.167 38.505 66.657"/><circle cx="81.361" cy="80.923" r="76.923" fill="#42E4BF"/><path fill="#fff" d="M95.78 78.514H54.524a5.012 5.012 0 0 0-5.014 5.015v30.485a5.012 5.012 0 0 0 5.014 5.015h41.258a5.021 5.021 0 0 0 5.014-5.015V83.529a5.02 5.02 0 0 0-5.014-5.015Zm-37.6 16.672c0-4.086 3.3-7.414 7.372-7.414 9.749.354 9.759 14.467 0 14.814-4.071 0-7.371-3.314-7.371-7.4Zm26.13 13.028c-5.362 4.625-13.15 4.633-18.5 0a1.417 1.417 0 0 1-.497-.974 1.43 1.43 0 0 1 .339-1.04 1.439 1.439 0 0 1 2.014-.143c4.286 3.686 10.5 3.686 14.772 0 1.423-1.207 3.266.926 1.871 2.157Zm.256-5.628c-4.071 0-7.371-3.314-7.371-7.4.344-9.806 14.383-9.819 14.729 0 0 4.085-3.3 7.4-7.358 7.4Zm-43.128-3.814a9.487 9.487 0 0 0 5.214 8.471V90.314a9.448 9.448 0 0 0-5.214 8.458Zm62.214-8.458v16.915c6.883-3.315 6.881-13.6 0-16.915ZM73.724 73.1v2.557h2.857V73.1c6.037-1.677 4.93-10.66-1.429-10.728-6.368.071-7.494 9.051-1.428 10.728Z"/><path fill="#fff" d="M70.066 95.186c-.191-6.025-8.847-6.022-9.028 0 .186 6.003 8.834 6.003 9.028 0Zm14.5-4.557c-5.947.15-5.96 8.947 0 9.1 5.955-.19 5.939-8.915 0-9.1ZM116.623 42H89.009a4.816 4.816 0 0 0-4.814 4.814v26.343c-.039 1.239 1.574 1.912 2.443 1.015l4.657-4.658h25.328a4.826 4.826 0 0 0 4.815-4.814V46.814A4.817 4.817 0 0 0 116.623 42Zm-23.585 8.086h3.614c1.877.035 1.877 2.831 0 2.857h-3.614c-1.876-.026-1.879-2.822 0-2.857Zm19.557 11.328H93.038c-1.872-.034-1.882-2.821 0-2.857h19.557c1.871.035 1.881 2.822 0 2.857Zm0-8.471h-8.529a1.424 1.424 0 0 1-1.428-1.429c0-.785.643-1.428 1.428-1.428h8.529c1.876.034 1.878 2.831 0 2.857Z"/><defs><linearGradient id="a" x1="86.252" x2="86.252" y1="4" y2="164" gradientUnits="userSpaceOnUse"><stop offset=".54" stop-color="#52E6C4"/><stop offset=".96" stop-color="#21C49E"/></linearGradient><linearGradient id="b" x1="86.252" x2="86.252" y1="4" y2="164" gradientUnits="userSpaceOnUse"><stop offset=".54" stop-color="#52E6C4"/><stop offset=".96" stop-color="#21C49E"/></linearGradient><linearGradient id="c" x1="86.252" x2="86.252" y1="4" y2="164" gradientUnits="userSpaceOnUse"><stop offset=".54" stop-color="#52E6C4"/><stop offset=".96" stop-color="#21C49E"/></linearGradient><linearGradient id="d" x1="86.252" x2="86.252" y1="4" y2="164" gradientUnits="userSpaceOnUse"><stop offset=".54" stop-color="#52E6C4"/><stop offset=".96" stop-color="#21C49E"/></linearGradient><linearGradient id="e" x1="86.252" x2="86.252" y1="4" y2="164" gradientUnits="userSpaceOnUse"><stop offset=".54" stop-color="#52E6C4"/><stop offset=".96" stop-color="#21C49E"/></linearGradient><linearGradient id="f" x1="86.252" x2="86.252" y1="4" y2="164" gradientUnits="userSpaceOnUse"><stop offset=".54" stop-color="#52E6C4"/><stop offset=".96" stop-color="#21C49E"/></linearGradient><linearGradient id="g" x1="86.252" x2="86.252" y1="4" y2="164" gradientUnits="userSpaceOnUse"><stop offset=".54" stop-color="#52E6C4"/><stop offset=".96" stop-color="#21C49E"/></linearGradient><linearGradient id="h" x1="86.252" x2="86.252" y1="4" y2="164" gradientUnits="userSpaceOnUse"><stop offset=".54" stop-color="#52E6C4"/><stop offset=".96" stop-color="#21C49E"/></linearGradient></defs></svg>