<svg xmlns="http://www.w3.org/2000/svg" width="172" height="168" fill="none"><path fill="url(#a)" d="M129.538 20.405c23.03 13.291 38.529 38.172 38.529 66.672 0 42.483-34.439 76.923-76.923 76.923-13.983 0-27.095-3.731-38.394-10.252-23.03-13.29-38.529-38.171-38.529-66.671 0-42.483 34.44-76.923 76.923-76.923 13.983 0 27.095 3.73 38.394 10.252Z"/><path fill="url(#b)" d="M80.485 4C38.002 4 3.562 38.44 3.562 80.923l10.659 6.154c0-42.483 34.44-76.923 76.923-76.923L80.485 4Z"/><path fill="url(#c)" d="M3.562 80.923c0 28.501 15.5 53.381 38.53 66.671l10.634 6.14C29.71 140.44 14.221 115.567 14.221 87.077L3.562 80.923Z"/><path fill="url(#d)" d="M118.879 14.252C107.58 7.73 94.469 4 80.485 4l10.66 6.154c13.982 0 27.094 3.73 38.393 10.252l-10.659-6.154Z"/><path fill="url(#e)" d="M42.092 147.594c11.299 6.521 24.41 10.252 38.393 10.252L91.145 164c-13.984 0-27.096-3.731-38.394-10.252l-10.66-6.154Z"/><path fill="url(#f)" d="M157.408 80.923c0-28.49-15.488-53.363-38.505-66.657l10.635 6.14c23.03 13.29 38.529 38.17 38.529 66.67l-10.659-6.153Z"/><path fill="url(#g)" d="M80.485 157.846c42.484 0 76.923-34.44 76.923-76.923l10.659 6.154c0 42.483-34.439 76.923-76.923 76.923l-10.659-6.154Z"/><path stroke="url(#h)" stroke-linejoin="round" stroke-width="6.154" d="M168.067 87.077c0 42.483-34.439 76.923-76.923 76.923m76.923-76.923c0-28.5-15.499-53.38-38.529-66.671m38.529 66.67-10.659-6.153M91.144 164c-13.983 0-27.095-3.731-38.394-10.252M91.144 164l-10.659-6.154m-66.264-70.77c0-42.482 34.44-76.922 76.923-76.922M14.221 87.077c0 28.5 15.5 53.381 38.53 66.671M14.22 87.077 3.562 80.923m10.659 6.154c0 28.49 15.489 53.363 38.505 66.657m38.418-143.58c13.983 0 27.095 3.73 38.394 10.252M91.144 10.153 80.485 4M52.751 153.748a.303.303 0 0 1-.025-.014m.025.014-10.66-6.154m87.447-127.188-10.659-6.154m10.659 6.153-10.635-6.14M3.563 80.924C3.562 38.44 38.001 4 80.484 4M3.562 80.923c0 28.501 15.5 53.381 38.53 66.671M80.485 4c13.983 0 27.095 3.731 38.394 10.252M42.092 147.594l10.634 6.14m-10.634-6.14c11.299 6.521 24.41 10.252 38.393 10.252M118.88 14.252l.024.014m-38.418 143.58c42.484 0 76.923-34.44 76.923-76.923m-38.505-66.657c23.017 13.294 38.505 38.167 38.505 66.657"/><circle cx="80.923" cy="80.923" r="76.923" fill="#22CAEE"/><g fill="#fff" clip-path="url(#i)"><path d="M84.814 75.834 80 67.68l-4.814 8.154a1.172 1.172 0 0 1-1.49.47l-7.524-3.376 3 10.802h21.656l3-10.802-7.525 3.385a1.172 1.172 0 0 1-1.489-.479Z"/><path d="M80 54.047c-14.862 0-26.953 12.09-26.953 26.953 0 14.862 12.09 26.953 26.953 26.953 14.862 0 26.953-12.09 26.953-26.953 0-14.862-12.09-26.953-26.953-26.953Zm12.89 40.625a3.125 3.125 0 0 1-3.124 3.125H70.234a3.125 3.125 0 0 1-3.125-3.125v-3.906a1.171 1.171 0 0 1 1.172-1.172H91.72a1.172 1.172 0 0 1 1.172 1.172v3.906Zm3.865-23.516L92.848 85.22a1.175 1.175 0 0 1-1.13.86H68.282a1.174 1.174 0 0 1-1.13-.859l-3.906-14.062a1.172 1.172 0 0 1 1.61-1.383l8.845 3.966 5.29-8.961a1.172 1.172 0 0 1 2.02 0l5.29 8.96 8.845-3.965a1.172 1.172 0 0 1 1.61 1.383v-.002Z"/><path d="M69.453 94.672a.781.781 0 0 0 .781.781h19.532a.782.782 0 0 0 .78-.781v-2.734H69.454v2.734Z"/><path d="M117.572 74.934c-.781-1.226-1.527-2.384-1.828-3.512-.321-1.199-.26-2.616-.196-4.116.093-2.175.19-4.423-.903-6.31-1.109-1.918-3.125-2.97-5.068-3.971-1.318-.684-2.563-1.33-3.418-2.188-.854-.857-1.5-2.1-2.187-3.417-1.003-1.943-2.05-3.956-3.972-5.065-1.886-1.094-4.136-.996-6.31-.903-1.5.064-2.918.125-4.117-.196-1.128-.301-2.285-1.044-3.512-1.828C84.2 42.234 82.27 41 80 41c-2.272 0-4.2 1.234-6.066 2.428-1.226.781-2.384 1.527-3.512 1.828-1.203.32-2.61.26-4.116.196-2.175-.093-4.423-.19-6.31.903-1.918 1.11-2.97 3.125-3.971 5.068-.684 1.318-1.33 2.563-2.188 3.418-.857.854-2.1 1.5-3.417 2.187-1.943 1.003-3.956 2.05-5.065 3.972-1.094 1.886-.996 4.136-.903 6.31.064 1.5.125 2.918-.196 4.117-.301 1.128-1.044 2.285-1.828 3.512C41.234 76.8 40 78.73 40 81c0 2.272 1.234 4.2 2.428 6.066.781 1.226 1.527 2.384 1.828 3.512.32 1.203.26 2.61.196 4.116-.093 2.175-.19 4.431.903 6.306 1.11 1.917 3.125 2.969 5.068 3.97 1.318.685 2.563 1.33 3.418 2.188.854.858 1.5 2.1 2.187 3.417 1.003 1.948 2.05 3.961 3.972 5.07 1.886 1.094 4.136.996 6.31.903 1.5-.064 2.918-.125 4.117.196 1.128.301 2.285 1.043 3.512 1.828C75.8 119.766 77.73 121 80 121c2.272 0 4.2-1.234 6.066-2.428 1.226-.781 2.384-1.527 3.512-1.828 1.199-.321 2.616-.26 4.116-.196 2.175.093 4.423.19 6.311-.903 1.917-1.109 2.968-3.125 3.97-5.068.684-1.318 1.33-2.563 2.187-3.418.858-.854 2.1-1.5 3.418-2.187 1.943-1.003 3.956-2.05 5.065-3.972 1.094-1.886.996-4.136.903-6.31-.064-1.5-.125-2.918.196-4.117.301-1.128 1.043-2.285 1.828-3.512C118.766 85.2 120 83.27 120 81c0-2.272-1.234-4.2-2.428-6.066ZM80 110.297c-16.155 0-29.297-13.142-29.297-29.297S63.845 51.703 80 51.703 109.297 64.845 109.297 81 96.155 110.297 80 110.297Z"/></g><defs><linearGradient id="a" x1="85.815" x2="85.815" y1="4" y2="164" gradientUnits="userSpaceOnUse"><stop offset=".54" stop-color="#26D7F3"/><stop offset=".96" stop-color="#0175C9"/></linearGradient><linearGradient id="b" x1="85.815" x2="85.815" y1="4" y2="164" gradientUnits="userSpaceOnUse"><stop offset=".54" stop-color="#26D7F3"/><stop offset=".96" stop-color="#0175C9"/></linearGradient><linearGradient id="c" x1="85.815" x2="85.815" y1="4" y2="164" gradientUnits="userSpaceOnUse"><stop offset=".54" stop-color="#26D7F3"/><stop offset=".96" stop-color="#0175C9"/></linearGradient><linearGradient id="d" x1="85.815" x2="85.815" y1="4" y2="164" gradientUnits="userSpaceOnUse"><stop offset=".54" stop-color="#26D7F3"/><stop offset=".96" stop-color="#0175C9"/></linearGradient><linearGradient id="e" x1="85.815" x2="85.815" y1="4" y2="164" gradientUnits="userSpaceOnUse"><stop offset=".54" stop-color="#26D7F3"/><stop offset=".96" stop-color="#0175C9"/></linearGradient><linearGradient id="f" x1="85.815" x2="85.815" y1="4" y2="164" gradientUnits="userSpaceOnUse"><stop offset=".54" stop-color="#26D7F3"/><stop offset=".96" stop-color="#0175C9"/></linearGradient><linearGradient id="g" x1="85.815" x2="85.815" y1="4" y2="164" gradientUnits="userSpaceOnUse"><stop offset=".54" stop-color="#26D7F3"/><stop offset=".96" stop-color="#0175C9"/></linearGradient><linearGradient id="h" x1="85.815" x2="85.815" y1="4" y2="164" gradientUnits="userSpaceOnUse"><stop offset=".54" stop-color="#26D7F3"/><stop offset=".96" stop-color="#0175C9"/></linearGradient><clipPath id="i"><path fill="#fff" d="M40 41h80v80H40z"/></clipPath></defs></svg>