<svg xmlns="http://www.w3.org/2000/svg" width="240" height="229" fill="none"><g filter="url(#a)"><path stroke="url(#b)" stroke-width="6.465" d="M120 5v200"/></g><path fill="url(#c)" d="M122.502 5a2.502 2.502 0 1 0-5.004 0h5.004ZM120 229l14.444-25.018h-28.888L120 229ZM117.498 5v201.484h5.004V5h-5.004Z"/><g filter="url(#d)"><path stroke="url(#e)" stroke-width="4.671" d="M144 5c0 53.927 19.341 138.213 92 148"/></g><path fill="url(#f)" d="M145.808 5a1.808 1.808 0 0 0-3.616 0h3.616ZM236 153l-15.367-14.125-4.549 20.371L236 153ZM142.192 5c0 25.05 4.142 56.653 15.836 84.445 11.697 27.801 31.047 51.987 61.551 61.733l1.1-3.444c-29.151-9.314-47.866-32.471-59.319-59.69C149.903 60.813 145.808 29.718 145.808 5h-3.616Z"/><g filter="url(#g)"><path stroke="url(#h)" stroke-width="4.671" d="M96 5c0 53.927-19.341 138.213-92 148"/></g><path fill="url(#i)" d="M94.192 5a1.808 1.808 0 0 1 3.616 0h-3.616ZM4 153l15.367-14.125 4.549 20.371L4 153ZM97.808 5c0 25.05-4.142 56.653-15.836 84.445-11.697 27.801-31.047 51.987-61.551 61.733l-1.1-3.444c29.151-9.314 47.866-32.471 59.32-59.69C90.096 60.813 94.191 29.718 94.191 5h3.616Z"/><defs><radialGradient id="b" cx="0" cy="0" r="1" gradientTransform="matrix(.87133 -182.66692 3.40704 .01625 120 187.667)" gradientUnits="userSpaceOnUse"><stop stop-color="#ACFFB7"/><stop offset=".448" stop-color="#0BCAFF"/><stop offset=".74" stop-color="#1F93FF"/></radialGradient><radialGradient id="e" cx="0" cy="0" r="1" gradientTransform="rotate(-59.331 195.047 -56.32) scale(157.155 269.611)" gradientUnits="userSpaceOnUse"><stop stop-color="#ACFFB7"/><stop offset=".448" stop-color="#0BCAFF"/><stop offset=".74" stop-color="#1F93FF"/></radialGradient><radialGradient id="h" cx="0" cy="0" r="1" gradientTransform="rotate(-120.669 87.92 42.746) scale(157.155 269.611)" gradientUnits="userSpaceOnUse"><stop stop-color="#ACFFB7"/><stop offset=".448" stop-color="#0BCAFF"/><stop offset=".74" stop-color="#1F93FF"/></radialGradient><linearGradient id="c" x1="129.867" x2="129.867" y1="312.462" y2="5" gradientUnits="userSpaceOnUse"><stop stop-color="#ACFFB7"/><stop offset=".56" stop-color="#0BCAFF"/><stop offset="1" stop-color="#1F93FF"/></linearGradient><linearGradient id="f" x1="1160.68" x2="1160.68" y1="168.339" y2="5" gradientUnits="userSpaceOnUse"><stop stop-color="#ACFFB7"/><stop offset=".56" stop-color="#0BCAFF"/><stop offset="1" stop-color="#1F93FF"/></linearGradient><linearGradient id="i" x1="-920.678" x2="-920.678" y1="168.339" y2="5" gradientUnits="userSpaceOnUse"><stop stop-color="#ACFFB7"/><stop offset=".56" stop-color="#0BCAFF"/><stop offset="1" stop-color="#1F93FF"/></linearGradient><filter id="a" width="14.804" height="208.339" x="112.598" y=".83" color-interpolation-filters="sRGB" filterUnits="userSpaceOnUse"><feFlood flood-opacity="0" result="BackgroundImageFix"/><feBlend in="SourceGraphic" in2="BackgroundImageFix" result="shape"/><feGaussianBlur result="effect1_foregroundBlur_22_1305" stdDeviation="2.085"/></filter><filter id="d" width="100.673" height="156.34" x="138.652" y="1.987" color-interpolation-filters="sRGB" filterUnits="userSpaceOnUse"><feFlood flood-opacity="0" result="BackgroundImageFix"/><feBlend in="SourceGraphic" in2="BackgroundImageFix" result="shape"/><feGaussianBlur result="effect1_foregroundBlur_22_1305" stdDeviation="1.506"/></filter><filter id="g" width="100.673" height="156.34" x=".675" y="1.987" color-interpolation-filters="sRGB" filterUnits="userSpaceOnUse"><feFlood flood-opacity="0" result="BackgroundImageFix"/><feBlend in="SourceGraphic" in2="BackgroundImageFix" result="shape"/><feGaussianBlur result="effect1_foregroundBlur_22_1305" stdDeviation="1.506"/></filter></defs></svg>