<svg xmlns="http://www.w3.org/2000/svg" width="476" height="249" fill="none"><g filter="url(#a)"><path stroke="url(#b)" stroke-width="7.752" d="M299 40c0 89.5 50.411 181.256 171 197.499M240 5v208M177 40c0 89.5-50.411 181.256-171 197.499"/></g><path fill="url(#c)" d="M302 40a3 3 0 1 0-6 0h6Zm168 197.499-26.242-22.613-6.462 34.033L470 237.499ZM296 40c0 83.65 43.59 169.691 146.755 195.375l1.449-5.823C344.358 204.695 302 121.62 302 40h-6Z"/><path fill="url(#d)" d="M243 5a3 3 0 1 0-6 0h6Zm-3 208 17.321-30h-34.642L240 213ZM237 5v181h6V5h-6Z"/><path fill="url(#e)" d="M174 40a3 3 0 1 1 6 0h-6ZM6 237.499l26.242-22.613 6.463 34.033L6 237.499ZM180 40c0 83.65-43.59 169.691-146.754 195.375l-1.45-5.823C131.642 204.695 174 121.62 174 40h6Z"/><defs><linearGradient id="c" x1="1986.34" x2="1986.34" y1="311.087" y2="40" gradientUnits="userSpaceOnUse"><stop stop-color="#ACFFB7"/><stop offset=".56" stop-color="#0BCAFF"/><stop offset="1" stop-color="#1F93FF"/></linearGradient><linearGradient id="d" x1="240" x2="240" y1="290.5" y2="5" gradientUnits="userSpaceOnUse"><stop stop-color="#ACFFB7"/><stop offset=".56" stop-color="#0BCAFF"/><stop offset="1" stop-color="#1F93FF"/></linearGradient><linearGradient id="e" x1="-1510.34" x2="-1510.34" y1="311.087" y2="40" gradientUnits="userSpaceOnUse"><stop stop-color="#ACFFB7"/><stop offset=".56" stop-color="#0BCAFF"/><stop offset="1" stop-color="#1F93FF"/></linearGradient><radialGradient id="b" cx="0" cy="0" r="1" gradientTransform="matrix(404.29477 -212.34952 341.82595 650.80649 6 217.349)" gradientUnits="userSpaceOnUse"><stop stop-color="#ACFFB7"/><stop offset=".448" stop-color="#0BCAFF"/><stop offset=".74" stop-color="#1F93FF"/></radialGradient><filter id="a" width="475.035" height="246.341" x=".483" y="0" color-interpolation-filters="sRGB" filterUnits="userSpaceOnUse"><feFlood flood-opacity="0" result="BackgroundImageFix"/><feBlend in="SourceGraphic" in2="BackgroundImageFix" result="shape"/><feGaussianBlur result="effect1_foregroundBlur_3_1694" stdDeviation="2.5"/></filter></defs></svg>