<svg xmlns="http://www.w3.org/2000/svg" width="172" height="168" fill="none"><path fill="url(#a)" d="M129.975 20.405c23.03 13.291 38.53 38.172 38.53 66.672 0 42.483-34.44 76.923-76.923 76.923-13.983 0-27.095-3.731-38.394-10.252-23.03-13.29-38.53-38.171-38.53-66.671 0-42.483 34.44-76.923 76.924-76.923 13.983 0 27.094 3.73 38.393 10.252Z"/><path fill="url(#b)" d="M80.923 4C38.44 4 4 38.44 4 80.923l10.659 6.154c0-42.483 34.44-76.923 76.923-76.923L80.923 4Z"/><path fill="url(#c)" d="M4 80.923c0 28.501 15.5 53.381 38.53 66.671l10.634 6.14c-23.017-13.294-38.505-38.167-38.505-66.657L4 80.923Z"/><path fill="url(#d)" d="M119.317 14.252C108.018 7.73 94.907 4 80.923 4l10.659 6.154c13.983 0 27.094 3.73 38.393 10.252l-10.658-6.154Z"/><path fill="url(#e)" d="M42.53 147.594c11.298 6.521 24.41 10.252 38.393 10.252L91.582 164c-13.983 0-27.095-3.731-38.394-10.252l-10.659-6.154Z"/><path fill="url(#f)" d="M157.846 80.923c0-28.49-15.489-53.363-38.505-66.657l10.634 6.14c23.03 13.29 38.53 38.17 38.53 66.67l-10.659-6.153Z"/><path fill="url(#g)" d="M80.923 157.846c42.484 0 76.923-34.44 76.923-76.923l10.659 6.154c0 42.483-34.44 76.923-76.923 76.923l-10.659-6.154Z"/><path stroke="url(#h)" stroke-linejoin="round" stroke-width="6.154" d="M168.505 87.077c0 42.483-34.44 76.923-76.923 76.923m76.923-76.923c0-28.5-15.5-53.38-38.53-66.671m38.53 66.67-10.659-6.153M91.582 164c-13.983 0-27.095-3.731-38.394-10.252M91.582 164l-10.659-6.154M14.66 87.076c0-42.482 34.44-76.922 76.923-76.922M14.659 87.077c0 28.5 15.5 53.381 38.53 66.671m-38.53-66.671L4 80.923m10.659 6.154c0 28.49 15.489 53.363 38.505 66.657m38.418-143.58c13.983 0 27.094 3.73 38.393 10.252M91.582 10.153 80.923 4M53.188 153.748a.288.288 0 0 1-.024-.014m.024.014-10.659-6.154m87.446-127.188-10.658-6.154m10.658 6.153-10.634-6.14M4 80.924C4 38.44 38.44 4 80.923 4M4 80.923c0 28.501 15.5 53.381 38.53 66.671M80.922 4c13.983 0 27.095 3.731 38.394 10.252M42.53 147.594l10.634 6.14m-10.635-6.14c11.3 6.521 24.411 10.252 38.394 10.252m38.394-143.594.024.014m-38.418 143.58c42.484 0 76.923-34.44 76.923-76.923m-38.505-66.657c23.016 13.294 38.505 38.167 38.505 66.657"/><circle cx="80.923" cy="80.923" r="76.923" fill="#F2B627"/><path fill="#fff" fill-rule="evenodd" d="M56.169 104.033c-8.227 0-14.896 6.669-14.896 14.896a2.344 2.344 0 0 0 2.344 2.344H68.72a2.345 2.345 0 0 0 2.344-2.344c0-8.227-6.67-14.896-14.896-14.896ZM46.127 93.991c0 5.537 4.505 10.042 10.042 10.042s10.042-4.505 10.042-10.042c0-5.536-4.505-10.041-10.042-10.041S46.127 88.455 46.127 93.99Zm47.698-15.395h25.104a2.344 2.344 0 0 0 2.344-2.344c0-8.227-6.669-14.896-14.896-14.896s-14.895 6.669-14.895 14.896a2.343 2.343 0 0 0 2.343 2.344Zm12.552-17.24c5.537 0 10.042-4.505 10.042-10.042s-4.505-10.041-10.042-10.041-10.042 4.504-10.042 10.041c0 5.538 4.505 10.042 10.042 10.042Zm-56.484 17.24h25.602c4.752 0 8.62-3.868 8.62-8.62V52.119l6.844-6.846c1.474-1.473.426-4-1.657-4H49.893a8.614 8.614 0 0 0-8.62 8.62v20.083a8.614 8.614 0 0 0 8.62 8.62ZM67.715 52.57a2.345 2.345 0 1 1-.002 4.689 2.345 2.345 0 0 1 .002-4.69Zm-10.042 0a2.345 2.345 0 0 1 0 4.687 2.345 2.345 0 0 1 0-4.687Zm-3.916 7.999a2.344 2.344 0 0 1 3.28.47 7.102 7.102 0 0 0 5.657 2.828 7.1 7.1 0 0 0 5.655-2.828A2.344 2.344 0 0 1 72.1 63.85a11.81 11.81 0 0 1-9.406 4.704 11.81 11.81 0 0 1-9.407-4.704 2.344 2.344 0 0 1 .47-3.281Zm58.896 60.704H87.051c-4.753 0-8.62-3.867-8.62-8.62V94.796l-6.844-6.846c-1.474-1.473-.426-4 1.657-4h39.409a8.614 8.614 0 0 1 8.62 8.62v20.083a8.614 8.614 0 0 1-8.62 8.62ZM94.831 95.247a2.344 2.344 0 1 0 .002 4.689 2.344 2.344 0 0 0-.002-4.69Zm10.042 0a2.345 2.345 0 0 0-2.344 2.344 2.345 2.345 0 0 0 4.688 0 2.345 2.345 0 0 0-2.344-2.344Zm3.916 8a2.343 2.343 0 0 0-3.281.469 7.1 7.1 0 0 1-5.656 2.828 7.1 7.1 0 0 1-5.656-2.828 2.343 2.343 0 1 0-3.75 2.812 11.81 11.81 0 0 0 9.406 4.703c3.683 0 7.199-1.758 9.407-4.703a2.344 2.344 0 0 0-.47-3.281Z" clip-rule="evenodd"/><defs><linearGradient id="a" x1="86.252" x2="86.252" y1="4" y2="164" gradientUnits="userSpaceOnUse"><stop offset=".54" stop-color="#FFC531"/><stop offset=".96" stop-color="#C17F00"/></linearGradient><linearGradient id="b" x1="86.252" x2="86.252" y1="4" y2="164" gradientUnits="userSpaceOnUse"><stop offset=".54" stop-color="#FFC531"/><stop offset=".96" stop-color="#C17F00"/></linearGradient><linearGradient id="c" x1="86.252" x2="86.252" y1="4" y2="164" gradientUnits="userSpaceOnUse"><stop offset=".54" stop-color="#FFC531"/><stop offset=".96" stop-color="#C17F00"/></linearGradient><linearGradient id="d" x1="86.252" x2="86.252" y1="4" y2="164" gradientUnits="userSpaceOnUse"><stop offset=".54" stop-color="#FFC531"/><stop offset=".96" stop-color="#C17F00"/></linearGradient><linearGradient id="e" x1="86.252" x2="86.252" y1="4" y2="164" gradientUnits="userSpaceOnUse"><stop offset=".54" stop-color="#FFC531"/><stop offset=".96" stop-color="#C17F00"/></linearGradient><linearGradient id="f" x1="86.252" x2="86.252" y1="4" y2="164" gradientUnits="userSpaceOnUse"><stop offset=".54" stop-color="#FFC531"/><stop offset=".96" stop-color="#C17F00"/></linearGradient><linearGradient id="g" x1="86.252" x2="86.252" y1="4" y2="164" gradientUnits="userSpaceOnUse"><stop offset=".54" stop-color="#FFC531"/><stop offset=".96" stop-color="#C17F00"/></linearGradient><linearGradient id="h" x1="86.252" x2="86.252" y1="4" y2="164" gradientUnits="userSpaceOnUse"><stop offset=".54" stop-color="#FFC531"/><stop offset=".96" stop-color="#C17F00"/></linearGradient></defs></svg>