<svg xmlns="http://www.w3.org/2000/svg" width="172" height="168" fill="none"><path fill="url(#a)" d="M129.975 20.405c23.03 13.291 38.53 38.172 38.53 66.672 0 42.483-34.44 76.923-76.923 76.923-13.983 0-27.095-3.731-38.394-10.252-23.03-13.29-38.53-38.171-38.53-66.671 0-42.483 34.44-76.923 76.924-76.923 13.983 0 27.094 3.73 38.393 10.252Z"/><path fill="url(#b)" d="M80.923 4C38.44 4 4 38.44 4 80.923l10.659 6.154c0-42.483 34.44-76.923 76.923-76.923L80.923 4Z"/><path fill="url(#c)" d="M4 80.923c0 28.501 15.5 53.381 38.53 66.671l10.634 6.14c-23.017-13.294-38.505-38.167-38.505-66.657L4 80.923Z"/><path fill="url(#d)" d="M119.317 14.252C108.018 7.73 94.907 4 80.923 4l10.659 6.154c13.983 0 27.094 3.73 38.393 10.252l-10.658-6.154Z"/><path fill="url(#e)" d="M42.53 147.594c11.298 6.521 24.41 10.252 38.393 10.252L91.582 164c-13.983 0-27.095-3.731-38.394-10.252l-10.659-6.154Z"/><path fill="url(#f)" d="M157.846 80.923c0-28.49-15.489-53.363-38.505-66.657l10.634 6.14c23.03 13.29 38.53 38.17 38.53 66.67l-10.659-6.153Z"/><path fill="url(#g)" d="M80.923 157.846c42.484 0 76.923-34.44 76.923-76.923l10.659 6.154c0 42.483-34.44 76.923-76.923 76.923l-10.659-6.154Z"/><path stroke="url(#h)" stroke-linejoin="round" stroke-width="6.154" d="M168.505 87.077c0 42.483-34.44 76.923-76.923 76.923m76.923-76.923c0-28.5-15.5-53.38-38.53-66.671m38.53 66.67-10.659-6.153M91.582 164c-13.983 0-27.095-3.731-38.394-10.252M91.582 164l-10.659-6.154M14.66 87.076c0-42.482 34.44-76.922 76.923-76.922M14.659 87.077c0 28.5 15.5 53.381 38.53 66.671m-38.53-66.671L4 80.923m10.659 6.154c0 28.49 15.489 53.363 38.505 66.657m38.418-143.58c13.983 0 27.094 3.73 38.393 10.252M91.582 10.153 80.923 4M53.188 153.748a.288.288 0 0 1-.024-.014m.024.014-10.659-6.154m87.446-127.188-10.658-6.154m10.658 6.153-10.634-6.14M4 80.924C4 38.44 38.44 4 80.923 4M4 80.923c0 28.501 15.5 53.381 38.53 66.671M80.922 4c13.983 0 27.095 3.731 38.394 10.252M42.53 147.594l10.634 6.14m-10.635-6.14c11.3 6.521 24.411 10.252 38.394 10.252m38.394-143.594.024.014m-38.418 143.58c42.484 0 76.923-34.44 76.923-76.923m-38.505-66.657c23.016 13.294 38.505 38.167 38.505 66.657"/><circle cx="81.361" cy="80.923" r="76.923" fill="#F2B627"/><path fill="#fff" fill-rule="evenodd" d="M53.397 43.5c5.742 0 10.396 4.654 10.396 10.396 0 .953-.13 1.877-.37 2.754-4.216 1.056-7.747 3.883-9.748 7.638-.093.003-.185.004-.278.004C47.655 64.292 43 59.638 43 53.896c0-5.741 4.655-10.396 10.396-10.396Zm56.918 29.39a1.446 1.446 0 0 1 1.765 1.02l5.36 20.002a1.446 1.446 0 0 1-1.02 1.766 1.445 1.445 0 0 1-1.765-1.02l-5.36-20.002a1.446 1.446 0 0 1 1.02-1.765Zm-9.432 25.774-2.748-4.76a72.85 72.85 0 0 0-.397.108c-.944.258-1.884.533-2.827.798l3.162 5.477a1.626 1.626 0 0 0 2.216.593 1.626 1.626 0 0 0 .594-2.215Zm7.553-21.179c-1.886 2.493-5.151 5.079-9.87 6.743l2.011 7.506c4.919-.919 9.04-.312 11.919.904l-4.06-15.153ZM97.079 84.71l1.97 7.352c-.576.138-1.15.286-1.722.443-1.076.294-2.147.611-3.222.91l-.675.183c-1.965.527-4.003-.65-4.565-2.747-.562-2.098.615-4.136 2.58-4.663 1.875-.502 3.774-.923 5.634-1.478Zm19.741.853.669-.394a.773.773 0 0 0 .358-.876l-.604-2.254a.776.776 0 0 0-.748-.58l-.777-.007 1.102 4.11ZM87.533 43.5h22.83c2.2 0 3.995 1.794 3.995 3.994v11.61c0 2.2-1.795 3.994-3.995 3.994H98.565l-6.375 5.243a.781.781 0 0 1-1.278-.604v-4.639h-3.379a4.002 4.002 0 0 1-3.994-3.993v-11.61c0-2.2 1.794-3.995 3.994-3.995Zm21.111 13.413h-10.08a.782.782 0 0 0 0 1.562h10.08a.782.782 0 1 0 0-1.563Zm0-8.79H89.252a.78.78 0 1 0 0 1.563h19.392a.782.782 0 1 0 0-1.563Zm0 4.395H89.252a.781.781 0 1 0 0 1.563h19.392a.782.782 0 1 0 0-1.563Zm-41.55 42.614-4.838 5.403a.78.78 0 0 1-1.254-.123l-5.219-8.81a.772.772 0 0 1 .092-.922l1.655-1.837a.779.779 0 0 1 1.036-.112l8.529 6.104 8.528-6.104a.779.779 0 0 1 1.036.112l1.655 1.837c.232.258.269.622.092.921l-5.219 8.811a.784.784 0 0 1-.956.33.778.778 0 0 1-.298-.207l-4.838-5.403Zm9.03-22.697a.77.77 0 0 1 .507.732v3.725c0 5.245-4.291 9.536-9.536 9.536-5.245 0-9.536-4.291-9.536-9.536v-3.534a.781.781 0 0 1 .743-.78c3.9-.19 8.484-1.847 11.259-4.638a.779.779 0 0 1 1.119.011c1.55 1.622 3.402 3.72 5.443 4.485Zm-9.03 11.558a3.371 3.371 0 0 0 3.214-2.352.78.78 0 0 0-.745-1.017h-4.937a.78.78 0 0 0-.745 1.017 3.371 3.371 0 0 0 3.214 2.352Zm-3.17-8.595c-.111.334-.575.479-.89.479-.316 0-.78-.145-.892-.479a.778.778 0 1 0-1.477.495c.332.99 1.362 1.546 2.368 1.546 1.007 0 2.037-.555 2.369-1.546a.78.78 0 0 0-1.086-.945.78.78 0 0 0-.391.45Zm8.123 0c-.111.334-.575.479-.891.479-.316 0-.78-.145-.891-.479a.777.777 0 0 0-1.255-.348.778.778 0 0 0-.222.843c.332.99 1.361 1.546 2.368 1.546s2.036-.555 2.368-1.546a.778.778 0 1 0-1.477-.495ZM43.001 118.5h8.078c-.375-.894-.664-1.885-.762-2.912H43v2.912Zm25.835-11.523a.405.405 0 0 0 .392.285l4.395-.009c.398-.001.564.511.242.745l-3.56 2.576a.409.409 0 0 0-.15.461l1.366 4.177c.123.377-.313.694-.634.46l-3.55-2.589a.401.401 0 0 0-.485 0l-3.55 2.589c-.32.234-.757-.083-.633-.46l1.366-4.177a.404.404 0 0 0-.15-.461l-3.56-2.576c-.323-.233-.157-.746.242-.745l4.394.009a.403.403 0 0 0 .392-.285l1.35-4.182c.123-.38.66-.38.783 0l1.35 4.182Zm11.077-14.91c-.046.114-.1.225-.163.33l-5.218 8.811a2.345 2.345 0 0 1-3.763.369l-3.674-4.103-3.674 4.103a2.345 2.345 0 0 1-3.764-.369l-5.218-8.81a2.384 2.384 0 0 1-.162-.33l-5.237 2.309C45.287 96.032 43 99.538 43 103.64v10.386h7.323a6.746 6.746 0 0 1 .518-1.955.777.777 0 0 1 1.025-.402.778.778 0 0 1 .403 1.025c-.861 1.978-.304 4.141.521 5.806H81.65c.826-1.664 1.383-3.828.522-5.806a.779.779 0 0 1 1.428-.623c.27.622.445 1.281.518 1.955h7.071V103.64c0-4.102-2.286-7.608-6.038-9.263l-5.238-2.31Zm-25.647-1.702c.103-.27.256-.517.449-.732l1.655-1.836a2.342 2.342 0 0 1 3.105-.337l1.45 1.038c.26-.62.41-1.324.58-2.027-3.283-1.925-5.509-5.49-5.509-9.58v-3.533c0-1.25.981-2.28 2.23-2.341 3.499-.17 7.726-1.663 10.227-4.179a2.342 2.342 0 0 1 3.357.034c1.272 1.332 3.126 3.45 4.86 4.1a2.332 2.332 0 0 1 1.523 2.195v3.725c0 4.118-2.234 7.665-5.508 9.58.17.703.32 1.407.58 2.026l1.45-1.038a2.343 2.343 0 0 1 3.105.337l1.655 1.836c.193.215.345.462.449.732l4.565 2.013c.137-.571.21-1.159.213-1.716.014-4.336-4.356-9.973-3.975-19.27 0-7.497-6.135-13.632-13.632-13.632-7.498 0-13.632 6.135-13.632 13.632.38 9.297-3.99 14.934-3.975 19.27.002.557.075 1.145.213 1.715l4.565-2.012Zm7.942-.95 4.887 3.498 4.887-3.497c-.317-.699-.52-1.492-.744-2.232a11.088 11.088 0 0 1-8.287 0c-.223.74-.426 1.533-.743 2.232Zm28.98 29.085h-7.826c.376-.894.664-1.885.762-2.912h7.065v2.912ZM58.535 52.937c0-1.62-1.208-2.934-2.698-2.934-1.077 0-2.006.686-2.439 1.678-.433-.992-1.362-1.678-2.439-1.678-1.49 0-2.698 1.313-2.698 2.934 0 1.851 3.492 4.95 4.73 6.288.224.244.59.244.815 0 1.237-1.338 4.729-4.437 4.729-6.288Z" clip-rule="evenodd"/><defs><linearGradient id="a" x1="86.252" x2="86.252" y1="4" y2="164" gradientUnits="userSpaceOnUse"><stop offset=".54" stop-color="#FFC531"/><stop offset=".96" stop-color="#C17F00"/></linearGradient><linearGradient id="b" x1="86.252" x2="86.252" y1="4" y2="164" gradientUnits="userSpaceOnUse"><stop offset=".54" stop-color="#FFC531"/><stop offset=".96" stop-color="#C17F00"/></linearGradient><linearGradient id="c" x1="86.252" x2="86.252" y1="4" y2="164" gradientUnits="userSpaceOnUse"><stop offset=".54" stop-color="#FFC531"/><stop offset=".96" stop-color="#C17F00"/></linearGradient><linearGradient id="d" x1="86.252" x2="86.252" y1="4" y2="164" gradientUnits="userSpaceOnUse"><stop offset=".54" stop-color="#FFC531"/><stop offset=".96" stop-color="#C17F00"/></linearGradient><linearGradient id="e" x1="86.252" x2="86.252" y1="4" y2="164" gradientUnits="userSpaceOnUse"><stop offset=".54" stop-color="#FFC531"/><stop offset=".96" stop-color="#C17F00"/></linearGradient><linearGradient id="f" x1="86.252" x2="86.252" y1="4" y2="164" gradientUnits="userSpaceOnUse"><stop offset=".54" stop-color="#FFC531"/><stop offset=".96" stop-color="#C17F00"/></linearGradient><linearGradient id="g" x1="86.252" x2="86.252" y1="4" y2="164" gradientUnits="userSpaceOnUse"><stop offset=".54" stop-color="#FFC531"/><stop offset=".96" stop-color="#C17F00"/></linearGradient><linearGradient id="h" x1="86.252" x2="86.252" y1="4" y2="164" gradientUnits="userSpaceOnUse"><stop offset=".54" stop-color="#FFC531"/><stop offset=".96" stop-color="#C17F00"/></linearGradient></defs></svg>