<svg xmlns="http://www.w3.org/2000/svg" width="165" height="160" fill="none"><path fill="url(#a)" d="M125.975 16.405c23.03 13.291 38.53 38.172 38.53 66.672 0 42.483-34.44 76.923-76.923 76.923-13.983 0-27.095-3.731-38.394-10.252-23.03-13.29-38.53-38.171-38.53-66.671 0-42.483 34.44-76.923 76.924-76.923 13.983 0 27.094 3.73 38.393 10.252Z"/><path fill="url(#b)" d="M76.923 0C34.44 0 0 34.44 0 76.923l10.659 6.154c0-42.483 34.44-76.923 76.923-76.923L76.923 0Z"/><path fill="url(#c)" d="M0 76.923c0 28.501 15.5 53.381 38.53 66.671l10.634 6.14c-23.017-13.294-38.505-38.167-38.505-66.657L0 76.923Z"/><path fill="url(#d)" d="M115.317 10.252C104.018 3.73 90.907 0 76.923 0l10.659 6.154c13.983 0 27.094 3.73 38.393 10.252l-10.658-6.154Z"/><path fill="url(#e)" d="M38.53 143.594c11.298 6.521 24.41 10.252 38.393 10.252L87.582 160c-13.983 0-27.095-3.731-38.394-10.252l-10.659-6.154Z"/><path fill="url(#f)" d="M153.846 76.923c0-28.49-15.489-53.363-38.505-66.657l10.634 6.14c23.03 13.29 38.53 38.17 38.53 66.67l-10.659-6.153Z"/><path fill="url(#g)" d="M76.923 153.846c42.484 0 76.923-34.44 76.923-76.923l10.659 6.154c0 42.483-34.44 76.923-76.923 76.923l-10.659-6.154Z"/><circle cx="76.923" cy="76.923" r="76.923" fill="#F447A2"/><path fill="#fff" d="M70.1 79.592H42.627a5.385 5.385 0 0 0-5.354 5.412v18.353a5.47 5.47 0 0 0 3.795 5.182c.73.234 1.5.312 2.26.23v6.127a1.44 1.44 0 0 0 1.714 1.4 1.44 1.44 0 0 0 .735-.383l7.03-7.144H70.1a5.39 5.39 0 0 0 3.8-1.595 5.382 5.382 0 0 0 1.555-3.817V85.004a5.38 5.38 0 0 0-5.355-5.412ZM55.254 94.18a2.09 2.09 0 1 1 4.18 0 2.09 2.09 0 0 1-4.18 0Zm11.54 2.12a2.118 2.118 0 1 1-.001-4.238 2.118 2.118 0 0 1 0 4.237Zm-18.898 0a2.119 2.119 0 1 1 0-4.238 2.119 2.119 0 0 1 0 4.237Zm24.867-54.747H42.727a4.664 4.664 0 0 0-4.652 4.668v12.755c1.803-.758 11.592-4.95 13.614-5.812a1.43 1.43 0 0 1 1.575.315l5.67 5.67 7.988-3.437a1.407 1.407 0 0 1 1.546.272c1.89 1.804 7.127 6.793 8.962 8.533V46.22a4.667 4.667 0 0 0-4.667-4.668Zm-10.35 10.18a1.918 1.918 0 1 1 0-3.837 1.918 1.918 0 0 1 0 3.836Z"/><path fill="#fff" d="m67.18 58.704-6.07 2.62 2.204 2.205a1.427 1.427 0 1 1-2.018 2.019l-9.363-9.363c-2.069.884-11.989 5.122-13.858 5.912v6.557a4.664 4.664 0 0 0 4.652 4.667h30.036a4.678 4.678 0 0 0 4.667-4.839c-1.864-1.78-8.275-7.894-10.25-9.778Zm45.383 32.47H83.658a4.887 4.887 0 0 0-4.882 4.882v16.335a4.887 4.887 0 0 0 4.882 4.882h28.905a4.89 4.89 0 0 0 4.882-4.882V96.056a4.89 4.89 0 0 0-4.882-4.882Zm-9.606 14.731-6.128 4.295a2.095 2.095 0 0 1-2.132.116 2.093 2.093 0 0 1-1.118-1.819v-8.561a2.078 2.078 0 0 1 3.25-1.69l6.128 4.281a2.062 2.062 0 0 1 0 3.378Z"/><path fill="#fff" d="m96.442 106.979 3.938-2.763-3.938-2.749v5.512Zm-9.22-21.703h28.304a1.433 1.433 0 0 0 1.014-.418 1.431 1.431 0 0 0 .418-1.014v-45.14a1.415 1.415 0 0 0-.418-1.013 1.426 1.426 0 0 0-1.014-.418H87.223a1.427 1.427 0 0 0-1.432 1.431v45.14a1.428 1.428 0 0 0 1.432 1.432Zm5.513-22.305h5.64a1.432 1.432 0 0 1 0 2.863h-5.64a1.432 1.432 0 1 1 0-2.863Zm-1.432-4.825a1.436 1.436 0 0 1 1.432-1.432h14.516a1.433 1.433 0 0 1 1.432 1.432 1.433 1.433 0 0 1-1.432 1.432H92.735a1.425 1.425 0 0 1-1.432-1.432Zm1.432 11.067h13.886a1.433 1.433 0 0 1 1.432 1.431 1.433 1.433 0 0 1-1.432 1.432H92.735a1.432 1.432 0 0 1 0-2.863Zm11.911-3.38a1.43 1.43 0 0 1-1.432-1.43 1.43 1.43 0 0 1 1.432-1.432h5.368a1.434 1.434 0 0 1 1.432 1.431 1.433 1.433 0 0 1-1.432 1.432h-5.368Zm5.368-12.497h-17.28a1.432 1.432 0 1 1 0-2.864h17.28a1.434 1.434 0 0 1 1.432 1.432 1.433 1.433 0 0 1-1.432 1.432Zm-18.711-7.674a1.436 1.436 0 0 1 1.432-1.431h6.514a1.432 1.432 0 0 1 0 2.863h-6.514a1.437 1.437 0 0 1-1.432-1.432Zm1.432 29.792h17.279a1.434 1.434 0 0 1 1.432 1.432 1.433 1.433 0 0 1-1.432 1.432h-17.28a1.432 1.432 0 1 1 0-2.864Z"/><defs><linearGradient id="a" x1="82.252" x2="82.252" y1="0" y2="160" gradientUnits="userSpaceOnUse"><stop offset=".54" stop-color="#FF4DAA"/><stop offset=".96" stop-color="#9F145C"/></linearGradient><linearGradient id="b" x1="82.252" x2="82.252" y1="0" y2="160" gradientUnits="userSpaceOnUse"><stop offset=".54" stop-color="#FF4DAA"/><stop offset=".96" stop-color="#9F145C"/></linearGradient><linearGradient id="c" x1="82.252" x2="82.252" y1="0" y2="160" gradientUnits="userSpaceOnUse"><stop offset=".54" stop-color="#FF4DAA"/><stop offset=".96" stop-color="#9F145C"/></linearGradient><linearGradient id="d" x1="82.252" x2="82.252" y1="0" y2="160" gradientUnits="userSpaceOnUse"><stop offset=".54" stop-color="#FF4DAA"/><stop offset=".96" stop-color="#9F145C"/></linearGradient><linearGradient id="e" x1="82.252" x2="82.252" y1="0" y2="160" gradientUnits="userSpaceOnUse"><stop offset=".54" stop-color="#FF4DAA"/><stop offset=".96" stop-color="#9F145C"/></linearGradient><linearGradient id="f" x1="82.252" x2="82.252" y1="0" y2="160" gradientUnits="userSpaceOnUse"><stop offset=".54" stop-color="#FF4DAA"/><stop offset=".96" stop-color="#9F145C"/></linearGradient><linearGradient id="g" x1="82.252" x2="82.252" y1="0" y2="160" gradientUnits="userSpaceOnUse"><stop offset=".54" stop-color="#FF4DAA"/><stop offset=".96" stop-color="#9F145C"/></linearGradient></defs></svg>