<svg xmlns="http://www.w3.org/2000/svg" width="165" height="160" fill="none"><path fill="url(#a)" d="M125.975 16.405c23.03 13.291 38.53 38.172 38.53 66.672 0 42.483-34.44 76.923-76.923 76.923-13.983 0-27.095-3.731-38.394-10.252-23.03-13.29-38.53-38.171-38.53-66.671 0-42.483 34.44-76.923 76.924-76.923 13.983 0 27.094 3.73 38.393 10.252Z"/><path fill="url(#b)" d="M76.923 0C34.44 0 0 34.44 0 76.923l10.659 6.154c0-42.483 34.44-76.923 76.923-76.923L76.923 0Z"/><path fill="url(#c)" d="M0 76.923c0 28.501 15.5 53.381 38.53 66.671l10.634 6.14c-23.017-13.294-38.505-38.167-38.505-66.657L0 76.923Z"/><path fill="url(#d)" d="M115.317 10.252C104.018 3.73 90.907 0 76.923 0l10.659 6.154c13.983 0 27.094 3.73 38.393 10.252l-10.658-6.154Z"/><path fill="url(#e)" d="M38.53 143.594c11.298 6.521 24.41 10.252 38.393 10.252L87.582 160c-13.983 0-27.095-3.731-38.394-10.252l-10.659-6.154Z"/><path fill="url(#f)" d="M153.846 76.923c0-28.49-15.489-53.363-38.505-66.657l10.634 6.14c23.03 13.29 38.53 38.17 38.53 66.67l-10.659-6.153Z"/><path fill="url(#g)" d="M76.923 153.846c42.484 0 76.923-34.44 76.923-76.923l10.659 6.154c0 42.483-34.44 76.923-76.923 76.923l-10.659-6.154Z"/><circle cx="77.361" cy="76.923" r="76.923" fill="#F447A2"/><g clip-path="url(#h)"><path fill="#fff" d="M76.438 62a2.336 2.336 0 0 1-1.657-.687L64.639 51.172c-3.237-3.237-3.237-8.504 0-11.74A8.246 8.246 0 0 1 70.509 37c2.217 0 4.302.863 5.87 2.432l.059.059.058-.06A8.247 8.247 0 0 1 82.366 37c2.218 0 4.303.863 5.87 2.432 3.238 3.236 3.238 8.503 0 11.74L78.096 61.314a2.336 2.336 0 0 1-1.657.686Zm25.773 17.188a2.334 2.334 0 0 1-1.657-.687L90.412 68.359c-3.237-3.236-3.237-8.503 0-11.74a8.247 8.247 0 0 1 5.87-2.431c2.218 0 4.302.863 5.87 2.431l.059.06.059-.06a8.247 8.247 0 0 1 5.87-2.431c2.218 0 4.302.863 5.87 2.431 3.237 3.237 3.237 8.504 0 11.74l-10.142 10.142a2.325 2.325 0 0 1-1.657.686Zm-51.546 0a2.337 2.337 0 0 1-1.658-.687L38.866 68.359c-3.237-3.236-3.237-8.503 0-11.74s8.503-3.237 11.74 0l.059.06.058-.06a8.247 8.247 0 0 1 5.87-2.431c2.218 0 4.302.863 5.87 2.431 3.237 3.237 3.237 8.504 0 11.74L52.323 78.501a2.337 2.337 0 0 1-1.657.686Zm-1.18 19.062a7.04 7.04 0 0 1-7.032-7.031 7.04 7.04 0 0 1 7.032-7.031 7.04 7.04 0 0 1 7.031 7.03 7.04 7.04 0 0 1-7.031 7.032Zm-7.206 2.2a12.879 12.879 0 0 0-5.685 10.691v3.515A2.344 2.344 0 0 0 38.938 117h18.75v-6.25c0-2.797.616-5.452 1.719-7.838a12.981 12.981 0 0 0-2.718-2.461 11.655 11.655 0 0 1-7.204 2.487c-2.716 0-5.216-.931-7.206-2.488Zm68.317 0a11.65 11.65 0 0 1-7.205 2.488c-2.715 0-5.215-.931-7.204-2.487a12.981 12.981 0 0 0-2.718 2.461 18.638 18.638 0 0 1 1.719 7.838V117h18.75a2.344 2.344 0 0 0 2.344-2.344v-3.515a12.88 12.88 0 0 0-5.686-10.691Zm-7.205-2.2a7.04 7.04 0 0 1-7.031-7.031 7.04 7.04 0 0 1 7.031-7.031 7.039 7.039 0 0 1 7.031 7.03 7.039 7.039 0 0 1-7.031 7.032Zm-19.31.695a13.206 13.206 0 0 1-7.643 2.43c-2.844 0-5.48-.902-7.644-2.43-3.863 2.506-6.419 6.857-6.419 11.805V117H90.5v-6.25a14.05 14.05 0 0 0-6.419-11.805Zm-7.643-2.257c-4.739 0-8.594-3.856-8.594-8.594 0-4.739 3.855-8.594 8.594-8.594 4.738 0 8.594 3.855 8.594 8.594 0 4.738-3.856 8.594-8.594 8.594Z"/></g><defs><linearGradient id="a" x1="82.252" x2="82.252" y1="0" y2="160" gradientUnits="userSpaceOnUse"><stop offset=".54" stop-color="#FF4DAA"/><stop offset=".96" stop-color="#9F145C"/></linearGradient><linearGradient id="b" x1="82.252" x2="82.252" y1="0" y2="160" gradientUnits="userSpaceOnUse"><stop offset=".54" stop-color="#FF4DAA"/><stop offset=".96" stop-color="#9F145C"/></linearGradient><linearGradient id="c" x1="82.252" x2="82.252" y1="0" y2="160" gradientUnits="userSpaceOnUse"><stop offset=".54" stop-color="#FF4DAA"/><stop offset=".96" stop-color="#9F145C"/></linearGradient><linearGradient id="d" x1="82.252" x2="82.252" y1="0" y2="160" gradientUnits="userSpaceOnUse"><stop offset=".54" stop-color="#FF4DAA"/><stop offset=".96" stop-color="#9F145C"/></linearGradient><linearGradient id="e" x1="82.252" x2="82.252" y1="0" y2="160" gradientUnits="userSpaceOnUse"><stop offset=".54" stop-color="#FF4DAA"/><stop offset=".96" stop-color="#9F145C"/></linearGradient><linearGradient id="f" x1="82.252" x2="82.252" y1="0" y2="160" gradientUnits="userSpaceOnUse"><stop offset=".54" stop-color="#FF4DAA"/><stop offset=".96" stop-color="#9F145C"/></linearGradient><linearGradient id="g" x1="82.252" x2="82.252" y1="0" y2="160" gradientUnits="userSpaceOnUse"><stop offset=".54" stop-color="#FF4DAA"/><stop offset=".96" stop-color="#9F145C"/></linearGradient><clipPath id="h"><path fill="#fff" d="M36.438 37h80v80h-80z"/></clipPath></defs></svg>