<svg xmlns="http://www.w3.org/2000/svg" width="599" height="240" fill="none"><path fill="#222" d="M38.3 38.079v47.143c0 1.855.518 3.09 1.288 3.736.43.36.938.538 1.478.538 1.634 0 3.143-1.634 3.143-5.154V70.136h-3.646V57.062h23.76v48.651H50.62v-7.92h-1.382c-1.635 5.909-7.418 9.177-13.326 9.177-3.524 0-7.203-1.188-10.29-3.777-4.29-3.599-7.436-9.902-7.436-19.48V39.462c0-15.338 8.423-23.006 22.754-23.006 6.7 0 12.213 1.728 16.199 5.072 4.615 3.87 7.184 9.907 7.184 17.934v14.205H44.21V38.08c0-1.912-.512-3.08-1.252-3.7-.477-.4-1.048-.575-1.64-.575-1.634 0-3.017 1.132-3.017 4.275ZM75.374 17.587h31.303l7.543 88.126H94.106L93.1 85.724h-4.526l-1.005 19.989H67.454l7.92-88.126ZM89.33 68.25h2.891l-.754-15.84h-1.257l-.88 15.84ZM118.731 17.713h25.897l2.514 53.051h1.383l2.515-53.051h25.771v88h-18.48l2.263-52.674h-1.383l-5.154 52.674h-12.572l-5.28-52.674h-1.383l2.389 52.674h-18.48v-88ZM182.261 17.713h20.114v88h-20.114v-88ZM240.167 35.187h-12.32V53.04h11.566v17.474h-11.566v35.2h-20.114v-88h32.434v17.474ZM243.739 17.713h20.114l2.138 36.08h1.382l2.012-36.08h20.114l-12.948 63.863v24.137h-20.115V81.576l-12.697-63.863ZM294.034 17.713h20.114v88h-20.114v-88ZM346.911 17.713h20.115v88h-21.875l-8.925-52.674h-1.132l4.4 52.674H319.38v-88h21.874l9.429 53.051h1.131l-4.903-53.051ZM392.466 38.079v47.143c0 1.855.518 3.09 1.288 3.736.429.36.937.538 1.478.538 1.634 0 3.143-1.634 3.143-5.154V70.136h-3.646V57.062h23.76v48.651h-13.703v-7.92h-1.383c-1.634 5.909-7.417 9.177-13.325 9.177-3.525 0-7.203-1.188-10.29-3.777-4.29-3.599-7.436-9.902-7.436-19.48V39.462c0-15.338 8.423-23.006 22.754-23.006 6.7 0 12.213 1.728 16.199 5.072 4.614 3.87 7.184 9.907 7.184 17.934v14.205h-20.114V38.08c0-1.912-.512-3.08-1.252-3.7-.477-.4-1.049-.575-1.64-.575-1.634 0-3.017 1.132-3.017 4.275ZM446.99 17.713h20.114v67.634c0 1.86.477 3.002 1.196 3.606.449.376.991.543 1.57.543 1.508 0 2.765-1.132 2.765-4.149V17.713h20.115v66c0 15.211-8.8 23.257-23.257 23.257-6.451 0-11.654-1.605-15.425-4.768-4.608-3.865-7.078-10.055-7.078-18.489v-66ZM518.112 38.079v47.143c0 1.855.517 3.09 1.287 3.736.43.36.938.538 1.478.538 1.635 0 3.143-1.634 3.143-5.154V70.136h-3.646V57.062h23.76v48.651h-13.702v-7.92h-1.383c-1.635 5.909-7.417 9.177-13.326 9.177-3.524 0-7.203-1.188-10.289-3.777-4.29-3.599-7.437-9.902-7.437-19.48V39.462c0-15.338 8.423-23.006 22.755-23.006 6.7 0 12.212 1.728 16.198 5.072 4.615 3.87 7.184 9.907 7.184 17.934v14.205H524.02V38.08c0-1.912-.511-3.08-1.252-3.7-.477-.4-1.048-.575-1.639-.575-1.635 0-3.017 1.132-3.017 4.275ZM569.487 38.204v47.143c0 1.792.488 2.919 1.226 3.538.505.424 1.128.61 1.792.61 1.508 0 2.891-1.13 2.891-4.148V64.102h20.114v19.737c0 15.085-8.925 23.131-23.382 23.131-6.539 0-11.848-1.622-15.688-4.843-4.576-3.84-7.067-9.949-7.067-18.288V39.587c0-15.337 8.423-23.005 22.755-23.005 6.7 0 12.212 1.728 16.198 5.071 4.615 3.871 7.184 9.908 7.184 17.934V59.45h-20.114V38.204c0-1.911-.512-3.079-1.252-3.7-.477-.4-1.048-.574-1.639-.574-1.635 0-3.018 1.132-3.018 4.274ZM147.711 158.204v47.143c0 1.792.488 2.919 1.226 3.538.505.424 1.127.611 1.791.611 1.509 0 2.892-1.132 2.892-4.149v-21.245h20.114v19.737c0 15.085-8.926 23.131-23.383 23.131-6.539 0-11.847-1.622-15.687-4.843-4.577-3.839-7.067-9.949-7.067-18.288v-44.252c0-15.337 8.423-23.005 22.754-23.005 6.7 0 12.213 1.728 16.199 5.071 4.614 3.871 7.184 9.908 7.184 17.934v19.863H153.62v-21.246c0-1.911-.512-3.079-1.252-3.7-.477-.4-1.049-.574-1.64-.574-1.634 0-3.017 1.132-3.017 4.274ZM179.098 137.587h22.503c6.659 0 12.06 1.625 15.963 4.899 4.645 3.897 7.169 10.128 7.169 18.736v.502c0 14.458-7.04 21.623-12.823 22v1.383c1.732.116 3.606.95 5.372 2.432 4.001 3.356 7.451 10.033 7.451 19.191v1.006c0 7.166.125 12.697 1.257 17.977h-19.989c-1.131-5.406-1.257-11.314-1.257-18.103v-10.183c0-1.844-.303-2.996-1.062-3.633-.534-.448-1.293-.641-2.332-.641h-2.137v32.56h-20.115v-88.126Zm20.115 17.475v20.617h2.137c2.514 0 3.394-1.257 3.394-4.4v-11.943c0-1.794-.311-2.966-1.092-3.621-.532-.447-1.283-.653-2.302-.653h-2.137ZM262.786 155.187h-12.32v15.589h12.068v17.474h-12.068v19.989h12.446v17.474h-32.56v-88h32.434v17.474ZM274.892 137.587h31.303l7.542 88.126h-20.114l-1.006-19.989h-4.525l-1.006 19.989h-20.114l7.92-88.126Zm13.954 50.663h2.891l-.754-15.84h-1.257l-.88 15.84ZM356.958 137.713v17.474h-12.069v70.526h-20.114v-70.526h-12.194v-17.474h44.377ZM361.644 137.713h20.115v88h-20.115v-88ZM386.991 159.587c0-15.337 8.422-23.131 22.754-23.131 6.685 0 12.188 1.72 16.172 5.062 4.631 3.884 7.211 9.96 7.211 18.069v44.126c0 15.211-8.926 23.257-23.383 23.257-6.506 0-11.794-1.632-15.629-4.849-4.614-3.87-7.125-10.033-7.125-18.408v-44.126Zm20.114-1.508v47.268c0 1.82.503 2.954 1.234 3.568.48.403 1.059.581 1.657.581 1.635 0 3.017-1.132 3.017-4.149v-47.268c0-1.836-.471-2.943-1.19-3.546-.511-.429-1.147-.603-1.827-.603-1.508 0-2.891 1.006-2.891 4.149ZM465.898 137.713h20.114v88h-21.874l-8.926-52.674h-1.131l4.4 52.674h-20.114v-88h21.874l9.428 53.051h1.132l-4.903-53.051Z"/><path fill="#222" d="M25.62 3.6C11.287 3.6 2.864 11.27 2.864 26.606l15.321 12.856c0-15.338 8.423-23.006 22.754-23.006L25.62 3.6ZM41.818 8.672C37.832 5.328 32.32 3.6 25.62 3.6l15.32 12.856c6.7 0 12.213 1.728 16.199 5.072L41.819 8.672Z"/><path fill="#222" d="M2.865 26.606v44.251l15.321 12.856V39.462L2.866 26.606ZM22.98 25.223c0-3.143 1.382-4.274 3.017-4.274l15.32 12.855c-1.634 0-3.017 1.132-3.017 4.275L22.98 25.223Z"/><path fill="#222" d="M25.997 20.949c.59 0 1.162.173 1.64.574l15.32 12.855c-.477-.4-1.048-.574-1.64-.574L25.998 20.95Z"/><path fill="#222" d="M27.636 21.523c.74.621 1.252 1.788 1.252 3.7L44.21 38.079c0-1.912-.512-3.08-1.252-3.7l-15.32-12.856Z"/><path fill="#222" d="M28.888 25.223v15.589L44.21 53.666V38.08l-15.32-12.856ZM49.002 26.606c0-8.024-2.568-14.06-7.18-17.93L57.14 21.528c4.615 3.87 7.184 9.907 7.184 17.934l-15.32-12.856Z"/><path fill="#222" d="M22.98 72.366V25.223L38.3 38.079v47.143L22.98 72.366Z"/><path fill="#222" d="M25.242 44.206V57.28l15.321 12.856V57.062l-15.32-12.856ZM28.888 40.812h20.114l15.321 12.855H44.21l-15.32-12.855ZM2.865 70.857c0 9.578 3.147 15.882 7.437 19.48l15.316 12.852c-4.288-3.6-7.432-9.902-7.432-19.476L2.866 70.857Z"/><path fill="#222" d="M49.002 44.206h-23.76l15.321 12.856h23.76l-15.32-12.856ZM25.242 57.28h3.646L44.21 70.136h-3.646L25.243 57.28ZM49.002 40.812V26.606l15.321 12.856v14.205l-15.32-12.855ZM91.356 4.732H60.054l15.32 12.855h31.303L91.357 4.732Z"/><path fill="#222" d="M28.888 57.28v14.206L44.21 84.342V70.136L28.889 57.28ZM24.267 76.102c-.77-.646-1.287-1.88-1.287-3.736L38.3 85.222c0 1.855.518 3.09 1.288 3.736l-15.32-12.856Z"/><path fill="#222" d="M25.745 76.64c-.54 0-1.048-.178-1.478-.538l15.321 12.856c.43.36.938.538 1.478.538L25.746 76.64Z"/><path fill="#222" d="M28.888 71.486c0 3.52-1.509 5.154-3.143 5.154l15.321 12.856c1.634 0 3.143-1.634 3.143-5.154l-15.32-12.856ZM10.302 90.337c3.086 2.589 6.765 3.778 10.289 3.778l15.32 12.855c-3.523 0-7.202-1.188-10.289-3.777l-15.32-12.856ZM60.053 4.732l-7.92 88.125 15.321 12.856 7.92-88.126-15.32-12.855Z"/><path fill="#222" d="M20.591 94.115c5.909 0 11.691-3.27 13.326-9.178l15.32 12.856c-1.634 5.909-7.417 9.177-13.325 9.177L20.59 94.115ZM33.917 84.937H35.3l15.32 12.856h-1.382L33.917 84.937ZM49.002 92.857V44.206l15.321 12.856v48.651l-15.32-12.856ZM74.888 39.554h1.257l15.32 12.856H90.21L74.888 39.554Z"/><path fill="#222" d="M35.3 84.937v7.92l15.32 12.856v-7.92L35.3 84.937ZM74.008 55.394l.88-15.84 15.32 12.856-.88 15.84-15.32-12.856Z"/><path fill="#222" d="m76.145 39.554.754 15.84L92.22 68.25l-.754-15.84-15.321-12.856ZM35.3 92.857h13.702l15.321 12.856H50.62L35.3 92.857ZM129.307 4.857H103.41l15.321 12.856h25.897L129.307 4.857Z"/><path fill="#222" d="M76.9 55.394h-2.892l15.32 12.856h2.892L76.9 55.394ZM98.9 92.857 91.355 4.732l15.321 12.855 7.543 88.126L98.9 92.857ZM73.253 72.869h4.526L93.1 85.724h-4.526L73.254 72.87ZM52.133 92.857h20.115l15.32 12.856H67.455l-15.32-12.856Z"/><path fill="#222" d="m72.248 92.857 1.005-19.988 15.321 12.855-1.005 19.989-15.321-12.856ZM103.41 4.857v88l15.321 12.856v-88L103.41 4.857Z"/><path fill="#222" d="m77.78 72.869 1.005 19.988 15.32 12.856L93.1 85.724 77.78 72.87ZM161.49 4.857h-25.771l15.321 12.856h25.771L161.49 4.857ZM119.502 40.183h1.382l15.321 12.856h-1.383l-15.32-12.856Z"/><path fill="#222" d="m131.822 57.908-2.515-53.05 15.321 12.855 2.514 53.051-15.32-12.855Z"/><path fill="#222" d="m135.719 4.857-2.515 53.051 15.321 12.856 2.515-53.051-15.321-12.856ZM78.785 92.857h20.114l15.321 12.856H94.106L78.785 92.857Z"/><path fill="#222" d="m121.89 92.857-2.388-52.674 15.32 12.856 2.389 52.674-15.321-12.856ZM143.89 40.183h1.383l15.321 12.856h-1.383L143.89 40.183Z"/><path fill="#222" d="m120.884 40.183 5.28 52.674 15.321 12.856-5.28-52.674-15.321-12.856ZM187.054 4.857H166.94l15.321 12.856h20.114L187.054 4.857Z"/><path fill="#222" d="M133.204 57.908h-1.382l15.32 12.856h1.383L133.204 57.91ZM103.41 92.857h18.48l15.321 12.856h-18.48L103.41 92.857Z"/><path fill="#222" d="m138.736 92.857 5.154-52.674 15.321 12.856-5.154 52.674-15.321-12.856Z"/><path fill="#222" d="m145.273 40.183-2.263 52.674 15.321 12.856 2.263-52.674-15.321-12.856ZM161.49 92.857v-88l15.321 12.856v88L161.49 92.857Z"/><path fill="#222" d="M166.94 4.857v88l15.321 12.856v-88L166.94 4.857ZM126.164 92.857h12.572l15.321 12.856h-12.572l-15.321-12.856ZM224.846 4.857h-32.434l15.321 12.856h32.434L224.846 4.857ZM187.054 92.857v-88l15.321 12.856v88l-15.321-12.856ZM143.01 92.857h18.48l15.321 12.856h-18.48L143.01 92.857Z"/><path fill="#222" d="M192.412 4.857v88l15.321 12.856v-88L192.412 4.857ZM224.846 22.331V4.857l15.321 12.856v17.474l-15.321-12.856ZM135.03 123.726c-14.331 0-22.754 7.668-22.754 23.005l15.321 12.856c0-15.337 8.423-23.005 22.754-23.005l-15.321-12.856ZM212.526 22.332h12.32l15.321 12.855h-12.32l-15.321-12.855Z"/><path fill="#222" d="M212.526 40.183V22.332l15.321 12.855V53.04l-15.321-12.856ZM248.533 4.857h-20.115l15.321 12.856h20.114l-15.32-12.856ZM151.229 128.798c-3.986-3.344-9.498-5.072-16.199-5.072l15.321 12.856c6.7 0 12.213 1.728 16.199 5.071l-15.321-12.855Z"/><path fill="#222" d="M224.092 40.183h-11.566l15.321 12.856h11.566l-15.321-12.856ZM112.276 146.731v44.252l15.321 12.856v-44.252l-15.321-12.856ZM132.39 145.349c0-3.143 1.383-4.275 3.017-4.275l15.321 12.856c-1.634 0-3.017 1.132-3.017 4.274l-15.321-12.855Z"/><path fill="#222" d="M135.407 141.074c.591 0 1.163.174 1.64.574l15.321 12.856c-.477-.4-1.049-.574-1.64-.574l-15.321-12.856ZM166.94 92.857h20.114l15.321 12.856h-20.114L166.94 92.857Z"/><path fill="#222" d="M137.047 141.648c.74.622 1.252 1.789 1.252 3.701l15.321 12.855c0-1.911-.512-3.079-1.252-3.7l-15.321-12.856ZM224.092 57.657V40.183l15.321 12.856v17.474l-15.321-12.856Z"/><path fill="#222" d="m228.418 4.857 12.697 63.863 15.321 12.856-12.697-63.863-15.321-12.856ZM212.526 57.657h11.566l15.321 12.856h-11.566l-15.321-12.856ZM274.178 4.857h-20.114l15.321 12.856h20.114L274.178 4.857ZM250.67 40.937l-2.137-36.08 15.32 12.856 2.138 36.08-15.321-12.856ZM138.299 145.349v21.246l15.321 12.855v-21.246l-15.321-12.855ZM158.413 146.732c0-8.024-2.568-14.059-7.18-17.93l15.317 12.851c4.614 3.871 7.184 9.908 7.184 17.934l-15.321-12.855Z"/><path fill="#222" d="m254.064 4.857-2.011 36.08 15.32 12.856 2.012-36.08-15.321-12.856ZM132.39 192.492v-47.143l15.321 12.855v47.143l-15.321-12.855ZM212.526 92.857v-35.2l15.321 12.856v35.2l-15.321-12.856ZM186.28 124.732h-22.502l15.32 12.855h22.503l-15.321-12.855Z"/><path fill="#222" d="M192.412 92.857h20.114l15.321 12.856h-20.114l-15.321-12.856ZM112.276 190.983c0 8.339 2.49 14.449 7.067 18.288l15.316 12.852c-4.573-3.839-7.062-9.947-7.062-18.284l-15.321-12.856ZM252.053 40.937h-1.383l15.321 12.856h1.382l-15.32-12.856ZM138.299 166.595l20.114-.001 15.321 12.856H153.62l-15.321-12.855Z"/><path fill="#222" d="M158.413 166.594v-19.862l15.321 12.855v19.863l-15.321-12.856ZM138.299 171.246v21.246l15.321 12.855v-21.245l-15.321-12.856Z"/><path fill="#222" d="M158.413 171.246h-20.114l15.321 12.856h20.114l-15.321-12.856ZM298.827 4.857h-20.114l15.321 12.856h20.114L298.827 4.857ZM133.616 196.03c-.738-.62-1.226-1.747-1.226-3.538l15.321 12.855c0 1.792.488 2.919 1.226 3.538l-15.321-12.855ZM261.23 68.72l12.948-63.863 15.321 12.856-12.948 63.863L261.23 68.72Z"/><path fill="#222" d="M135.407 196.64c-.663 0-1.286-.187-1.791-.61l15.321 12.855c.505.424 1.127.611 1.791.611l-15.321-12.856Z"/><path fill="#222" d="M138.299 192.492c0 3.017-1.383 4.148-2.892 4.148l15.321 12.856c1.509 0 2.892-1.132 2.892-4.149l-15.321-12.855ZM202.243 129.631c-3.903-3.274-9.304-4.899-15.963-4.899l15.321 12.855c6.659 0 12.06 1.625 15.963 4.899l-15.321-12.855ZM183.892 142.206h2.137l15.321 12.856h-2.137l-15.321-12.856ZM119.343 209.271c3.84 3.221 9.149 4.843 15.687 4.843l15.321 12.856c-6.539 0-11.847-1.622-15.687-4.843l-15.321-12.856ZM163.778 124.732v88.125l15.32 12.856v-88.126l-15.32-12.855Z"/><path fill="#222" d="M186.029 142.206c1.019 0 1.77.206 2.303.653l15.32 12.856c-.532-.447-1.283-.653-2.302-.653l-15.321-12.856ZM241.115 68.72v24.137l15.321 12.856V81.576L241.115 68.72Z"/><path fill="#222" d="M188.332 142.859c.78.655 1.091 1.827 1.091 3.621l15.321 12.856c0-1.794-.311-2.966-1.092-3.621l-15.32-12.856ZM158.413 190.983v-19.737l15.321 12.856v19.737l-15.321-12.856ZM183.892 162.823v-20.617l15.321 12.856v20.617l-15.321-12.856Z"/><path fill="#222" d="M135.03 214.114c14.457 0 23.383-8.045 23.383-23.131l15.321 12.856c0 15.085-8.926 23.131-23.383 23.131l-15.321-12.856ZM189.423 146.48v11.943l15.321 12.856v-11.943l-15.321-12.856ZM325.933 4.857h-21.874l15.321 12.856h21.874L325.933 4.857ZM278.713 4.857v88l15.321 12.856v-88L278.713 4.857ZM186.029 162.823h-2.137l15.321 12.856h2.137l-15.321-12.856ZM209.412 148.366c0-8.605-2.523-14.835-7.165-18.732l15.317 12.852c4.645 3.897 7.169 10.128 7.169 18.736l-15.321-12.856Z"/><path fill="#222" d="M189.423 158.423c0 3.143-.88 4.4-3.394 4.4l15.321 12.856c2.514 0 3.394-1.257 3.394-4.4l-15.321-12.856ZM261.23 92.857V68.72l15.321 12.856v24.137L261.23 92.857Z"/><path fill="#222" d="M241.115 92.857h20.115l15.321 12.856h-20.115l-15.321-12.856ZM209.412 148.869v-.503l15.321 12.856v.502l-15.321-12.855ZM247.465 124.857h-32.434l15.321 12.856h32.434l-15.321-12.856ZM183.892 180.297h2.137l15.321 12.856h-2.137l-15.321-12.856Z"/><path fill="#222" d="M196.589 170.869c5.783-.377 12.823-7.543 12.823-22l15.321 12.855c0 14.458-7.04 21.623-12.823 22l-15.321-12.855ZM186.029 180.297c1.039 0 1.799.193 2.333.642l15.32 12.855c-.534-.448-1.293-.641-2.332-.641l-15.321-12.856ZM298.827 92.857v-88l15.321 12.856v88l-15.321-12.856Z"/><path fill="#222" d="M196.589 172.251v-1.382l15.321 12.855v1.383l-15.321-12.856ZM188.362 180.939c.758.636 1.061 1.788 1.061 3.632l15.321 12.856c0-1.844-.303-2.996-1.062-3.633l-15.32-12.855Z"/><path fill="#222" d="M201.961 174.683c-1.766-1.482-3.64-2.316-5.372-2.432l15.321 12.856c1.732.116 3.606.95 5.372 2.432l-15.321-12.856ZM304.059 4.857v88l15.321 12.856v-88L304.059 4.857ZM351.705 4.857H331.59l15.321 12.856h20.115L351.705 4.857ZM189.423 184.571v10.183l15.321 12.856v-10.183l-15.321-12.856Z"/><path fill="#222" d="M183.892 212.857v-32.56l15.321 12.856v32.56l-15.321-12.856Z"/><path fill="#222" d="M163.778 212.857h20.114l15.321 12.856h-20.115l-15.32-12.856ZM319.773 40.183h1.132l15.321 12.856h-1.132l-15.321-12.856ZM215.031 124.857v88l15.321 12.856v-88l-15.321-12.856Z"/><path fill="#222" d="m335.362 57.908-9.429-53.05 15.321 12.855 9.429 53.051-15.321-12.855ZM247.465 142.331v-17.474l15.321 12.856v17.474l-15.321-12.856ZM209.412 193.874c0-9.155-3.447-15.83-7.447-19.188l15.317 12.853c4.001 3.356 7.451 10.033 7.451 19.191l-15.321-12.856Z"/><path fill="#222" d="m331.59 4.857 4.903 53.051 15.321 12.856-4.903-53.051L331.59 4.857ZM235.145 142.332l12.32-.001 15.321 12.856h-12.32l-15.321-12.855ZM189.423 194.754c0 6.789.126 12.698 1.257 18.103l15.321 12.856c-1.131-5.406-1.257-11.314-1.257-18.103l-15.321-12.856Z"/><path fill="#222" d="M235.145 157.92v-15.588l15.321 12.855v15.589l-15.321-12.856ZM278.713 92.857h20.114l15.321 12.856h-20.114l-15.321-12.856ZM209.412 194.88v-1.006l15.321 12.856v1.006l-15.321-12.856Z"/><path fill="#222" d="M247.214 157.92h-12.069l15.321 12.856h12.068l-15.32-12.856ZM324.173 92.857l-4.4-52.674 15.321 12.856 4.4 52.674-15.321-12.856ZM190.68 212.857h19.989l15.321 12.856h-19.989l-15.321-12.856ZM290.874 124.732h-31.303l15.321 12.855h31.303l-15.321-12.855ZM379.785 3.6c-14.331 0-22.754 7.669-22.754 23.006l15.321 12.856c0-15.338 8.423-23.006 22.754-23.006L379.785 3.6Z"/><path fill="#222" d="M210.669 212.857c-1.131-5.28-1.257-10.811-1.257-17.977l15.321 12.856c0 7.166.125 12.697 1.257 17.977l-15.321-12.856ZM320.905 40.183l8.925 52.674 15.321 12.856-8.925-52.674-15.321-12.856Z"/><path fill="#222" d="M336.493 57.908h-1.131l15.321 12.856h1.131L336.493 57.91ZM247.214 175.394V157.92l15.32 12.856v17.474l-15.32-12.856ZM235.145 175.395l12.069-.001 15.32 12.856h-12.068l-15.321-12.855Z"/><path fill="#222" d="M235.145 195.383v-19.988l15.321 12.855v19.989l-15.321-12.856ZM304.059 92.857h20.114l15.321 12.856H319.38l-15.321-12.856ZM351.705 92.857v-88l15.321 12.856v88l-15.321-12.856ZM395.984 8.672c-3.986-3.344-9.499-5.072-16.199-5.072l15.321 12.856c6.7 0 12.213 1.728 16.199 5.072L395.984 8.672ZM259.571 124.732l-7.92 88.125 15.321 12.856 7.92-88.126-15.321-12.855Z"/><path fill="#222" d="M357.031 26.606v44.251l15.321 12.856V39.462l-15.321-12.856ZM377.145 25.223c0-3.143 1.383-4.274 3.017-4.274l15.321 12.855c-1.634 0-3.017 1.132-3.017 4.275l-15.321-12.856Z"/><path fill="#222" d="M380.162 20.949c.591 0 1.163.173 1.64.574l15.321 12.855c-.477-.4-1.049-.574-1.64-.574L380.162 20.95Z"/><path fill="#222" d="M381.802 21.523c.74.621 1.252 1.788 1.252 3.7l15.321 12.856c0-1.912-.512-3.08-1.252-3.7l-15.321-12.856ZM247.591 195.383h-12.446l15.321 12.856h12.446l-15.321-12.856ZM274.405 159.554h1.257l15.321 12.856h-1.257l-15.321-12.856ZM297.26 124.857v17.474l15.321 12.856v-17.474l-15.321-12.856ZM215.031 212.857h32.56l15.321 12.856h-32.56l-15.321-12.856ZM383.054 25.223v15.589l15.321 12.855V38.08l-15.321-12.856ZM403.168 26.606c0-8.024-2.568-14.06-7.18-17.93l15.317 12.852c4.614 3.87 7.184 9.907 7.184 17.934l-15.321-12.856Z"/><path fill="#222" d="m273.525 175.394.88-15.84 15.321 12.856-.88 15.84-15.321-12.856Z"/><path fill="#222" d="m275.662 159.554.755 15.84 15.32 12.856-.754-15.84-15.321-12.856ZM377.145 72.366V25.223l15.321 12.856v47.143l-15.321-12.856ZM329.83 92.857h21.875l15.321 12.856h-21.875L329.83 92.857ZM247.591 212.857v-17.474l15.321 12.856v17.474l-15.321-12.856Z"/><path fill="#222" d="M379.408 44.206V57.28l15.321 12.856V57.062l-15.321-12.856ZM276.417 175.394h-2.892l15.321 12.856h2.891l-15.32-12.856ZM297.26 142.331l12.194.001 15.321 12.855h-12.194l-15.321-12.856ZM341.637 124.857H297.26l15.321 12.856h44.377l-15.321-12.856ZM383.054 40.812h20.114l15.321 12.855h-20.114l-15.321-12.855ZM357.031 70.857c0 9.578 3.146 15.882 7.436 19.48l15.316 12.852c-4.287-3.6-7.431-9.902-7.431-19.476l-15.321-12.856Z"/><path fill="#222" d="M403.168 44.206h-23.76l15.321 12.856h23.76l-15.321-12.856ZM379.408 57.28h3.646l15.321 12.856h-3.646L379.408 57.28ZM403.168 40.812V26.606l15.321 12.856v14.205l-15.321-12.855ZM298.417 212.857l-7.543-88.125 15.321 12.855 7.542 88.126-15.32-12.856ZM272.771 192.869h4.526l15.32 12.855h-4.525l-15.321-12.855Z"/><path fill="#222" d="M383.054 57.28v14.206l15.321 12.856V70.136L383.054 57.28ZM378.433 76.102c-.77-.646-1.288-1.88-1.288-3.736l15.321 12.856c0 1.855.518 3.09 1.288 3.736l-15.321-12.856ZM251.651 212.857h20.114l15.321 12.856h-20.114l-15.321-12.856Z"/><path fill="#222" d="m271.765 212.857 1.006-19.988 15.321 12.855-1.006 19.989-15.321-12.856ZM379.911 76.64a2.26 2.26 0 0 1-1.478-.538l15.321 12.856c.429.36.937.538 1.478.538L379.911 76.64Z"/><path fill="#222" d="M383.054 71.486c0 3.52-1.509 5.154-3.143 5.154l15.321 12.856c1.634 0 3.143-1.634 3.143-5.154l-15.321-12.856ZM451.783 4.857h-20.114l15.321 12.856h20.114L451.783 4.857ZM364.467 90.337c3.087 2.589 6.765 3.778 10.29 3.778l15.321 12.855c-3.525 0-7.203-1.188-10.29-3.777l-15.321-12.856ZM277.297 192.869l1.005 19.988 15.321 12.856-1.006-19.989-15.32-12.855ZM341.637 142.331v-17.474l15.321 12.856v17.474l-15.321-12.856Z"/><path fill="#222" d="m329.568 142.332 12.069-.001 15.321 12.856h-12.069l-15.321-12.855ZM374.757 94.115c5.908 0 11.691-3.27 13.325-9.178l15.321 12.856c-1.634 5.909-7.417 9.177-13.325 9.177l-15.321-12.855ZM309.454 142.332v70.525l15.321 12.856v-70.526l-15.321-12.855Z"/><path fill="#222" d="M388.082 84.937h1.383l15.321 12.856h-1.383l-15.321-12.856ZM403.168 92.857V44.206l15.321 12.856v48.651l-15.321-12.856ZM366.438 124.857h-20.114l15.32 12.856h20.115l-15.321-12.856ZM431.669 4.857v66l15.321 12.856v-66L431.669 4.857Z"/><path fill="#222" d="M389.465 84.937v7.92l15.321 12.856v-7.92l-15.321-12.856ZM278.302 212.857h20.115l15.32 12.856h-20.114l-15.321-12.856ZM477.429 4.857h-20.114l15.32 12.856h20.115L477.429 4.857Z"/><path fill="#222" d="M389.465 92.857h13.703l15.321 12.856h-13.703l-15.321-12.856ZM329.568 212.857v-70.525l15.321 12.855v70.526l-15.321-12.856ZM451.783 72.491V4.857l15.321 12.856v67.634l-15.321-12.856ZM346.324 124.857v88l15.32 12.856v-88l-15.32-12.856Z"/><path fill="#222" d="M457.315 4.857v67.634l15.32 12.856V17.713l-15.32-12.856ZM394.424 123.6c-14.331 0-22.754 7.794-22.754 23.132l15.321 12.855c0-15.337 8.422-23.131 22.754-23.131L394.424 123.6ZM309.454 212.857h20.114l15.321 12.856h-20.114l-15.321-12.856ZM431.669 70.857c0 8.434 2.471 14.625 7.078 18.49l15.316 12.852c-4.604-3.865-7.073-10.055-7.073-18.486l-15.321-12.856ZM505.431 3.6c-14.332 0-22.755 7.669-22.755 23.006l15.321 12.856c0-15.338 8.423-23.006 22.755-23.006L505.431 3.6Z"/><path fill="#222" d="M366.438 212.857v-88l15.321 12.856v88l-15.321-12.856ZM410.596 128.662c-3.984-3.341-9.487-5.062-16.172-5.062l15.321 12.856c6.685 0 12.188 1.72 16.172 5.062l-15.321-12.856ZM477.429 70.857v-66l15.321 12.856v66l-15.321-12.856Z"/><path fill="#222" d="M371.67 146.732v44.125l15.321 12.856v-44.126l-15.321-12.855ZM391.784 145.223c0-3.143 1.383-4.149 2.891-4.149l15.321 12.856c-1.508 0-2.891 1.006-2.891 4.149l-15.321-12.856Z"/><path fill="#222" d="M394.675 141.074c.68 0 1.316.174 1.827.603l15.321 12.856c-.511-.429-1.147-.603-1.827-.603l-15.321-12.856ZM452.98 76.097c-.72-.603-1.197-1.747-1.197-3.606l15.321 12.856c0 1.86.477 3.002 1.196 3.606l-15.32-12.856Z"/><path fill="#222" d="M396.502 141.677c.719.603 1.191 1.71 1.191 3.546l15.32 12.856c0-1.836-.471-2.943-1.19-3.546l-15.321-12.856ZM454.549 76.64c-.579 0-1.121-.167-1.569-.543l15.32 12.856c.449.376.991.543 1.57.543L454.549 76.64Z"/><path fill="#222" d="M457.315 72.491c0 3.017-1.258 4.15-2.766 4.15l15.321 12.855c1.508 0 2.765-1.132 2.765-4.149l-15.32-12.856ZM521.629 8.672c-3.986-3.344-9.498-5.072-16.198-5.072l15.321 12.856c6.7 0 12.212 1.728 16.198 5.072L521.629 8.672ZM438.747 89.346c3.771 3.164 8.974 4.768 15.425 4.768l15.321 12.856c-6.451 0-11.654-1.605-15.425-4.768l-15.321-12.856ZM482.676 26.606v44.251l15.321 12.856V39.462l-15.321-12.856ZM502.791 25.223c0-3.143 1.382-4.274 3.017-4.274l15.321 12.855c-1.635 0-3.017 1.132-3.017 4.275l-15.321-12.856Z"/><path fill="#222" d="M505.808 20.949c.591 0 1.163.173 1.639.574l15.321 12.855c-.477-.4-1.048-.574-1.639-.574L505.808 20.95Z"/><path fill="#222" d="M507.447 21.523c.741.621 1.252 1.788 1.252 3.7l15.321 12.856c0-1.912-.511-3.08-1.252-3.7l-15.321-12.856ZM417.807 146.732c0-8.107-2.577-14.18-7.205-18.065l15.315 12.851c4.631 3.884 7.211 9.96 7.211 18.069l-15.321-12.855ZM391.784 192.491v-47.268l15.321 12.856v47.268l-15.321-12.856ZM346.324 212.857h20.114l15.321 12.856h-20.115l-15.32-12.856ZM454.172 94.114c14.457 0 23.257-8.046 23.257-23.257l15.321 12.856c0 15.211-8.8 23.257-23.257 23.257l-15.321-12.856ZM508.699 25.223v15.589l15.321 12.855V38.08l-15.321-12.856ZM444.92 124.857h-21.874l15.321 12.856h21.874l-15.321-12.856Z"/><path fill="#222" d="M397.693 145.223v47.268l15.32 12.856v-47.268l-15.32-12.856ZM528.814 26.606c0-8.024-2.568-14.06-7.18-17.93l15.316 12.852c4.615 3.87 7.184 9.907 7.184 17.934l-15.32-12.856ZM371.67 190.857c0 8.375 2.511 14.538 7.125 18.408l15.316 12.852c-4.611-3.87-7.12-10.032-7.12-18.404l-15.321-12.856ZM502.791 72.366V25.223l15.321 12.856v47.143l-15.321-12.856Z"/><path fill="#222" d="M505.054 44.206V57.28l15.32 12.856V57.062l-15.32-12.856ZM508.699 40.812h20.115l15.32 12.855H524.02l-15.321-12.855ZM482.676 70.857c0 9.578 3.147 15.882 7.437 19.48l15.316 12.852c-4.288-3.6-7.432-9.902-7.432-19.476l-15.321-12.856Z"/><path fill="#222" d="M528.814 44.206h-23.76l15.32 12.856h23.76l-15.32-12.856ZM505.054 57.28h3.645l15.321 12.856h-3.646l-15.32-12.856ZM393.018 196.059c-.731-.613-1.234-1.747-1.234-3.568l15.321 12.856c0 1.82.503 2.954 1.234 3.568l-15.321-12.856ZM528.814 40.812V26.606l15.32 12.856v14.205l-15.32-12.855ZM556.807 3.726c-14.332 0-22.755 7.668-22.755 23.005l15.321 12.856c0-15.337 8.423-23.005 22.755-23.005L556.807 3.726Z"/><path fill="#222" d="M394.675 196.64c-.598 0-1.177-.178-1.657-.581l15.321 12.856c.48.403 1.059.581 1.657.581l-15.321-12.856ZM417.807 190.857v-44.125l15.321 12.855v44.126l-15.321-12.856Z"/><path fill="#222" d="M397.693 192.491c0 3.018-1.383 4.149-3.018 4.149l15.321 12.856c1.635 0 3.017-1.132 3.017-4.149l-15.32-12.856ZM508.699 57.28v14.206l15.321 12.856V70.136L508.699 57.28ZM378.795 209.265c3.835 3.217 9.123 4.849 15.629 4.849l15.321 12.856c-6.506 0-11.794-1.632-15.629-4.849l-15.321-12.856ZM423.046 124.857v88l15.321 12.856v-88l-15.321-12.856ZM470.691 124.857h-20.114l15.321 12.856h20.114l-15.321-12.856ZM504.078 76.102c-.77-.646-1.287-1.88-1.287-3.736l15.321 12.856c0 1.855.517 3.09 1.287 3.736l-15.321-12.856Z"/><path fill="#222" d="M505.556 76.64c-.54 0-1.048-.178-1.478-.538l15.321 12.856c.43.36.938.538 1.478.538L505.556 76.64ZM508.699 71.486c0 3.52-1.508 5.154-3.143 5.154l15.321 12.856c1.635 0 3.143-1.634 3.143-5.154l-15.321-12.856ZM573.005 8.798c-3.986-3.344-9.498-5.072-16.198-5.072l15.321 12.856c6.7 0 12.212 1.728 16.198 5.071L573.005 8.798ZM490.113 90.337c3.086 2.589 6.765 3.778 10.289 3.778l15.321 12.855c-3.524 0-7.203-1.188-10.289-3.777l-15.321-12.856ZM438.76 160.183h1.131l15.321 12.856h-1.131l-15.321-12.856ZM534.052 26.731v44.252l15.321 12.856V39.587l-15.321-12.856ZM554.167 25.349c0-3.143 1.382-4.275 3.017-4.275l15.321 12.856c-1.635 0-3.018 1.132-3.018 4.274l-15.32-12.855Z"/><path fill="#222" d="M557.184 21.074c.591 0 1.162.174 1.639.574l15.321 12.856c-.477-.4-1.048-.574-1.639-.574l-15.321-12.856ZM394.424 214.114c14.457 0 23.383-8.045 23.383-23.257l15.321 12.856c0 15.211-8.926 23.257-23.383 23.257l-15.321-12.856ZM454.348 177.908l-9.428-53.051 15.321 12.856 9.428 53.051-15.321-12.856Z"/><path fill="#222" d="M558.823 21.648c.741.622 1.252 1.79 1.252 3.7l15.321 12.856c0-1.911-.512-3.079-1.252-3.7l-15.321-12.856ZM450.577 124.857l4.903 53.051 15.321 12.856-4.903-53.051-15.321-12.856ZM500.402 94.115c5.909 0 11.691-3.27 13.326-9.178l15.321 12.856c-1.635 5.909-7.417 9.177-13.326 9.177l-15.321-12.855Z"/><path fill="#222" d="M513.728 84.937h1.383l15.321 12.856h-1.383l-15.321-12.856ZM528.813 92.857l.001-48.651 15.32 12.856v48.651l-15.321-12.856Z"/><path fill="#222" d="M515.111 84.937v7.92l15.321 12.856v-7.92l-15.321-12.856ZM560.075 25.349v21.246l15.321 12.855V38.204L560.075 25.35ZM580.189 26.732c0-8.024-2.567-14.06-7.179-17.93l15.316 12.851c4.615 3.871 7.184 9.908 7.184 17.934l-15.321-12.855Z"/><path fill="#222" d="M554.167 72.492V25.349l15.32 12.855v47.143l-15.32-12.855ZM443.16 212.857l-4.4-52.674 15.321 12.856 4.4 52.674-15.321-12.856ZM515.111 92.857h13.702l15.321 12.856h-13.702l-15.321-12.856Z"/><path fill="#222" d="m439.891 160.183 8.926 52.674 15.321 12.856-8.926-52.674-15.321-12.856Z"/><path fill="#222" d="M455.48 177.908h-1.132l15.321 12.856h1.132l-15.321-12.856ZM534.052 70.983c0 8.34 2.491 14.449 7.067 18.288l15.317 12.852c-4.574-3.84-7.063-9.947-7.063-18.284l-15.321-12.856ZM560.075 46.595h20.114L595.51 59.45h-20.114l-15.321-12.855ZM580.189 46.594V26.732l15.321 12.855V59.45l-15.321-12.856ZM423.046 212.857h20.114l15.321 12.856h-20.114l-15.321-12.856ZM560.075 51.246v21.246l15.321 12.855V64.102l-15.321-12.856Z"/><path fill="#222" d="M470.691 212.857v-88l15.321 12.856v88l-15.321-12.856ZM580.189 51.246h-20.114l15.321 12.856h20.114l-15.321-12.856ZM555.392 76.03c-.738-.62-1.225-1.747-1.225-3.538l15.32 12.855c0 1.792.488 2.919 1.226 3.538L555.392 76.03Z"/><path fill="#222" d="M557.184 76.64c-.664 0-1.287-.187-1.792-.61l15.321 12.855c.505.424 1.128.61 1.792.61L557.184 76.64Z"/><path fill="#222" d="M560.075 72.492c0 3.017-1.383 4.148-2.891 4.148l15.321 12.856c1.508 0 2.891-1.132 2.891-4.149l-15.321-12.855ZM541.119 89.27c3.84 3.222 9.149 4.844 15.688 4.844l15.321 12.856c-6.539 0-11.848-1.622-15.688-4.843l-15.321-12.856ZM580.189 70.983V51.246l15.321 12.856v19.737l-15.321-12.856Z"/><path fill="#222" d="M556.807 94.114c14.457 0 23.382-8.045 23.382-23.131l15.321 12.856c0 15.085-8.925 23.131-23.382 23.131l-15.321-12.856ZM448.817 212.857h21.874l15.321 12.856h-21.874l-15.321-12.856Z"/><path stroke="#222" stroke-linejoin="round" stroke-width="5.714" d="M38.3 38.079v47.143m0-47.143c0-3.143 1.383-4.275 3.018-4.275M38.3 38.08 22.98 25.223M38.3 85.222c0 1.855.518 3.09 1.288 3.736M38.3 85.222 22.98 72.366m18.086 17.13c1.634 0 3.143-1.634 3.143-5.154m-3.143 5.154a2.26 2.26 0 0 1-1.478-.538m1.478.538L25.746 76.64m18.463 7.702V70.136m0 14.206-15.32-12.856m15.32-1.35h-3.646m3.646 0L28.889 57.28m11.674 12.856V57.062m0 13.074L25.243 57.28m15.32-.218h23.76m-23.76 0-15.32-12.856m39.08 12.856v48.651m0-48.651-15.32-12.856m15.32 61.507H50.62m13.703 0-15.32-12.856m1.617 12.856v-7.92m0 7.92L35.3 92.857m15.32 4.936h-1.382m1.382 0L35.3 84.937m13.938 12.856c-1.635 5.909-7.418 9.177-13.326 9.177m13.326-9.177L33.917 84.937m1.995 22.033c-3.524 0-7.203-1.188-10.29-3.777m10.29 3.777L20.59 94.115m-2.405-10.402V39.462m0 44.251c0 9.578 3.147 15.881 7.436 19.48m-7.436-19.48L2.866 70.857m15.32 12.856c0 9.574 3.144 15.877 7.432 19.476m-7.432-63.727c0-15.338 8.423-23.006 22.754-23.006M18.186 39.462 2.866 26.606m38.074-10.15c6.7 0 12.213 1.728 16.199 5.072M40.94 16.456 25.62 3.6m38.703 35.862v14.205m0-14.205c0-8.027-2.57-14.063-7.184-17.934m7.184 17.934-15.32-12.856m15.32 27.061H44.21m20.114 0-15.32-12.855m-4.794 12.855V38.08m0 15.588-15.32-12.855m15.32-2.733c0-1.912-.512-3.08-1.252-3.7m1.252 3.7-15.32-12.856m12.429 8.581c.59 0 1.162.174 1.64.574m-1.64-.574L25.997 20.95m49.377-3.362h31.303m-31.303 0-7.92 88.126m7.92-88.126L60.054 4.732m46.623 12.855 7.543 88.126m-7.543-88.126L91.357 4.732m22.863 100.981H94.106m20.114 0L98.9 92.857m-4.794 12.856L93.1 85.724m1.006 19.989L78.785 92.857M93.1 85.724h-4.526m4.526 0L77.78 72.87m10.794 12.855-1.005 19.989m1.005-19.989L73.254 72.87m14.315 32.844H67.454m20.115 0L72.248 92.857m-4.794 12.856-15.32-12.856M89.328 68.25h2.891m-2.891 0 .88-15.84m-.88 15.84L74.008 55.394M92.22 68.25l-.754-15.84m.754 15.84L76.9 55.394m14.566-2.984h-1.257m1.257 0L76.145 39.554M90.209 52.41 74.888 39.554m43.843-21.841h25.897m-25.897 0v88m0-88L103.41 4.857m41.218 12.856 2.514 53.051m-2.514-53.051L129.307 4.857m17.835 65.907h1.383m-1.383 0-15.32-12.855m16.703 12.855 2.515-53.051m-2.515 53.051L133.204 57.91m17.836-40.196h25.771m-25.771 0L135.719 4.857m41.092 12.856v88m0-88L161.49 4.857m15.321 100.856h-18.48m18.48 0L161.49 92.857m-3.159 12.856 2.263-52.674m-2.263 52.674L143.01 92.857m17.584-39.818h-1.383m1.383 0-15.321-12.856m13.938 12.856-5.154 52.674m5.154-52.674L143.89 40.183m10.167 65.53h-12.572m12.572 0-15.321-12.856m2.749 12.856-5.28-52.674m5.28 52.674-15.321-12.856m10.041-39.818h-1.383m1.383 0-15.321-12.856m13.938 12.856 2.389 52.674m-2.389-52.674-15.32-12.856m17.709 65.53h-18.48m18.48 0L121.89 92.857m-3.159 12.856L103.41 92.857m78.851-75.144h20.114m-20.114 0v88m0-88L166.94 4.857m35.435 12.856v88m0-88L187.054 4.857m15.321 100.856h-20.114m20.114 0-15.321-12.856m-4.793 12.856L166.94 92.857m73.227-57.67h-12.32m12.32 0V17.713m0 17.474-15.321-12.856m3.001 12.856V53.04m0-17.852-15.321-12.855m15.321 30.707h11.566m-11.566 0-15.321-12.856m26.887 12.856v17.474m0-17.474-15.321-12.856m15.321 30.33h-11.566m11.566 0-15.321-12.856m3.755 12.856v35.2m0-35.2-15.321-12.856m15.321 48.056h-20.114m20.114 0-15.321-12.856m-4.793 12.856v-88m0 88-15.321-12.856m15.321-75.144h32.434m-32.434 0L192.412 4.857m47.755 12.856L224.846 4.857m18.893 12.856h20.114m-20.114 0 12.697 63.863m-12.697-63.863L228.418 4.857m35.435 12.856 2.138 36.08m-2.138-36.08-15.32-12.856m17.458 48.936h1.382m-1.382 0L250.67 40.937m16.703 12.856 2.012-36.08m-2.012 36.08-15.32-12.856m17.332-23.224h20.114m-20.114 0L254.064 4.857m35.435 12.856-12.948 63.863m12.948-63.863L274.178 4.857m2.373 76.719v24.137m0-24.137L261.23 68.72m15.321 36.993h-20.115m20.115 0L261.23 92.857m-4.794 12.856V81.576m0 24.137-15.321-12.856m15.321-11.281L241.115 68.72m52.919-51.007h20.114m-20.114 0v88m0-88L278.713 4.857m35.435 12.856v88m0-88L298.827 4.857m15.321 100.856h-20.114m20.114 0-15.321-12.856m-4.793 12.856-15.321-12.856m68.198-75.144h20.115m-20.115 0 4.903 53.051m-4.903-53.051L331.59 4.857m35.436 12.856v88m0-88L351.705 4.857m15.321 100.856h-21.875m21.875 0-15.321-12.856m-6.554 12.856-8.925-52.674m8.925 52.674L329.83 92.857m6.396-39.818h-1.132m1.132 0-15.321-12.856m14.189 12.856 4.4 52.674m-4.4-52.674-15.321-12.856m19.721 65.53H319.38m20.114 0-15.321-12.856m-4.793 12.856v-88m0 88-15.321-12.856m15.321-75.144h21.874m-21.874 0L304.059 4.857m37.195 12.856 9.429 53.051m-9.429-53.051L325.933 4.857m24.75 65.907h1.131m-1.131 0L335.362 57.91m16.452 12.855L336.493 57.91m55.973-19.83v47.143m0-47.143c0-3.143 1.383-4.275 3.017-4.275m-3.017 4.275-15.321-12.856m15.321 59.999c0 1.855.518 3.09 1.288 3.736m-1.288-3.736-15.321-12.856m18.087 17.13c1.634 0 3.143-1.634 3.143-5.154m-3.143 5.154a2.257 2.257 0 0 1-1.478-.538m1.478.538L379.911 76.64m18.464 7.702V70.136m0 14.206-15.321-12.856m15.321-1.35h-3.646m3.646 0L383.054 57.28m11.675 12.856V57.062m0 13.074L379.408 57.28m15.321-.218h23.76m-23.76 0-15.321-12.856m39.081 12.856v48.651m0-48.651-15.321-12.856m15.321 61.507h-13.703m13.703 0-15.321-12.856m1.618 12.856v-7.92m0 7.92-15.321-12.856m15.321 4.936h-1.383m1.383 0-15.321-12.856m13.938 12.856c-1.634 5.909-7.417 9.177-13.325 9.177m13.325-9.177-15.321-12.856m1.996 22.033c-3.525 0-7.203-1.188-10.29-3.777m10.29 3.777-15.321-12.855m-2.405-10.402V39.462m0 44.251c0 9.578 3.146 15.881 7.436 19.48m-7.436-19.48-15.321-12.856m15.321 12.856c0 9.574 3.144 15.877 7.431 19.476m-7.431-63.727c0-15.338 8.423-23.006 22.754-23.006m-22.754 23.006-15.321-12.856m38.075-10.15c6.7 0 12.212 1.728 16.199 5.072m-16.199-5.072L379.785 3.6m38.704 35.862v14.205m0-14.205c0-8.027-2.57-14.063-7.184-17.934m7.184 17.934-15.321-12.856m15.321 27.061h-20.114m20.114 0-15.321-12.855m-4.793 12.855V38.08m0 15.588-15.321-12.855m15.321-2.733c0-1.912-.512-3.08-1.252-3.7m1.252 3.7-15.321-12.856m12.429 8.581c.591 0 1.163.174 1.64.574m-1.64-.574L380.162 20.95m66.828-3.236h20.114m-20.114 0v66m0-66L431.669 4.857m35.435 12.856v67.634m0-67.634L451.783 4.857m15.321 80.49c0 1.86.477 3.002 1.196 3.606m-1.196-3.606-15.321-12.856m18.087 17.005c1.508 0 2.765-1.132 2.765-4.149m-2.765 4.149c-.579 0-1.121-.167-1.57-.543m1.57.543L454.549 76.64m18.086 8.707V17.713m0 67.634-15.32-12.856m15.32-54.778h20.115m-20.115 0-15.32-12.856m35.435 12.856v66m0-66L477.429 4.857m15.321 78.856c0 15.211-8.8 23.257-23.257 23.257m23.257-23.257-15.321-12.856m-7.936 36.113c-6.451 0-11.654-1.605-15.425-4.768m15.425 4.768-15.321-12.856m-7.182-10.401c0 8.434 2.47 14.624 7.078 18.489m-7.078-18.489-15.321-12.856m15.321 12.856c0 8.431 2.469 14.62 7.073 18.486m64.049-64.12v47.143m0-47.143c0-3.143 1.382-4.275 3.017-4.275m-3.017 4.275-15.321-12.856m15.321 59.999c0 1.855.517 3.09 1.287 3.736m-1.287-3.736-15.321-12.856m18.086 17.13c1.635 0 3.143-1.634 3.143-5.154m-3.143 5.154a2.26 2.26 0 0 1-1.478-.538m1.478.538L505.556 76.64m18.464 7.702V70.136m0 14.206-15.321-12.856m15.321-1.35h-3.646m3.646 0L508.699 57.28m11.675 12.856V57.062m0 13.074-15.32-12.856m15.32-.218h23.76m-23.76 0-15.32-12.856m39.08 12.856v48.651m0-48.651-15.32-12.856m15.32 61.507h-13.702m13.702 0-15.321-12.856m1.619 12.856v-7.92m0 7.92-15.321-12.856m15.321 4.936h-1.383m1.383 0-15.321-12.856m13.938 12.856c-1.635 5.909-7.417 9.177-13.326 9.177m13.326-9.177-15.321-12.856m1.995 22.033c-3.524 0-7.203-1.188-10.289-3.777m10.289 3.777-15.321-12.855m-2.405-10.402V39.462m0 44.251c0 9.578 3.147 15.881 7.437 19.48m-7.437-19.48-15.321-12.856m15.321 12.856c0 9.574 3.144 15.877 7.432 19.476m-7.432-63.727c0-15.338 8.423-23.006 22.755-23.006m-22.755 23.006-15.321-12.856m38.076-10.15c6.7 0 12.212 1.728 16.198 5.072m-16.198-5.072L505.431 3.6m38.703 35.862v14.205m0-14.205c0-8.027-2.569-14.063-7.184-17.934m7.184 17.934-15.32-12.856m15.32 27.061H524.02m20.114 0-15.32-12.855m-4.794 12.855V38.08m0 15.588-15.321-12.855m15.321-2.733c0-1.912-.511-3.08-1.252-3.7m1.252 3.7-15.321-12.856m12.43 8.581c.591 0 1.162.174 1.639.574m-1.639-.574L505.808 20.95m63.679 17.255v47.143m0-47.143c0-3.142 1.383-4.274 3.018-4.274m-3.018 4.274-15.32-12.855m15.32 59.998c0 1.792.488 2.919 1.226 3.538m-1.226-3.538-15.32-12.855m18.338 17.004c1.508 0 2.891-1.132 2.891-4.149m-2.891 4.149c-.664 0-1.287-.187-1.792-.61m1.792.61L557.184 76.64m18.212 8.707V64.102m0 21.245-15.321-12.855m15.321-8.39h20.114m-20.114 0-15.321-12.856m35.435 12.856v19.737m0-19.737-15.321-12.856m15.321 32.593c0 15.085-8.925 23.131-23.382 23.131m23.382-23.131-15.321-12.856m-8.061 35.987c-6.539 0-11.848-1.622-15.688-4.843m15.688 4.843-15.321-12.856m-7.434-10.275V39.587m0 44.252c0 8.34 2.491 14.449 7.067 18.288m-7.067-18.288-15.321-12.856m15.321 12.856c0 8.337 2.489 14.445 7.063 18.284m-7.063-62.536c0-15.337 8.423-23.005 22.755-23.005m-22.755 23.005-15.321-12.856m38.076-10.15c6.7 0 12.212 1.729 16.198 5.072m-16.198-5.071L556.807 3.726m38.703 35.861V59.45m0-19.863c0-8.026-2.569-14.063-7.184-17.934m7.184 17.934-15.321-12.855M595.51 59.45h-20.114m20.114 0-15.321-12.856m-4.793 12.856V38.204m0 21.246-15.321-12.855m15.321-8.39c0-1.912-.512-3.08-1.252-3.7m1.252 3.7-15.321-12.856m12.43 8.581c.591 0 1.162.174 1.639.574m-1.639-.574-15.321-12.856m-409.473 137.13v47.143m0-47.143c0-3.142 1.383-4.274 3.017-4.274m-3.017 4.274-15.321-12.855m15.321 59.998c0 1.792.488 2.919 1.226 3.538m-1.226-3.538-15.321-12.855m18.338 17.004c1.509 0 2.892-1.132 2.892-4.149m-2.892 4.149c-.664 0-1.286-.187-1.791-.611m1.791.611-15.321-12.856m18.213 8.707v-21.245m0 21.245-15.321-12.855m15.321-8.39h20.114m-20.114 0-15.321-12.856m35.435 12.856v19.737m0-19.737-15.321-12.856m15.321 32.593c0 15.085-8.926 23.131-23.383 23.131m23.383-23.131-15.321-12.856m-8.062 35.987c-6.539 0-11.847-1.622-15.687-4.843m15.687 4.843-15.321-12.856m-7.433-10.275v-44.252m0 44.252c0 8.339 2.49 14.449 7.067 18.288m-7.067-18.288-15.321-12.856m15.321 12.856c0 8.337 2.489 14.445 7.062 18.284m-7.062-62.536c0-15.337 8.423-23.005 22.754-23.005m-22.754 23.005-15.321-12.856m38.075-10.149c6.7 0 12.213 1.728 16.199 5.071m-16.199-5.071-15.321-12.856m38.704 35.861v19.863m0-19.863c0-8.026-2.57-14.063-7.184-17.934m7.184 17.934-15.321-12.855m15.321 32.718H153.62m20.114 0-15.321-12.856m-4.793 12.856v-21.246m0 21.246-15.321-12.855m15.321-8.391c0-1.911-.512-3.079-1.252-3.7m1.252 3.7-15.321-12.855m12.429 8.581c.591 0 1.163.174 1.64.574m-1.64-.574-15.321-12.856m43.691-3.487h22.503m-22.503 0v88.126m0-88.126-15.32-12.855m37.823 12.855c6.659 0 12.06 1.625 15.963 4.899m-15.963-4.899-15.321-12.855m38.453 36.49v.502m0-.502c0-8.608-2.524-14.839-7.169-18.736m7.169 18.736-15.321-12.856m15.321 13.358c0 14.458-7.04 21.623-12.823 22m12.823-22-15.321-12.855m2.498 34.855v1.383m0-1.383-15.321-12.855m15.321 14.238c1.732.116 3.606.95 5.372 2.432m-5.372-2.432-15.321-12.856m28.144 34.479v1.006m0-1.006c0-9.158-3.45-15.835-7.451-19.191m7.451 19.191-15.321-12.856m15.321 13.862c0 7.166.125 12.697 1.257 17.977m-1.257-17.977-15.321-12.856m16.578 30.833h-19.989m19.989 0-15.321-12.856m-4.668 12.856c-1.131-5.406-1.257-11.314-1.257-18.103m1.257 18.103-15.321-12.856m14.064-5.247v-10.183m0 10.183-15.321-12.856m15.321 2.673c0-1.844-.303-2.996-1.062-3.633m1.062 3.633-15.321-12.856m11.927 8.582h-2.137m2.137 0c1.039 0 1.798.193 2.332.641m-2.332-.641-15.321-12.856m13.184 12.856v32.56m0-32.56-15.321-12.856m15.321 45.416h-20.115m20.115 0-15.321-12.856m-4.794 12.856-15.32-12.856m35.435-57.795v20.617m0-20.617h2.137m-2.137 0-15.321-12.856m15.321 33.473h2.137m-2.137 0-15.321-12.856m17.458 12.856c2.514 0 3.394-1.257 3.394-4.4m-3.394 4.4-15.321-12.856m18.715 8.456v-11.943m0 11.943-15.321-12.856m15.321.913c0-1.794-.311-2.966-1.092-3.621m1.092 3.621-15.321-12.856m11.927 8.582c1.019 0 1.77.206 2.302.653m-2.302-.653-15.321-12.856m76.757 12.981h-12.32m12.32 0v-17.474m0 17.474-15.321-12.856m3.001 12.856v15.589m0-15.589-15.321-12.855m15.321 28.444h12.068m-12.068 0-15.321-12.856m27.389 12.856v17.474m0-17.474-15.321-12.856m15.321 30.33h-12.068m12.068 0-15.321-12.856m3.253 12.856v19.989m0-19.989-15.321-12.855m15.321 32.844h12.446m-12.446 0-15.321-12.856m27.767 12.856v17.474m0-17.474-15.321-12.856m15.321 30.33h-32.56m32.56 0-15.321-12.856m-17.239 12.856v-88m0 88-15.321-12.856m15.321-75.144h32.434m-32.434 0-15.321-12.856m47.755 12.856-15.321-12.856m27.427 12.73h31.303m-31.303 0-7.92 88.126m7.92-88.126-15.321-12.855m46.624 12.855 7.542 88.126m-7.542-88.126-15.321-12.855m22.863 100.981h-20.114m20.114 0-15.32-12.856m-4.794 12.856-1.006-19.989m1.006 19.989-15.321-12.856m14.315-7.133h-4.525m4.525 0-15.32-12.855m10.795 12.855-1.006 19.989m1.006-19.989-15.321-12.855m14.315 32.844h-20.114m20.114 0-15.321-12.856m-4.793 12.856-15.321-12.856m37.195-24.607h2.891m-2.891 0 .88-15.84m-.88 15.84-15.321-12.856m18.212 12.856-.754-15.84m.754 15.84-15.32-12.856m14.566-2.984h-1.257m1.257 0-15.321-12.856m14.064 12.856-15.321-12.856m82.553-21.841v17.474m0-17.474H312.58m44.378 0-15.321-12.856m15.321 30.33h-12.069m12.069 0-15.321-12.856m3.252 12.856v70.526m0-70.526-15.321-12.855m15.321 83.381h-20.114m20.114 0-15.321-12.856m-4.793 12.856v-70.526m0 70.526-15.321-12.856m15.321-57.67H312.58m12.195 0-15.321-12.855m3.126 12.855v-17.474m0 17.474-15.32-12.856m15.32-4.618-15.32-12.856m64.384 12.856h20.115m-20.115 0v88m0-88-15.32-12.856m35.435 12.856v88m0-88-15.321-12.856m15.321 100.856h-20.115m20.115 0-15.321-12.856m-4.794 12.856-15.32-12.856m40.667-53.27c0-15.337 8.422-23.131 22.754-23.131m-22.754 23.131v44.126m0-44.126-15.321-12.855m38.075-10.276c6.685 0 12.188 1.72 16.172 5.062m-16.172-5.062L394.424 123.6m38.704 35.987v44.126m0-44.126c0-8.109-2.58-14.185-7.211-18.069m7.211 18.069-15.321-12.855m15.321 56.981c0 15.211-8.926 23.257-23.383 23.257m23.383-23.257-15.321-12.856m-8.062 36.113c-6.506 0-11.794-1.632-15.629-4.849m15.629 4.849-15.321-12.856m-7.433-10.401c0 8.375 2.511 14.538 7.125 18.408m-7.125-18.408-15.321-12.856m15.321 12.856c0 8.372 2.509 14.534 7.12 18.404m12.994-64.038v47.268m0-47.268c0-3.143 1.383-4.149 2.891-4.149m-2.891 4.149-15.321-12.856m15.321 60.124c0 1.82.503 2.954 1.234 3.568m-1.234-3.568-15.321-12.856m18.212 17.005c1.635 0 3.017-1.132 3.017-4.149m-3.017 4.149c-.598 0-1.177-.178-1.657-.581m1.657.581-15.321-12.856m18.338 8.707v-47.268m0 47.268-15.32-12.856m15.32-34.412c0-1.836-.471-2.943-1.19-3.546m1.19 3.546-15.32-12.856m12.303 8.707c.68 0 1.316.174 1.827.603m-1.827-.603-15.321-12.856m71.223-3.361h20.114m-20.114 0 4.903 53.051m-4.903-53.051-15.321-12.856m35.435 12.856v88m0-88-15.321-12.856m15.321 100.856h-21.874m21.874 0-15.321-12.856m-6.553 12.856-8.926-52.674m8.926 52.674-15.321-12.856m6.395-39.818h-1.131m1.131 0-15.321-12.856m14.19 12.856 4.4 52.674m-4.4-52.674-15.321-12.856m19.721 65.53h-20.114m20.114 0-15.321-12.856m-4.793 12.856v-88m0 88-15.321-12.856m15.321-75.144h21.874m-21.874 0-15.321-12.856m37.195 12.856 9.428 53.051m-9.428-53.051-15.321-12.856m24.749 65.907h1.132m-1.132 0-15.321-12.856m16.453 12.856-15.321-12.856M39.588 88.958l-15.32-12.856m1.354 27.091-.004-.004m.005.004L10.301 90.337m46.837-68.81L41.819 8.673m15.32 12.856L41.823 8.676m1.134 25.702Zm0 0-15.32-12.855m366.117 67.435-15.321-12.856m1.355 27.091-.005-.004m.005.004-15.321-12.856m46.838-68.81L395.984 8.673m15.321 12.856L395.988 8.676m1.135 25.702Zm0 0-15.321-12.855m86.498 67.43-15.32-12.856m1.088 26.105-.005-.003m.005.003-15.321-12.856m80.652-.388-15.321-12.856m1.356 27.091a.018.018 0 0 0-.005-.004m.005.004-15.321-12.856m46.837-68.81L521.629 8.673m15.321 12.856L521.634 8.676m1.134 25.702c.001 0 0 0 0 0Zm0 0-15.321-12.855m63.266 67.362L555.392 76.03m1.048 26.097-.004-.004m.004.004-15.321-12.856m47.207-67.618L573.005 8.798m15.321 12.855L573.01 8.802m1.134 25.702Zm0 0-15.321-12.856M148.937 208.885l-15.321-12.855m1.048 26.097a.018.018 0 0 0-.005-.004m.005.004-15.321-12.856m47.207-67.618-15.321-12.855m15.321 12.855-15.317-12.851m1.135 25.702Zm0 0-15.321-12.856m80.517.838-15.321-12.855m15.321 12.855-15.317-12.852m15.035 57.905-15.321-12.856m15.321 12.856-15.317-12.853m1.717 19.108c.001.001 0 0 0 0Zm0 0-15.32-12.855m15.29-25.224c.001 0 0 0 0 0Zm0 0-15.32-12.856m237.585-1.341-15.321-12.856m15.321 12.856-15.315-12.851m-16.486 93.454-.005-.004m.005.004-15.321-12.856m29.544-.35-15.321-12.856m18.805-41.526c.001 0 0 0 0 0Zm0 0-15.321-12.856M2.865 26.606C2.865 11.269 11.288 3.6 25.62 3.6M2.864 26.606v44.251M25.62 3.6c6.7 0 12.212 1.728 16.198 5.072m0 0 .005.004M2.865 70.857c0 9.578 3.147 15.882 7.437 19.48m15.695-69.388c-1.635 0-3.017 1.131-3.017 4.274m3.017-4.274c.59 0 1.162.173 1.64.574m-4.657 3.7v47.143m4.656-50.843c.74.621 1.252 1.788 1.252 3.7m0 0v15.589m0 0h20.114m-7.18-32.136c4.612 3.87 7.18 9.906 7.18 17.93m0 0v14.206M22.98 72.366c0 1.856.518 3.09 1.288 3.736m.975-18.822V44.206m0 13.074h3.646m-3.646-13.074h23.76m-38.7 46.131 15.316 12.852M10.302 90.337c3.086 2.589 6.765 3.778 10.289 3.778m28.411-49.91v48.652M28.888 57.28v14.206M60.053 4.732h31.303m-31.302 0-7.92 88.125M91.355 4.732 98.9 92.857M28.89 71.486c0 3.52-1.51 5.154-3.144 5.154m-1.478-.538Zm0 0c.43.36.938.538 1.478.538m-5.154 17.475c5.909 0 11.691-3.27 13.326-9.178m18.216 7.92h20.115m-38.331-7.92H35.3m0 0v7.92m13.702 0H35.3m40.846-53.303h-1.257m1.257 0 .754 15.84m-2.011-15.84-.88 15.84m0 0h2.891M103.41 4.857h25.897m-25.897 0v88m25.897-88 2.515 53.051m-32.923 34.95H78.785m-1.006-19.99h-4.526m4.526 0 1.006 19.99m-5.532-19.99-1.005 19.99m31.162 0h18.48m13.829-88h25.771m-25.771 0-2.515 53.05m28.286-53.05v88m-40.606-52.675h-1.382m1.382 0 5.28 52.674m-6.662-52.674 2.388 52.674m9.932-34.949h1.382m12.069-17.725h-1.383m1.383 0-2.263 52.674m.88-52.674-5.154 52.674m-12.572 0h12.572m28.204-88h20.114m-20.114 0v88m20.114-88v88m-44.044 0h18.48m5.45 0h20.114m5.358-88h32.434m-32.434 0v88m32.434-88v17.474m-32.434 70.526h20.114m12.32-70.526h-12.32m-100.25 124.4c0-15.337 8.423-23.005 22.754-23.005m-22.754 23.005v44.252m22.754-67.257c6.701 0 12.213 1.728 16.199 5.072m61.297-106.466v17.851m0 0h11.566m4.326-35.326h20.115m-20.115 0 12.697 63.863m7.418-63.863 2.137 36.08m-99.441 87.861.004.004m72.859-88.62v17.475M112.276 190.983c0 8.339 2.49 14.449 7.067 18.288m16.064-68.197c-1.634 0-3.017 1.132-3.017 4.275m3.017-4.275c.591 0 1.163.174 1.64.574m-4.657 3.701v47.143m4.657-50.844c.74.622 1.252 1.789 1.252 3.701m0 0v21.246m85.793-108.938h-11.566m28.589 11.063v24.137m-28.589-35.2v35.2m41.538-88h20.114m-20.114 0-2.011 36.08m22.125-36.08L261.23 68.72m-10.56-27.783h1.383M138.299 166.595l20.114-.001m-7.18-37.792c4.612 3.871 7.18 9.906 7.18 17.93m0 0v19.862m-26.023 25.898c0 1.791.488 2.918 1.226 3.538m30.162-71.298h22.502m-22.502 0v88.125m22.502-88.125c6.659 0 12.06 1.625 15.963 4.899m-82.9 79.64 15.316 12.852m-15.316-12.852c3.84 3.221 9.149 4.843 15.687 4.843m3.269-21.622v-21.246m0 21.246c0 3.017-1.383 4.148-2.892 4.148m2.892-25.394h20.114m0 0v19.737m120.3-186.126h20.114m-20.114 0v88m20.114-88v88M133.616 196.03s0-.001 0 0Zm0 0c.505.423 1.128.61 1.791.61M261.23 68.72v24.137m-58.987 36.774.004.003m-16.218 12.572h-2.137m2.137 0c1.019 0 1.77.206 2.303.653m-4.44-.653v20.617m-48.862 51.291c14.457 0 23.383-8.045 23.383-23.131m5.365 21.874h20.114m4.44-69.998c.78.655 1.091 1.827 1.091 3.621m51.692-53.623h20.115m-71.807 53.623v11.943m-5.531 4.4h2.137m3.394-4.4c0 3.143-.88 4.4-3.394 4.4M304.059 4.857h21.874m-21.874 0v88m21.874-88 9.429 53.051m-56.649 34.95h20.114m-96.58 36.776c4.642 3.897 7.165 10.127 7.165 18.732m0 0v.503m0 0c0 14.457-7.04 21.623-12.823 22m18.442-46.012h32.434m-32.434 0v88m32.434-88v17.474m-61.436 37.966h-2.137m2.137 0c1.039 0 1.799.193 2.333.642m-4.47-.642v32.56m12.697-41.988v1.382m-8.227 8.688c.758.636 1.061 1.788 1.061 3.632m7.166-12.32c1.732.116 3.606.95 5.372 2.432m-12.538 9.888v10.183m12.538-20.071.004.003m102.094-81.829h20.114m7.417-88h20.115m-20.115 0 4.903 53.051m15.212-53.05v88M189.423 194.753c0 6.789.126 12.698 1.257 18.103M320.905 40.183h-1.132m1.132 0 8.925 52.674m-10.057-52.674 4.4 52.674m-109.142 120h32.56m87.771-154.948h1.131m-89.028 84.422-12.32.001m-33.18 32.354c4 3.358 7.447 10.034 7.447 19.188m0 0v1.006m25.733-52.548v15.588m-44.465 54.937h19.989m24.476-54.937h12.068m-37.801 36.96c0 7.166.126 12.697 1.257 17.977m36.544-54.937v17.474m12.358-50.662h31.303m-31.303 0-7.92 88.125m39.223-88.125 7.543 88.125m58.614-186.251c0-15.337 8.423-23.006 22.754-23.006m-22.754 23.006v44.251M379.785 3.6c6.7 0 12.213 1.728 16.199 5.072M329.83 92.857h21.875m-104.492 82.537-12.068.001m0 0v19.988m0 0h12.446M395.984 8.672l.004.004M251.651 212.857h20.114m85.266-142c0 9.578 3.146 15.882 7.436 19.48m15.695-69.388c-1.634 0-3.017 1.131-3.017 4.274m3.017-4.274c.591 0 1.163.173 1.64.574m-4.657 3.7v47.143m4.657-50.843c.74.621 1.252 1.788 1.252 3.7m0 0v15.589M247.591 195.382v17.474m28.071-53.303h-1.257m1.257 0 .755 15.84m-2.012-15.84-.88 15.84m23.735-33.063v-17.474m0 17.474 12.194.001m-12.194-17.475h44.377m41.417-84.046h20.114m-7.18-32.135c4.612 3.87 7.18 9.906 7.18 17.93m0 0v14.206M273.525 175.394h2.892M377.145 72.366c0 1.856.518 3.09 1.288 3.736m.975-18.822V44.206m0 13.074h3.646m-3.646-13.074h23.76m-93.714 98.126v70.525m32.183-88v17.474m22.83-51.994 15.316 12.852m-15.316-12.852c3.087 2.589 6.765 3.778 10.29 3.778m28.411-49.91v48.652M383.054 57.28v14.206m-84.637 141.371h-20.115m-1.005-19.988h-4.526m4.526 0 1.005 19.988m-5.531-19.988-1.006 19.988M383.054 71.486c0 3.52-1.509 5.154-3.143 5.154m-1.478-.538s-.001 0 0 0Zm0 0c.429.36.938.538 1.478.538m51.758-71.783h20.114m-20.114 0v66m20.114-66v67.634m-77.026 21.624c5.908 0 11.691-3.27 13.325-9.178m-46.445 57.394-12.069.001m0 0v70.525m58.514-127.92h1.383m-80.011 127.92h20.114m59.897-127.92v7.92m13.703 0h-13.703m-43.141 32h20.114m-20.114 0v88m20.114-88v88m65.231-142c0 8.434 2.471 14.625 7.078 18.49m18.568-84.49h20.114m-20.114 0v67.634m20.114-67.634v66m-25.646 1.634c0 1.86.477 3.003 1.197 3.606m-106.656 136.76h20.114m90.877-140.366c0 3.017-1.258 4.15-2.766 4.15m-82.879 70.091c0-15.338 8.423-23.132 22.754-23.132m-22.754 23.132v44.125m22.754-67.257c6.685 0 12.188 1.721 16.172 5.062m28.151-39.316 15.316 12.853m-15.316-12.853c3.771 3.164 8.974 4.768 15.425 4.768m28.504-67.508c0-15.337 8.423-23.006 22.755-23.006m-22.755 23.006v44.251M505.431 3.6c6.7 0 12.212 1.728 16.198 5.072m-111.033 119.99.006.005m66.827-57.81c0 15.212-8.8 23.257-23.257 23.257m-82.502 96.743c0 8.375 2.511 14.538 7.125 18.408m15.88-68.191c-1.508 0-2.891 1.006-2.891 4.149m2.891-4.149c.68 0 1.316.174 1.827.603m-4.718 3.546v47.268m4.718-50.814c.719.603 1.191 1.71 1.191 3.546m55.287-69.126s-.001 0 0 0Zm0 0c.448.376.99.543 1.569.543m-56.856 68.583v47.268M521.629 8.672l.005.004m-38.958 62.181c0 9.578 3.147 15.882 7.437 19.48m15.695-69.388c-1.635 0-3.017 1.131-3.017 4.274m3.017-4.274c.591 0 1.163.173 1.639.574m-4.656 3.7v47.143m4.656-50.843c.741.621 1.252 1.788 1.252 3.7m0 0v15.589m-98.097 87.855c4.628 3.885 7.205 9.958 7.205 18.065m0 0v44.125m-26.023 1.634c0 1.821.503 2.955 1.234 3.568M508.699 40.811h20.115m-105.768 84.046h21.874m-21.874 0v88m21.874-88 9.428 53.051m-56.655 14.583c0 3.018-1.383 4.149-3.018 4.149M521.634 8.676c4.612 3.87 7.18 9.906 7.18 17.93m0 0v14.206M378.795 209.265l15.316 12.852m-15.316-12.852c3.835 3.217 9.123 4.849 15.629 4.849M502.791 72.366c0 1.856.517 3.09 1.287 3.736m.976-18.822V44.206m0 13.074h3.645m-3.645-13.074h23.76m-38.701 46.131 15.316 12.852m-15.316-12.852c3.086 2.589 6.765 3.778 10.289 3.778m28.412-49.91-.001 48.652M508.699 57.28v14.206M393.018 196.059Zm0 0c.48.403 1.059.581 1.657.581M534.052 26.731c0-15.337 8.423-23.005 22.755-23.005M534.052 26.73v44.252m22.755-67.257c6.7 0 12.212 1.728 16.198 5.072M417.807 190.857c0 15.212-8.926 23.257-23.383 23.257M508.699 71.486c0 3.52-1.508 5.154-3.143 5.154m-82.51 136.217h20.114m7.417-88h20.114m-20.114 0 4.903 53.051m15.211-53.051v88m33.387-136.755Zm0 0c.43.36.938.538 1.478.538m67.449-67.842c.002 0 .003.002.005.004m-72.608 85.313c5.909 0 11.691-3.27 13.326-9.178m-73.837 75.246h-1.131m1.131 0 8.926 52.674m-10.057-52.674 4.4 52.674m90.892-141.874c0 8.34 2.491 14.449 7.067 18.288m16.065-68.197c-1.635 0-3.017 1.132-3.017 4.275m3.017-4.275c.591 0 1.162.174 1.639.574m-4.656 3.7v47.144m4.656-50.844c.741.622 1.252 1.79 1.252 3.7m-105.727 152.56h1.132m104.595-152.56v21.247m-46.347 38.342h1.383m0 0v7.92m13.702 0h-13.702m44.964-46.262h20.114M573.01 8.801c4.612 3.87 7.179 9.906 7.179 17.93m0 0v19.862m-26.022 25.898c0 1.791.487 2.918 1.225 3.538M448.817 212.857h21.874m70.428-123.586 15.317 12.852m-15.317-12.852c3.84 3.22 9.149 4.843 15.688 4.843m3.268-21.622V51.246m0 21.246c0 3.017-1.383 4.148-2.891 4.148m2.891-25.394h20.114m0 0v19.737m-24.797 5.047c.001 0 0 0 0 0Zm0 0c.505.423 1.128.61 1.792.61m-.377 17.474c14.457 0 23.382-8.045 23.382-23.131"/><path fill="#fff" d="M22.765 25.366v47.143c0 2.891 1.257 4.274 2.766 4.274 1.634 0 3.143-1.634 3.143-5.154V57.423h-3.646V44.349h23.76V93H35.085v-7.92h-1.383c-1.634 5.909-7.417 9.177-13.325 9.177C11.954 94.257 2.65 87.47 2.65 71V26.749c0-15.338 8.423-23.006 22.754-23.006 14.457 0 23.383 8.046 23.383 23.006v14.205H28.674V25.366c0-3.143-1.383-4.275-2.892-4.275-1.634 0-3.017 1.132-3.017 4.275ZM59.84 4.874h31.303L98.685 93H78.57l-1.005-19.989h-4.526L72.033 93H51.92l7.92-88.126Zm13.954 50.663h2.892l-.755-15.84h-1.257l-.88 15.84ZM103.196 5h25.897l2.514 53.051h1.383L135.504 5h25.772v88h-18.48l2.263-52.674h-1.383L138.521 93H125.95l-5.28-52.674h-1.383L121.676 93h-18.48V5Zm63.53 0h20.114v88h-20.114V5Zm57.906 17.474h-12.32v17.852h11.565V57.8h-11.565V93h-20.115V5h32.435v17.474ZM228.204 5h20.114l2.137 36.08h1.383L253.85 5h20.114l-12.949 63.863V93h-20.114V68.863L228.204 5Zm50.294 0h20.115v88h-20.115V5Zm52.878 0h20.114v88h-21.874l-8.926-52.674h-1.131l4.4 52.674h-20.114V5h21.874l9.428 53.051h1.132L331.376 5Zm45.555 20.366v47.143c0 2.891 1.257 4.274 2.765 4.274 1.635 0 3.143-1.634 3.143-5.154V57.423h-3.645V44.349h23.76V93h-13.703v-7.92h-1.383c-1.634 5.909-7.417 9.177-13.326 9.177-8.423 0-17.726-6.788-17.726-23.257V26.749c0-15.338 8.423-23.006 22.755-23.006 14.457 0 23.383 8.046 23.383 23.006v14.205h-20.115V25.366c0-3.143-1.383-4.275-2.891-4.275-1.634 0-3.017 1.132-3.017 4.275ZM132.176 146.49v47.143c0 3.017 1.383 4.149 3.017 4.149 1.508 0 2.891-1.132 2.891-4.149v-21.245h20.115v19.737c0 15.085-8.926 23.131-23.383 23.131-14.332 0-22.755-7.794-22.755-23.131v-44.252c0-15.337 8.423-23.005 22.755-23.005 14.457 0 23.383 8.045 23.383 23.005v19.863h-20.115v-21.246c0-3.142-1.383-4.274-2.891-4.274-1.634 0-3.017 1.132-3.017 4.274Zm31.387-20.617h22.503c14.583 0 23.131 7.795 23.131 23.635v.502c0 14.458-7.04 21.623-12.822 22v1.383c5.657.377 12.822 8.423 12.822 21.623v1.006c0 7.166.126 12.697 1.258 17.977h-19.989c-1.131-5.406-1.257-11.314-1.257-18.103v-10.183c0-3.143-.88-4.274-3.394-4.274h-2.138V214h-20.114v-88.126Zm20.114 17.475v20.617h2.138c2.514 0 3.394-1.257 3.394-4.4v-11.943c0-3.017-.88-4.274-3.394-4.274h-2.138Zm63.573.125h-12.32v15.589h12.069v17.474H234.93v19.989h12.446V214h-32.56v-88h32.434v17.474Zm12.106-17.6h31.303L298.202 214h-20.114l-1.006-19.989h-4.526L271.551 214h-20.115l7.92-88.126Zm13.955 50.663h2.891l-.754-15.84h-1.257l-.88 15.84ZM341.422 126v17.474h-12.068V214h-20.115v-70.526h-12.194V126h44.377Zm4.687 0h20.114v88h-20.114v-88Zm25.346 21.874c0-15.337 8.423-23.131 22.755-23.131 14.457 0 23.382 8.046 23.382 23.131V192c0 15.211-8.925 23.257-23.382 23.257-14.332 0-22.755-7.92-22.755-23.257v-44.126Zm20.115-1.508v47.268c0 3.017 1.382 4.149 2.891 4.149 1.634 0 3.017-1.132 3.017-4.149v-47.268c0-3.143-1.383-4.149-3.017-4.149-1.509 0-2.891 1.006-2.891 4.149ZM450.363 126h20.114v88h-21.874l-8.926-52.674h-1.132l4.4 52.674h-20.114v-88h21.874l9.429 53.051h1.131L450.363 126Z"/><path fill="url(#a)" d="M431.454 5h20.115v67.634c0 3.017 1.257 4.149 2.765 4.149 1.509 0 2.766-1.132 2.766-4.149V5h20.114v66c0 15.211-8.8 23.257-23.257 23.257-14.331 0-22.503-7.92-22.503-23.257V5Zm71.122 20.366v47.143c0 2.891 1.257 4.274 2.766 4.274 1.634 0 3.143-1.634 3.143-5.154V57.423h-3.646V44.349h23.76V93h-13.703v-7.92h-1.383c-1.634 5.909-7.417 9.177-13.325 9.177-8.423 0-17.726-6.788-17.726-23.257V26.749c0-15.338 8.423-23.006 22.754-23.006 14.457 0 23.383 8.046 23.383 23.006v14.205h-20.114V25.366c0-3.143-1.383-4.275-2.892-4.275-1.634 0-3.017 1.132-3.017 4.275Zm51.376.125v47.143c0 3.017 1.383 4.149 3.017 4.149 1.509 0 2.892-1.132 2.892-4.149V51.39h20.114v19.737c0 15.085-8.926 23.131-23.383 23.131-14.331 0-22.754-7.794-22.754-23.131V26.874c0-15.337 8.423-23.005 22.754-23.005 14.457 0 23.383 8.045 23.383 23.005v19.863h-20.114V25.491c0-3.142-1.383-4.274-2.892-4.274-1.634 0-3.017 1.132-3.017 4.274Z"/><defs><linearGradient id="a" x1="394.787" x2="397.214" y1="59.78" y2="14.103" gradientUnits="userSpaceOnUse"><stop stop-color="#9CFF87"/><stop offset="1" stop-color="#1FD0E0"/></linearGradient></defs></svg>