<svg xmlns="http://www.w3.org/2000/svg" width="388" height="450" fill="none"><path fill="#000" d="M32.05 33.511v43.624c0 2.432.748 4.115 1.864 5.052.7.588 1.544.881 2.441.881 2.676 0 5.235-2.442 5.235-7.677V62.245h-5.235V51.659h21.521V95.98H46.592v-8.027h-1.047c-1.861 6.05-7.445 9.307-13.262 9.307-3.316 0-6.756-1.125-9.632-3.537-3.984-3.342-6.887-9.153-6.887-17.868V34.674c0-14.425 8.143-21.288 20.824-21.288 5.942 0 10.956 1.555 14.623 4.63 4.229 3.548 6.665 9.119 6.665 16.658v13.03H41.59V33.51c0-2.512-.713-4.061-1.765-4.943-.847-.712-1.914-.99-3.005-.99-2.443 0-4.77 1.396-4.77 5.933ZM70.532 14.549h25.477l8.725 81.432H88.447l-1.861-20.125H79.49L77.745 95.98H61.458l9.074-81.432Zm10.237 47.114h4.537l-1.629-19.427h-1.163L80.77 61.663ZM109.6 14.665h21.173l4.769 53.513h1.164l4.653-53.513h21.056v81.433h-14.89l1.745-53.164h-1.047l-6.748 53.164h-10.818l-6.748-53.164h-1.047l1.745 53.164H109.6V14.665ZM168.843 14.665h16.287v81.433h-16.287V14.665ZM221.056 28.741h-13.378v19.544h12.68v14.076h-12.68v33.62h-16.286V14.55h29.664V28.74ZM224.927 14.665h16.287l3.839 36.296h1.047l3.838-36.296h16.403L253.545 73.53v22.569h-16.287V73.529l-12.331-58.864ZM271.252 14.665h16.286v81.433h-16.286V14.665ZM320.44 14.665h16.287v81.433h-18.032l-11.284-53.164h-.931l3.607 53.164H293.8V14.665h17.915l11.633 53.513h.931l-3.839-53.513ZM359.216 33.511v43.624c0 2.432.747 4.115 1.863 5.052.7.588 1.545.881 2.441.881 2.676 0 5.235-2.442 5.235-7.677V62.245h-5.235V51.659h21.522V95.98h-11.285v-8.027h-1.047c-1.861 6.05-7.445 9.307-13.261 9.307-3.317 0-6.757-1.125-9.633-3.537-3.983-3.342-6.886-9.153-6.886-17.868V34.674c0-14.425 8.143-21.288 20.823-21.288 5.942 0 10.956 1.555 14.623 4.63 4.229 3.548 6.666 9.119 6.666 16.658v13.03h-16.287V33.51c0-2.512-.713-4.061-1.764-4.943-.848-.712-1.915-.99-3.005-.99-2.443 0-4.77 1.396-4.77 5.933ZM15.377 116.501H59.12v167.873c0 6.916 2.012 11.289 4.927 13.736 2.091 1.756 4.647 2.52 7.258 2.52 6.249 0 11.873-4.377 11.873-16.256V116.501h43.741v164.747c0 38.138-21.871 57.208-56.239 57.208-15.527 0-28.39-3.899-37.792-11.785-11.22-9.412-17.51-24.502-17.51-45.423V116.501ZM186.804 167.144v117.23c0 6.534 2.008 11.06 5.006 13.577 1.879 1.577 4.147 2.366 6.554 2.366 7.187 0 14.06-6.565 14.06-20.632V244.36h-14.06v-28.448h57.802v119.105h-30.307v-21.57h-2.812c-4.999 16.256-19.996 25.009-35.618 25.009-8.905 0-18.138-3.021-25.861-9.498-10.704-8.978-18.505-24.598-18.505-48.023V170.271c0-38.764 21.87-57.208 55.926-57.208 15.955 0 29.418 4.176 39.265 12.436 11.364 9.533 17.912 24.505 17.912 44.772v35.012h-43.742v-38.139c0-6.751-1.916-10.915-4.741-13.286-2.276-1.91-5.141-2.657-8.069-2.657-6.561 0-12.81 3.752-12.81 15.943ZM316.015 167.144v117.23c0 6.645 1.956 10.845 4.827 13.255 2.262 1.899 5.092 2.688 7.983 2.688 6.562 0 12.81-4.064 12.81-15.943v-50.018h43.742v46.579c0 38.139-22.496 57.521-57.176 57.521-15.627 0-28.687-3.949-38.247-11.968-11.275-9.457-17.68-24.575-17.68-45.553V170.271c0-38.452 21.871-57.208 55.927-57.208 16.07 0 29.524 4.162 39.336 12.392 11.362 9.531 17.84 24.518 17.84 44.816v46.891h-43.742v-50.018c0-6.645-1.955-10.844-4.827-13.255-2.262-1.899-5.092-2.688-7.983-2.688-6.561 0-12.81 4.064-12.81 15.943ZM33.547 376.594v48.321c0 2.729.807 4.457 1.992 5.453.942.79 2.123 1.118 3.33 1.118 2.725 0 5.32-1.675 5.32-6.571v-20.617H62.36v19.199c0 15.721-9.345 23.71-23.751 23.71-6.52 0-11.965-1.643-15.94-4.977-4.651-3.901-7.292-10.119-7.292-18.733v-45.614c0-15.849 9.085-23.58 23.232-23.58 6.706 0 12.315 1.731 16.395 5.153 4.686 3.931 7.356 10.093 7.356 18.427v19.328H44.19v-20.617c0-2.729-.806-4.457-1.992-5.452-.942-.791-2.123-1.119-3.33-1.119-2.725 0-5.32 1.675-5.32 6.571ZM69.181 355.72h22.453c6.869 0 12.414 1.69 16.413 5.044 4.767 3.999 7.338 10.363 7.338 19.052v.644c0 14.432-7.008 21.905-13.368 22.55v1.288c1.955.198 3.971 1.114 5.826 2.67 4.18 3.506 7.542 10.261 7.542 19.364v1.289c0 7.731.13 13.272 1.298 18.297h-18.17c-1.168-5.412-1.298-11.468-1.298-18.426v-9.278c0-2.679-.606-4.498-1.868-5.557-.923-.775-2.198-1.143-3.843-1.143h-4.153v34.533h-18.17V355.72Zm18.17 15.72v24.354h4.153c3.894 0 5.711-2.191 5.711-6.958V378.27c0-2.716-.623-4.593-1.92-5.682-.92-.771-2.177-1.148-3.79-1.148H87.35ZM155.571 371.311h-14.926v19.457h14.666v15.721h-14.666v23.709h15.315v15.72h-33.485v-90.327h33.096v15.72ZM170.646 355.591h28.424l9.734 90.198h-18.171l-2.076-22.292h-7.917l-1.947 22.292h-18.17l10.123-90.198Zm11.421 52.186h5.062l-1.817-21.519h-1.298l-1.947 21.519ZM252.766 355.591v15.72h-13.368v74.478h-18.17v-74.478h-13.239v-15.72h44.777ZM258.655 355.72h18.17v90.198h-18.17V355.72ZM283.682 377.883c0-15.849 9.085-23.452 23.232-23.452 6.739 0 12.371 1.721 16.456 5.148 4.648 3.898 7.295 10.006 7.295 18.304v45.743c0 15.72-9.345 23.581-23.751 23.581-6.534 0-11.989-1.65-15.967-4.986-4.634-3.888-7.265-10.066-7.265-18.595v-45.743Zm18.17-1.16v48.192c0 2.775.834 4.557 2.052 5.58.932.782 2.088 1.12 3.269 1.12 2.855 0 5.321-1.804 5.321-6.7v-48.192c0-2.788-.758-4.505-1.922-5.481-.933-.784-2.128-1.09-3.399-1.09-2.725 0-5.321 1.546-5.321 6.571ZM367.207 355.72h18.17v90.198H365.26l-12.589-58.886h-1.039l4.024 58.886h-18.17V355.72h19.987l12.979 59.273h1.038l-4.283-59.273Z"/><path fill="#000" d="M24.21 3C11.53 3 3.388 9.864 3.388 24.289l12.377 10.385c0-14.425 8.143-21.288 20.824-21.288L24.21 3Z"/><path fill="#000" d="M38.834 7.63C35.166 4.556 30.153 3 24.21 3l12.377 10.386c5.942 0 10.956 1.555 14.623 4.63L38.834 7.632ZM19.674 23.125c0-4.536 2.326-5.932 4.77-5.932L36.82 27.578c-2.443 0-4.77 1.396-4.77 5.933L19.675 23.125Z"/><path fill="#000" d="M24.443 17.193c1.09 0 2.158.278 3.005.99l12.377 10.384c-.848-.71-1.915-.989-3.005-.989L24.443 17.193ZM3.387 24.289V65.47l12.377 10.386V34.674L3.387 24.29Z"/><path fill="#000" d="M27.448 18.182c1.052.883 1.765 2.431 1.765 4.943L41.59 33.511c0-2.512-.713-4.061-1.765-4.943L27.448 18.182Z"/><path fill="#000" d="M29.213 23.125v14.193L41.59 47.704V33.51L29.213 23.125ZM45.5 24.289c0-7.537-2.435-13.107-6.662-16.655L51.21 18.017c4.229 3.547 6.665 9.118 6.665 16.657L45.5 24.29Z"/><path fill="#000" d="M19.674 66.75V23.126L32.05 33.51v43.624L19.674 66.75Z"/><path fill="#000" d="M23.978 41.273V51.86l12.377 10.386V51.659L23.978 41.273ZM29.213 37.318h16.286l12.377 10.386H41.59L29.213 37.317ZM3.387 65.47c0 8.715 2.903 14.527 6.887 17.868L22.647 93.72c-3.982-3.342-6.883-9.153-6.883-17.864L3.387 65.47Z"/><path fill="#000" d="M45.5 41.273H23.977L36.355 51.66h21.521L45.5 41.273ZM23.978 51.86h5.235L41.59 62.244h-5.235L23.978 51.859ZM45.5 37.318v-13.03l12.376 10.386v13.03L45.5 37.317ZM83.632 4.163H58.155L70.532 14.55h25.477L83.632 4.163Z"/><path fill="#000" d="M29.213 51.86v13.145L41.59 75.39V62.245L29.213 51.859ZM21.537 71.802c-1.116-.937-1.863-2.621-1.863-5.052L32.05 77.135c0 2.432.747 4.115 1.863 5.052L21.537 71.802Z"/><path fill="#000" d="M23.978 72.683c-.896 0-1.74-.294-2.44-.88l12.376 10.384c.7.588 1.544.881 2.441.881L23.978 72.683ZM29.213 65.005c0 5.235-2.56 7.678-5.235 7.678l12.377 10.385c2.676 0 5.235-2.442 5.235-7.677L29.213 65.005ZM10.274 83.338c2.876 2.413 6.316 3.537 9.632 3.537l12.377 10.386c-3.316 0-6.756-1.125-9.632-3.537L10.274 83.338ZM58.155 4.163l-9.074 81.433L61.458 95.98l9.074-81.432L58.155 4.163Z"/><path fill="#000" d="M19.906 86.875c5.817 0 11.4-3.257 13.262-9.306l12.377 10.385c-1.861 6.05-7.445 9.307-13.262 9.307L19.906 86.875ZM70.137 31.85H71.3l12.377 10.386h-1.163L70.137 31.85ZM45.5 85.596V41.273L57.875 51.66V95.98L45.5 85.596Z"/><path fill="#000" d="M33.168 77.569h1.047l12.377 10.385h-1.047L33.168 77.57Z"/><path fill="#000" d="M34.215 77.569v8.027L46.592 95.98v-8.027L34.215 77.57ZM68.392 51.278l1.745-19.428 12.377 10.386-1.745 19.427-12.377-10.385Z"/><path fill="#000" d="m71.3 31.85 1.63 19.428 12.376 10.385-1.629-19.427L71.3 31.85ZM118.396 4.28H97.223L109.6 14.665h21.173L118.396 4.28ZM34.215 85.596h11.284L57.876 95.98H46.592L34.215 85.596Z"/><path fill="#000" d="M72.93 51.278h-4.538L80.77 61.663h4.537L72.93 51.278ZM46.742 106.116H3l12.377 10.385H59.12l-12.377-10.385ZM67.112 65.47h7.097l12.377 10.386H79.49L67.113 65.47ZM92.356 85.596 83.632 4.163 96.009 14.55l8.725 81.432-12.377-10.385ZM49.081 85.596h16.286L77.745 95.98H61.458L49.081 85.596Z"/><path fill="#000" d="m65.367 85.596 1.745-20.126L79.49 75.856 77.745 95.98 65.367 85.596ZM97.223 4.28v81.432L109.6 96.098V14.665L97.223 4.28ZM110.485 32.548h1.047l12.377 10.386h-1.047l-12.377-10.386Z"/><path fill="#000" d="m74.209 65.47 1.861 20.126L88.447 95.98l-1.861-20.125L74.209 65.47ZM150.038 4.28h-21.056l12.377 10.385h21.056L150.038 4.28ZM123.165 57.792 118.396 4.28l12.377 10.385 4.769 53.513-12.377-10.386Z"/><path fill="#000" d="m128.982 4.28-4.653 53.512 12.377 10.386 4.653-53.513L128.982 4.28ZM76.07 85.596h16.287l12.377 10.385H88.447L76.07 85.596ZM112.23 85.712l-1.745-53.164 12.377 10.386 1.745 53.164-12.377-10.386ZM3 106.116v164.746l12.377 10.386V116.501L3 106.116Z"/><path fill="#000" d="M135.845 32.548h1.047l12.378 10.386h-1.047l-12.378-10.386ZM111.532 32.548l6.747 53.164 12.378 10.386-6.748-53.164-12.377-10.386ZM172.753 4.28h-16.287l12.377 10.385h16.287L172.753 4.28Z"/><path fill="#000" d="M124.329 57.792h-1.164l12.377 10.386h1.164l-12.377-10.386ZM97.223 85.712h15.007l12.377 10.386H109.6L97.223 85.712ZM114.541 106.116H70.799l12.378 10.385h43.741l-12.377-10.385Z"/><path fill="#000" d="m129.098 85.712 6.747-53.164 12.378 10.386-6.748 53.164-12.377-10.386Z"/><path fill="#000" d="m136.892 32.548-1.745 53.164 12.378 10.386 1.745-53.164-12.378-10.386ZM150.038 85.712V4.28l12.377 10.385v81.433l-12.377-10.386Z"/><path fill="#000" d="M156.466 4.28v81.432l12.377 10.386V14.665L156.466 4.28ZM118.279 85.712h10.819l12.377 10.386h-10.818l-12.378-10.386ZM208.679 4.163h-29.664l12.377 10.386h29.664L208.679 4.163ZM46.742 273.988V106.116l12.377 10.385v167.873l-12.377-10.386ZM172.753 85.712V4.28l12.377 10.385v81.433l-12.377-10.386ZM135.147 85.712h14.891l12.377 10.386h-14.89l-12.378-10.386Z"/><path fill="#000" d="M179.015 4.163v81.433l12.377 10.385V14.55L179.015 4.163ZM195.301 18.356h13.378l12.377 10.385h-13.378l-12.377-10.385ZM208.679 18.356V4.163l12.377 10.386V28.74l-12.377-10.385Z"/><path fill="#000" d="M195.301 37.9V18.356l12.377 10.385v19.544L195.301 37.9ZM228.836 4.28H212.55l12.377 10.385h16.287L228.836 4.28ZM70.8 106.116v167.872l12.377 10.386V116.501l-12.378-10.385Z"/><path fill="#000" d="M207.981 37.9h-12.68l12.377 10.385h12.68L207.981 37.9ZM156.466 85.712h16.287l12.377 10.386h-16.287l-12.377-10.386ZM195.301 51.976h12.68l12.377 10.385h-12.68l-12.377-10.385Z"/><path fill="#000" d="M207.981 51.976V37.9l12.377 10.385v14.076l-12.377-10.385ZM212.55 4.28l12.331 58.864 12.377 10.385-12.331-58.864L212.55 4.28ZM253.964 4.28h-16.402l12.376 10.385h16.403L253.964 4.28ZM232.676 40.575l-3.84-36.295 12.378 10.385 3.839 36.296-12.377-10.386ZM195.301 85.596v-33.62l12.377 10.385v33.62l-12.377-10.385Z"/><path fill="#000" d="m237.562 4.28-3.84 36.295L246.1 50.961l3.838-36.296L237.562 4.28ZM3 270.862c0 20.921 6.29 36.012 17.51 45.423l12.365 10.376c-11.213-9.412-17.498-24.5-17.498-45.413L3 270.862ZM179.015 85.596h16.286l12.377 10.385h-16.286l-12.377-10.385Z"/><path fill="#000" d="M233.722 40.575h-1.046l12.377 10.386h1.047l-12.378-10.386ZM186.612 102.677c-34.056 0-55.926 18.444-55.926 57.208l12.377 10.386c0-38.764 21.87-57.208 55.926-57.208l-12.377-10.386ZM275.161 4.28h-16.286l12.377 10.385h16.286L275.161 4.28ZM114.541 270.862V106.116l12.377 10.385v164.747l-12.377-10.386Z"/><path fill="#000" d="M241.168 63.144 253.964 4.28l12.377 10.385-12.796 58.864-12.377-10.385ZM51.669 287.724c-2.915-2.446-4.927-6.819-4.927-13.736l12.377 10.386c0 6.916 2.012 11.289 4.927 13.736l-12.377-10.386ZM224.881 63.144v22.568l12.377 10.386V73.529l-12.377-10.385ZM299.338 4.28h-17.915L293.8 14.665h17.915L299.338 4.28Z"/><path fill="#000" d="M258.875 4.28v81.432l12.377 10.386V14.665L258.875 4.28ZM225.876 115.113c-9.846-8.259-23.309-12.436-39.264-12.436l12.377 10.386c15.955 0 29.418 4.176 39.265 12.436l-12.378-10.386ZM58.927 290.244c-2.61 0-5.164-.763-7.255-2.517l12.374 10.383c2.091 1.756 4.647 2.52 7.258 2.52l-12.377-10.386Z"/><path fill="#000" d="M70.8 273.988c0 11.879-5.624 16.256-11.873 16.256l12.377 10.386c6.249 0 11.873-4.377 11.873-16.256l-12.378-10.386ZM241.168 85.712V63.144l12.377 10.385v22.569l-12.377-10.386Z"/><path fill="#000" d="M224.881 85.712h16.287l12.377 10.386h-16.287l-12.377-10.386ZM174.427 156.759c0-12.192 6.249-15.943 12.81-15.943l12.377 10.385c-6.561 0-12.81 3.752-12.81 15.943l-12.377-10.385ZM20.51 316.285c9.401 7.886 22.265 11.785 37.792 11.785l12.377 10.386c-15.527 0-28.39-3.899-37.792-11.785L20.51 316.285Z"/><path fill="#000" d="M187.237 140.816c2.928 0 5.793.747 8.069 2.657l12.374 10.383c-2.275-1.908-5.139-2.655-8.066-2.655l-12.377-10.385ZM130.686 159.885V270.55l12.377 10.385V170.271l-12.377-10.386ZM275.161 85.712V4.28l12.377 10.385v81.433l-12.377-10.386ZM26.232 343.917C12.085 343.917 3 351.648 3 367.497l12.377 10.386c0-15.849 9.085-23.58 23.232-23.58l-12.377-10.386Z"/><path fill="#000" d="M281.423 4.28v81.432L293.8 96.098V14.665L281.423 4.28ZM324.35 4.28h-16.287l12.377 10.385h16.287L324.35 4.28ZM294.103 32.548h.931l12.377 10.386h-.931l-12.377-10.386ZM195.306 143.473c2.825 2.371 4.741 6.534 4.741 13.286l12.377 10.385c0-6.751-1.916-10.915-4.741-13.286l-12.377-10.385ZM42.627 349.071c-4.08-3.423-9.69-5.154-16.395-5.154l12.377 10.386c6.706 0 12.315 1.731 16.395 5.153l-12.377-10.385ZM21.17 366.209c0-4.897 2.596-6.572 5.321-6.572l12.377 10.386c-2.725 0-5.32 1.675-5.32 6.571L21.17 366.209Z"/><path fill="#000" d="M26.491 359.637c1.207 0 2.388.328 3.33 1.119l12.375 10.384c-.941-.789-2.122-1.117-3.328-1.117l-12.377-10.386ZM3 367.497v45.615l12.377 10.385v-45.614L3 367.497ZM310.971 57.792 299.338 4.28l12.377 10.385 11.633 53.513-12.377-10.386Z"/><path fill="#000" d="M29.82 360.756c1.186.995 1.993 2.724 1.993 5.453l12.377 10.385c0-2.729-.806-4.457-1.992-5.452L29.82 360.756ZM308.063 4.28l3.839 53.512 12.377 10.386-3.839-53.513L308.063 4.28ZM58.302 328.07c34.368 0 56.239-19.069 56.239-57.208l12.377 10.386c0 38.138-21.871 57.208-56.239 57.208L58.302 328.07ZM258.875 85.712h16.286l12.377 10.386h-16.286l-12.377-10.386ZM297.71 85.712l-3.607-53.164 12.377 10.386 3.607 53.164-12.377-10.386ZM49.983 367.497c0-8.331-2.668-14.492-7.351-18.422l12.372 10.381c4.686 3.931 7.356 10.093 7.356 18.427l-12.377-10.386ZM200.047 156.759v38.139l12.377 10.385v-38.139l-12.377-10.385ZM31.813 366.209v20.617l12.377 10.385v-20.617l-12.377-10.385Z"/><path fill="#000" d="M21.17 414.529v-48.32l12.377 10.385v48.321L21.17 414.529ZM243.789 159.885c0-20.26-6.543-35.228-17.901-44.762l12.366 10.376c11.364 9.533 17.912 24.505 17.912 44.772l-12.377-10.386ZM295.034 32.548l11.284 53.164 12.377 10.386-11.284-53.164-12.377-10.386ZM351.376 3c-12.68 0-20.824 6.864-20.824 21.289l12.378 10.385c0-14.425 8.143-21.288 20.823-21.288L351.376 3ZM174.427 273.988V156.759l12.377 10.385v117.23l-12.377-10.386ZM79.257 345.334H56.804l12.377 10.386h22.453l-12.377-10.386ZM311.902 57.792h-.931l12.377 10.386h.931l-12.377-10.386ZM3 413.112c0 8.614 2.64 14.831 7.291 18.732l12.372 10.381c-4.647-3.901-7.286-10.117-7.286-18.728L3 413.112ZM281.423 85.712h16.287l12.377 10.386H293.8l-12.377-10.386Z"/><path fill="#000" d="m324.349 85.712.001-81.432 12.377 10.385v81.433l-12.378-10.386ZM365.999 7.63C362.332 4.556 357.318 3 351.376 3l12.377 10.386c5.942 0 10.956 1.555 14.623 4.63L365.999 7.632ZM31.813 386.826h18.17l12.377 10.385H44.19l-12.377-10.385ZM346.839 23.125c0-4.536 2.326-5.932 4.769-5.932l12.378 10.385c-2.443 0-4.77 1.396-4.77 5.933l-12.377-10.386Z"/><path fill="#000" d="M49.983 386.826v-19.329l12.377 10.386v19.328l-12.377-10.385ZM351.608 17.193c1.091 0 2.158.278 3.006.99l12.376 10.384c-.848-.71-1.914-.989-3.004-.989l-12.378-10.385ZM330.552 24.289V65.47l12.378 10.386V34.674L330.552 24.29ZM185.987 205.526v28.448l12.377 10.386v-28.448l-12.377-10.386ZM31.813 393.912v20.617l12.377 10.386v-20.617l-12.377-10.386ZM49.983 393.912h-18.17l12.377 10.386h18.17l-12.377-10.386ZM23.162 419.982c-1.185-.996-1.992-2.724-1.992-5.453l12.377 10.386c0 2.729.807 4.457 1.992 5.453l-12.377-10.386Z"/><path fill="#000" d="M354.614 18.182c1.051.883 1.764 2.431 1.764 4.943l12.377 10.386c0-2.512-.713-4.061-1.764-4.943l-12.377-10.386ZM26.492 421.101c-1.206 0-2.387-.328-3.328-1.118l12.375 10.385c.942.79 2.123 1.118 3.33 1.118l-12.377-10.385ZM95.67 350.379c-4-3.355-9.544-5.045-16.413-5.045l12.377 10.386c6.869 0 12.414 1.69 16.413 5.044L95.67 350.379Z"/><path fill="#000" d="M31.813 414.529c0 4.897-2.596 6.572-5.321 6.572l12.376 10.385c2.726 0 5.322-1.675 5.322-6.571l-12.377-10.386ZM74.974 361.055h4.153l12.377 10.385h-4.153l-12.377-10.385ZM356.378 23.125v14.193l12.377 10.386V33.51l-12.377-10.386ZM10.291 431.844c3.976 3.335 9.421 4.977 15.94 4.977l12.378 10.386c-6.52 0-11.965-1.643-15.94-4.977L10.29 431.844ZM372.665 24.289c0-7.537-2.435-13.107-6.662-16.655l12.373 10.383c4.229 3.547 6.666 9.118 6.666 16.657L372.665 24.29Z"/><path fill="#000" d="M79.127 361.055c1.614 0 2.872.376 3.79 1.147l12.377 10.385c-.92-.771-2.176-1.147-3.79-1.147l-12.377-10.385ZM56.804 345.334v90.327l12.377 10.386V355.72l-12.377-10.386ZM346.839 66.75V23.126l12.377 10.385v43.624L346.839 66.75ZM200.047 194.898h43.742l12.377 10.385h-43.742l-12.377-10.385ZM130.686 270.55c0 23.425 7.801 39.044 18.505 48.022l12.364 10.375c-10.697-8.979-18.492-24.596-18.492-48.012l-12.377-10.385ZM306.318 85.712h18.031l12.378 10.386h-18.032l-12.377-10.386ZM243.789 205.526h-57.802l12.377 10.386h57.802l-12.377-10.386ZM74.974 385.408v-24.353l12.377 10.385v24.354l-12.377-10.386Z"/><path fill="#000" d="M49.983 413.112v-19.2l12.377 10.386v19.199l-12.377-10.385ZM185.987 233.974h14.06l12.377 10.386h-14.06l-12.377-10.386ZM82.917 362.202c1.298 1.09 1.92 2.966 1.92 5.682l12.378 10.386c0-2.716-.623-4.593-1.92-5.682l-12.378-10.386ZM351.143 41.273V51.86l12.377 10.386V51.659l-12.377-10.386ZM243.789 194.898v-35.013l12.377 10.386v35.012l-12.377-10.385Z"/><path fill="#000" d="M26.232 436.821c14.406 0 23.75-7.989 23.75-23.709l12.378 10.385c0 15.721-9.345 23.71-23.751 23.71l-12.377-10.386ZM356.378 37.318h16.287l12.377 10.386h-16.287l-12.377-10.386ZM330.552 65.47c0 8.715 2.904 14.527 6.887 17.868l12.373 10.382c-3.982-3.342-6.882-9.153-6.882-17.864L330.552 65.47Z"/><path fill="#000" d="M372.665 41.273h-21.522L363.52 51.66h21.522l-12.377-10.386ZM351.143 51.86h5.235l12.377 10.385h-5.235l-12.377-10.386ZM84.838 367.884v10.566l12.377 10.386V378.27l-12.377-10.386ZM315.823 102.677c-34.056 0-55.926 18.757-55.926 57.208l12.377 10.386c0-38.452 21.871-57.208 55.927-57.208l-12.378-10.386ZM372.665 37.318v-13.03l12.377 10.386v13.03l-12.377-10.386ZM79.127 385.408h-4.153l12.377 10.386h4.153l-12.377-10.386ZM103.008 369.43c0-8.686-2.57-15.049-7.334-19.048l12.373 10.382c4.767 3.999 7.338 10.363 7.338 19.052l-12.377-10.386Z"/><path fill="#000" d="M84.838 378.45c0 4.767-1.817 6.958-5.71 6.958l12.376 10.386c3.894 0 5.711-2.191 5.711-6.958L84.838 378.45ZM356.378 51.86v13.145l12.377 10.386V62.245l-12.377-10.386ZM348.702 71.802c-1.116-.937-1.863-2.621-1.863-5.052l12.377 10.385c0 2.432.747 4.115 1.863 5.052l-12.377-10.385Z"/><path fill="#000" d="M351.143 72.683c-.896 0-1.74-.294-2.44-.88l12.376 10.384c.7.588 1.545.881 2.441.881l-12.377-10.385ZM200.047 233.974v35.325l12.377 10.386V244.36l-12.377-10.386ZM356.378 65.005c0 5.235-2.559 7.678-5.235 7.678l12.377 10.385c2.676 0 5.235-2.442 5.235-7.677l-12.377-10.386ZM179.433 287.566c-2.998-2.518-5.006-7.043-5.006-13.578l12.377 10.386c0 6.534 2.008 11.06 5.006 13.577l-12.377-10.385ZM103.008 370.074v-.644l12.377 10.386v.644l-12.377-10.386ZM74.974 401.128h4.153l12.377 10.386h-4.153l-12.377-10.386ZM337.439 83.338c2.876 2.413 6.316 3.537 9.632 3.537l12.378 10.386c-3.317 0-6.757-1.125-9.633-3.537l-12.377-10.386ZM143.193 345.206h-33.095l12.377 10.385h33.096l-12.378-10.385Z"/><path fill="#000" d="M89.64 392.624c6.36-.644 13.368-8.118 13.368-22.55l12.377 10.386c0 14.432-7.008 21.905-13.368 22.55L89.64 392.624ZM79.127 401.128c1.645 0 2.92.368 3.843 1.143l12.376 10.385c-.923-.774-2.197-1.142-3.842-1.142l-12.377-10.386Z"/><path fill="#000" d="M89.64 393.912v-1.288l12.377 10.386v1.288L89.64 393.912ZM347.071 86.875c5.817 0 11.401-3.257 13.262-9.306l12.377 10.385c-1.861 6.05-7.445 9.307-13.261 9.307l-12.378-10.386ZM82.97 402.271c1.262 1.06 1.868 2.879 1.868 5.558l12.377 10.385c0-2.679-.606-4.498-1.868-5.557L82.97 402.271Z"/><path fill="#000" d="M95.466 396.583c-1.855-1.556-3.871-2.472-5.826-2.671l12.377 10.386c1.955.198 3.971 1.114 5.826 2.67l-12.377-10.385ZM185.987 289.931c-2.405 0-4.672-.787-6.551-2.363l12.374 10.383c1.879 1.577 4.147 2.366 6.554 2.366l-12.377-10.386ZM372.665 85.596V41.273l12.377 10.386V95.98l-12.377-10.385ZM360.333 77.569h1.047l12.377 10.385h-1.047L360.333 77.57ZM74.974 435.661v-34.533l12.377 10.386v34.533l-12.377-10.386ZM355.16 115.069c-9.812-8.23-23.266-12.392-39.337-12.392l12.378 10.386c16.07 0 29.524 4.162 39.336 12.392l-12.377-10.386Z"/><path fill="#000" d="M200.047 269.299c0 14.068-6.873 20.632-14.06 20.632l12.377 10.386c7.187 0 14.06-6.565 14.06-20.632l-12.377-10.386ZM361.38 77.569v8.027l12.377 10.385v-8.027L361.38 77.57ZM84.838 407.829v9.277l12.377 10.386v-9.278l-12.377-10.385ZM56.804 435.661h18.17l12.377 10.386h-18.17l-12.377-10.386ZM149.191 318.572c7.723 6.478 16.956 9.498 25.861 9.498l12.377 10.386c-8.905 0-18.138-3.021-25.861-9.498l-12.377-10.386ZM303.638 156.759c0-11.879 6.249-15.943 12.81-15.943l12.377 10.385c-6.561 0-12.81 4.064-12.81 15.943l-12.377-10.385ZM110.098 345.206v90.326l12.377 10.386v-90.327l-12.377-10.385ZM128.268 360.926h14.926l12.377 10.385h-14.926l-12.377-10.385Z"/><path fill="#000" d="M361.38 85.596h11.285l12.377 10.385h-11.285L361.38 85.596ZM128.268 380.383v-19.457l12.377 10.385v19.457l-12.377-10.385ZM143.194 360.926l-.001-15.72 12.378 10.385v15.72l-12.377-10.385ZM316.448 140.816c2.891 0 5.721.789 7.983 2.687l12.374 10.383c-2.262-1.897-5.09-2.685-7.98-2.685l-12.377-10.385ZM103.008 415.947c0-9.101-3.36-15.854-7.538-19.361l12.373 10.382c4.18 3.506 7.542 10.261 7.542 19.364l-12.377-10.385ZM259.897 159.885V270.55l12.377 10.385V170.271l-12.377-10.386ZM84.838 417.106c0 6.958.13 13.015 1.298 18.426l12.377 10.386c-1.168-5.412-1.298-11.468-1.298-18.426l-12.377-10.386ZM103.008 417.235v-1.288l12.377 10.385v1.289l-12.377-10.386Z"/><path fill="#000" d="M324.431 143.503c2.872 2.411 4.827 6.611 4.827 13.256l12.377 10.385c0-6.645-1.955-10.844-4.827-13.255l-12.377-10.386ZM142.934 380.383h-14.666l12.377 10.385h14.666l-12.377-10.385ZM175.052 328.07c15.622 0 30.619-8.753 35.618-25.009l12.377 10.386c-4.999 16.256-19.996 25.009-35.618 25.009l-12.377-10.386ZM86.136 435.532h18.17l12.377 10.386h-18.17l-12.377-10.386Z"/><path fill="#000" d="M104.306 435.532c-1.168-5.025-1.298-10.566-1.298-18.297l12.377 10.386c0 7.731.13 13.272 1.298 18.297l-12.377-10.386ZM186.693 345.206h-28.424l12.377 10.385h28.424l-12.377-10.385ZM243.789 324.631V205.526l12.377 10.386v119.105l-12.377-10.386ZM210.67 303.061h2.812l12.377 10.386h-2.812l-12.377-10.386ZM128.268 396.103h14.666l12.377 10.386h-14.666l-12.377-10.386ZM142.934 396.103v-15.72l12.377 10.385v15.721l-12.377-10.386Z"/><path fill="#000" d="M128.268 419.812v-23.709l12.377 10.386v23.709l-12.377-10.386ZM213.482 303.061v21.57l12.377 10.386v-21.57l-12.377-10.386ZM373 159.885c0-20.291-6.474-35.275-17.829-44.806l12.366 10.376c11.362 9.531 17.84 24.518 17.84 44.816L373 159.885ZM158.269 345.206l-10.123 90.198 12.377 10.385 10.123-90.198-12.377-10.385ZM329.258 156.759v50.018l12.377 10.385v-50.018l-12.377-10.385ZM303.638 273.988V156.759l12.377 10.385v117.23l-12.377-10.386ZM171.637 375.873h1.298l12.377 10.385h-1.298l-12.377-10.385Z"/><path fill="#000" d="M143.583 419.812h-15.315l12.377 10.386h15.315l-12.377-10.386ZM195.612 345.206v15.72l12.377 10.385v-15.72l-12.377-10.385ZM110.098 435.532h33.485l12.377 10.386h-33.485l-12.377-10.386ZM169.69 397.392l1.947-21.519 12.377 10.385-1.947 21.519-12.377-10.385Z"/><path fill="#000" d="m172.935 375.873 1.817 21.519 12.377 10.385-1.817-21.519-12.377-10.385ZM213.482 324.631h30.307l12.377 10.386h-30.307l-12.377-10.386ZM143.583 435.532v-15.72l12.377 10.386v15.72l-12.377-10.386ZM195.612 360.926h13.239l12.377 10.385h-13.239l-12.377-10.385Z"/><path fill="#000" d="M174.752 397.392h-5.062l12.377 10.385h5.062l-12.377-10.385ZM240.389 345.206h-44.777l12.377 10.385h44.777l-12.377-10.385ZM259.897 270.55c0 20.977 6.405 36.095 17.68 45.553l12.364 10.375c-11.267-9.458-17.667-24.573-17.667-45.543l-12.377-10.385ZM168.263 413.112h7.917l12.377 10.385h-7.917l-12.377-10.385ZM196.427 435.404l-9.734-90.198 12.377 10.385 9.734 90.198-12.377-10.385ZM148.146 435.404h18.17l12.377 10.385h-18.17l-12.377-10.385Z"/><path fill="#000" d="m166.316 435.404 1.947-22.292 12.377 10.385-1.947 22.292-12.377-10.385ZM329.258 206.777H373l12.377 10.385h-43.742l-12.377-10.385Z"/><path fill="#000" d="M373 206.777v-46.892l12.377 10.386v46.891L373 206.777ZM176.18 413.112l2.076 22.292 12.377 10.385-2.076-22.292-12.377-10.385ZM227.021 360.926h13.368l12.377 10.385h-13.368l-12.377-10.385ZM240.389 360.926v-15.72l12.377 10.385v15.72l-12.377-10.385ZM329.258 223.97v50.018l12.377 10.386v-50.018l-12.377-10.386ZM373 223.97h-43.742l12.377 10.386h43.742L373 223.97ZM308.465 287.244c-2.871-2.411-4.827-6.61-4.827-13.256l12.377 10.386c0 6.645 1.956 10.845 4.827 13.255l-12.377-10.385ZM208.851 360.926v74.478l12.377 10.385v-74.478l-12.377-10.385ZM264.448 345.334h-18.17l12.377 10.386h18.17l-12.377-10.386Z"/><path fill="#000" d="M178.256 435.404h18.171l12.377 10.385h-18.171l-12.377-10.385ZM316.448 289.931c-2.889 0-5.718-.788-7.979-2.684l12.373 10.382c2.262 1.899 5.092 2.688 7.983 2.688l-12.377-10.386Z"/><path fill="#000" d="M329.258 273.988c0 11.879-6.248 15.943-12.81 15.943l12.377 10.386c6.562 0 12.81-4.064 12.81-15.943l-12.377-10.386ZM227.021 435.404v-74.478l12.377 10.385v74.478l-12.377-10.385ZM277.577 316.103c9.559 8.018 22.62 11.967 38.246 11.967l12.378 10.386c-15.627 0-28.687-3.949-38.247-11.968l-12.377-10.385ZM246.278 345.334v90.198l12.377 10.386V355.72l-12.377-10.386ZM373 270.549V223.97l12.377 10.386v46.579L373 270.549ZM294.537 344.046c-14.147 0-23.232 7.602-23.232 23.451l12.377 10.386c0-15.849 9.085-23.452 23.232-23.452l-12.377-10.385Z"/><path fill="#000" d="M208.851 435.404h18.17l12.377 10.385h-18.17l-12.377-10.385ZM264.448 435.532v-90.198l12.377 10.386v90.198l-12.377-10.386ZM310.993 349.193c-4.085-3.427-9.717-5.147-16.456-5.147l12.377 10.385c6.739 0 12.371 1.721 16.456 5.148l-12.377-10.386ZM315.823 328.07c34.681 0 57.177-19.382 57.177-57.521l12.377 10.386c0 38.139-22.496 57.521-57.176 57.521l-12.378-10.386ZM289.475 366.338c0-5.026 2.596-6.572 5.321-6.572l12.377 10.386c-2.725 0-5.321 1.546-5.321 6.571l-12.377-10.385Z"/><path fill="#000" d="M294.796 359.766c1.271 0 2.466.307 3.399 1.09l12.376 10.385c-.933-.783-2.127-1.089-3.398-1.089l-12.377-10.386ZM271.305 367.497v45.744l12.377 10.385v-45.743l-12.377-10.386Z"/><path fill="#000" d="M298.195 360.856c1.163.977 1.922 2.694 1.922 5.482l12.377 10.385c0-2.788-.758-4.505-1.922-5.481l-12.377-10.386ZM318.288 367.497c0-8.295-2.645-14.401-7.291-18.3l12.373 10.382c4.648 3.898 7.295 10.006 7.295 18.304l-12.377-10.386ZM289.475 414.529v-48.191l12.377 10.385v48.192l-12.377-10.386ZM246.278 435.532h18.17l12.377 10.386h-18.17l-12.377-10.386ZM345.096 345.334h-19.988l12.378 10.386h19.987l-12.377-10.386Z"/><path fill="#000" d="M300.117 366.338v48.191l12.377 10.386v-48.192l-12.377-10.385ZM271.305 413.241c0 8.529 2.631 14.707 7.265 18.594l12.372 10.381c-4.631-3.888-7.26-10.064-7.26-18.59l-12.377-10.385ZM291.527 420.109c-1.218-1.023-2.052-2.805-2.052-5.58l12.377 10.386c0 2.775.834 4.557 2.052 5.58l-12.377-10.386ZM318.288 413.241v-45.744l12.377 10.386v45.743l-12.377-10.385Z"/><path fill="#000" d="M294.796 421.23c-1.18 0-2.336-.339-3.267-1.12l12.375 10.385c.932.782 2.088 1.12 3.269 1.12l-12.377-10.385Z"/><path fill="#000" d="M300.117 414.529c0 4.897-2.466 6.701-5.321 6.701l12.377 10.385c2.855 0 5.321-1.804 5.321-6.7l-12.377-10.386ZM278.57 431.835c3.978 3.337 9.432 4.986 15.966 4.986l12.378 10.386c-6.534 0-11.989-1.65-15.967-4.986l-12.377-10.386ZM325.108 345.334v90.198l12.378 10.386V355.72l-12.378-10.386ZM373 345.334h-18.17l12.377 10.386h18.17L373 345.334ZM339.255 376.646h1.039l12.377 10.386h-1.039l-12.377-10.386Z"/><path fill="#000" d="M294.536 436.821c14.407 0 23.752-7.86 23.752-23.58l12.377 10.385c0 15.72-9.345 23.581-23.751 23.581l-12.378-10.386ZM358.074 404.607l-12.978-59.273 12.377 10.386 12.979 59.273-12.378-10.386Z"/><path fill="#000" d="m354.83 345.334 4.283 59.273 12.377 10.386-4.283-59.273-12.377-10.386ZM343.279 435.532l-4.024-58.886 12.377 10.386 4.024 58.886-12.377-10.386Z"/><path fill="#000" d="m340.294 376.646 12.589 58.886 12.377 10.386-12.589-58.886-12.377-10.386ZM359.113 404.607h-1.039l12.378 10.386h1.038l-12.377-10.386ZM325.108 435.532h18.171l12.377 10.386h-18.17l-12.378-10.386ZM373 435.532v-90.198l12.377 10.386v90.198L373 435.532Z"/><path fill="#000" d="M352.883 435.532H373l12.377 10.386H365.26l-12.377-10.386Z"/><path fill="#222" d="M32.05 33.511v43.624c0 2.432.748 4.115 1.864 5.052.7.588 1.544.881 2.441.881 2.676 0 5.235-2.442 5.235-7.677V62.245h-5.235V51.659h21.521V95.98H46.592v-8.027h-1.047c-1.861 6.05-7.445 9.307-13.262 9.307-3.316 0-6.756-1.125-9.632-3.537-3.984-3.342-6.887-9.153-6.887-17.868V34.674c0-14.425 8.143-21.288 20.824-21.288 5.942 0 10.956 1.555 14.623 4.63 4.229 3.548 6.665 9.119 6.665 16.658v13.03H41.59V33.51c0-2.512-.713-4.061-1.765-4.943-.847-.712-1.914-.99-3.005-.99-2.443 0-4.77 1.396-4.77 5.933ZM70.532 14.549h25.477l8.725 81.432H88.447l-1.861-20.125H79.49L77.745 95.98H61.458l9.074-81.432Zm10.237 47.114h4.537l-1.629-19.427h-1.163L80.77 61.663ZM109.6 14.665h21.173l4.769 53.513h1.164l4.653-53.513h21.056v81.433h-14.89l1.745-53.164h-1.047l-6.748 53.164h-10.818l-6.748-53.164h-1.047l1.745 53.164H109.6V14.665ZM168.843 14.665h16.287v81.433h-16.287V14.665ZM221.056 28.741h-13.378v19.544h12.68v14.076h-12.68v33.62h-16.286V14.55h29.664V28.74ZM224.927 14.665h16.287l3.839 36.296h1.047l3.838-36.296h16.403L253.545 73.53v22.569h-16.287V73.529l-12.331-58.864ZM271.252 14.665h16.286v81.433h-16.286V14.665ZM320.44 14.665h16.287v81.433h-18.032l-11.284-53.164h-.931l3.607 53.164H293.8V14.665h17.915l11.633 53.513h.931l-3.839-53.513ZM359.216 33.511v43.624c0 2.432.747 4.115 1.863 5.052.7.588 1.545.881 2.441.881 2.676 0 5.235-2.442 5.235-7.677V62.245h-5.235V51.659h21.522V95.98h-11.285v-8.027h-1.047c-1.861 6.05-7.445 9.307-13.261 9.307-3.317 0-6.757-1.125-9.633-3.537-3.983-3.342-6.886-9.153-6.886-17.868V34.674c0-14.425 8.143-21.288 20.823-21.288 5.942 0 10.956 1.555 14.623 4.63 4.229 3.548 6.666 9.119 6.666 16.658v13.03h-16.287V33.51c0-2.512-.713-4.061-1.764-4.943-.848-.712-1.915-.99-3.005-.99-2.443 0-4.77 1.396-4.77 5.933ZM15.377 116.501H59.12v167.873c0 6.916 2.012 11.289 4.927 13.736 2.091 1.756 4.647 2.52 7.258 2.52 6.249 0 11.873-4.377 11.873-16.256V116.501h43.741v164.747c0 38.138-21.871 57.208-56.239 57.208-15.527 0-28.39-3.899-37.792-11.785-11.22-9.412-17.51-24.502-17.51-45.423V116.501ZM186.804 167.144v117.23c0 6.534 2.008 11.06 5.006 13.577 1.879 1.577 4.147 2.366 6.554 2.366 7.187 0 14.06-6.565 14.06-20.632V244.36h-14.06v-28.448h57.802v119.105h-30.307v-21.57h-2.812c-4.999 16.256-19.996 25.009-35.618 25.009-8.905 0-18.138-3.021-25.861-9.498-10.704-8.978-18.505-24.598-18.505-48.023V170.271c0-38.764 21.87-57.208 55.926-57.208 15.955 0 29.418 4.176 39.265 12.436 11.364 9.533 17.912 24.505 17.912 44.772v35.012h-43.742v-38.139c0-6.751-1.916-10.915-4.741-13.286-2.276-1.91-5.141-2.657-8.069-2.657-6.561 0-12.81 3.752-12.81 15.943ZM316.015 167.144v117.23c0 6.645 1.956 10.845 4.827 13.255 2.262 1.899 5.092 2.688 7.983 2.688 6.562 0 12.81-4.064 12.81-15.943v-50.018h43.742v46.579c0 38.139-22.496 57.521-57.176 57.521-15.627 0-28.687-3.949-38.247-11.968-11.275-9.457-17.68-24.575-17.68-45.553V170.271c0-38.452 21.871-57.208 55.927-57.208 16.07 0 29.524 4.162 39.336 12.392 11.362 9.531 17.84 24.518 17.84 44.816v46.891h-43.742v-50.018c0-6.645-1.955-10.844-4.827-13.255-2.262-1.899-5.092-2.688-7.983-2.688-6.561 0-12.81 4.064-12.81 15.943ZM33.547 376.594v48.321c0 2.729.807 4.457 1.992 5.453.942.79 2.123 1.118 3.33 1.118 2.725 0 5.32-1.675 5.32-6.571v-20.617H62.36v19.199c0 15.721-9.345 23.71-23.751 23.71-6.52 0-11.965-1.643-15.94-4.977-4.651-3.901-7.292-10.119-7.292-18.733v-45.614c0-15.849 9.085-23.58 23.232-23.58 6.706 0 12.315 1.731 16.395 5.153 4.686 3.931 7.356 10.093 7.356 18.427v19.328H44.19v-20.617c0-2.729-.806-4.457-1.992-5.452-.942-.791-2.123-1.119-3.33-1.119-2.725 0-5.32 1.675-5.32 6.571ZM69.181 355.72h22.453c6.869 0 12.414 1.69 16.413 5.044 4.767 3.999 7.338 10.363 7.338 19.052v.644c0 14.432-7.008 21.905-13.368 22.55v1.288c1.955.198 3.971 1.114 5.826 2.67 4.18 3.506 7.542 10.261 7.542 19.364v1.289c0 7.731.13 13.272 1.298 18.297h-18.17c-1.168-5.412-1.298-11.468-1.298-18.426v-9.278c0-2.679-.606-4.498-1.868-5.557-.923-.775-2.198-1.143-3.843-1.143h-4.153v34.533h-18.17V355.72Zm18.17 15.72v24.354h4.153c3.894 0 5.711-2.191 5.711-6.958V378.27c0-2.716-.623-4.593-1.92-5.682-.92-.771-2.177-1.148-3.79-1.148H87.35ZM155.571 371.311h-14.926v19.457h14.666v15.721h-14.666v23.709h15.315v15.72h-33.485v-90.327h33.096v15.72ZM170.646 355.591h28.424l9.734 90.198h-18.171l-2.076-22.292h-7.917l-1.947 22.292h-18.17l10.123-90.198Zm11.421 52.186h5.062l-1.817-21.519h-1.298l-1.947 21.519ZM252.766 355.591v15.72h-13.368v74.478h-18.17v-74.478h-13.239v-15.72h44.777ZM258.655 355.72h18.17v90.198h-18.17V355.72ZM283.682 377.883c0-15.849 9.085-23.452 23.232-23.452 6.739 0 12.371 1.721 16.456 5.148 4.648 3.898 7.295 10.006 7.295 18.304v45.743c0 15.72-9.345 23.581-23.751 23.581-6.534 0-11.989-1.65-15.967-4.986-4.634-3.888-7.265-10.066-7.265-18.595v-45.743Zm18.17-1.16v48.192c0 2.775.834 4.557 2.052 5.58.932.782 2.088 1.12 3.269 1.12 2.855 0 5.321-1.804 5.321-6.7v-48.192c0-2.788-.758-4.505-1.922-5.481-.933-.784-2.128-1.09-3.399-1.09-2.725 0-5.321 1.546-5.321 6.571ZM367.207 355.72h18.17v90.198H365.26l-12.589-58.886h-1.039l4.024 58.886h-18.17V355.72h19.987l12.979 59.273h1.038l-4.283-59.273Z"/><path fill="#222" d="M24.21 3C11.53 3 3.388 9.864 3.388 24.289l12.377 10.385c0-14.425 8.143-21.288 20.824-21.288L24.21 3Z"/><path fill="#222" d="M38.834 7.63C35.166 4.556 30.153 3 24.21 3l12.377 10.386c5.942 0 10.956 1.555 14.623 4.63L38.834 7.632ZM19.674 23.125c0-4.536 2.326-5.932 4.77-5.932L36.82 27.578c-2.443 0-4.77 1.396-4.77 5.933L19.675 23.125Z"/><path fill="#222" d="M24.443 17.193c1.09 0 2.158.278 3.005.99l12.377 10.384c-.848-.71-1.915-.989-3.005-.989L24.443 17.193ZM3.387 24.289V65.47l12.377 10.386V34.674L3.387 24.29Z"/><path fill="#222" d="M27.448 18.182c1.052.883 1.765 2.431 1.765 4.943L41.59 33.511c0-2.512-.713-4.061-1.765-4.943L27.448 18.182Z"/><path fill="#222" d="M29.213 23.125v14.193L41.59 47.704V33.51L29.213 23.125ZM45.5 24.289c0-7.537-2.435-13.107-6.662-16.655L51.21 18.017c4.229 3.547 6.665 9.118 6.665 16.657L45.5 24.29Z"/><path fill="#222" d="M19.674 66.75V23.126L32.05 33.51v43.624L19.674 66.75Z"/><path fill="#222" d="M23.978 41.273V51.86l12.377 10.386V51.659L23.978 41.273ZM29.213 37.318h16.286l12.377 10.386H41.59L29.213 37.317ZM3.387 65.47c0 8.715 2.903 14.527 6.887 17.868L22.647 93.72c-3.982-3.342-6.883-9.153-6.883-17.864L3.387 65.47Z"/><path fill="#222" d="M45.5 41.273H23.977L36.355 51.66h21.521L45.5 41.273ZM23.978 51.86h5.235L41.59 62.244h-5.235L23.978 51.859ZM45.5 37.318v-13.03l12.376 10.386v13.03L45.5 37.317ZM83.632 4.163H58.155L70.532 14.55h25.477L83.632 4.163Z"/><path fill="#222" d="M29.213 51.86v13.145L41.59 75.39V62.245L29.213 51.859ZM21.537 71.802c-1.116-.937-1.863-2.621-1.863-5.052L32.05 77.135c0 2.432.747 4.115 1.863 5.052L21.537 71.802Z"/><path fill="#222" d="M23.978 72.683c-.896 0-1.74-.294-2.44-.88l12.376 10.384c.7.588 1.544.881 2.441.881L23.978 72.683ZM29.213 65.005c0 5.235-2.56 7.678-5.235 7.678l12.377 10.385c2.676 0 5.235-2.442 5.235-7.677L29.213 65.005ZM10.274 83.338c2.876 2.413 6.316 3.537 9.632 3.537l12.377 10.386c-3.316 0-6.756-1.125-9.632-3.537L10.274 83.338ZM58.155 4.163l-9.074 81.433L61.458 95.98l9.074-81.432L58.155 4.163Z"/><path fill="#222" d="M19.906 86.875c5.817 0 11.4-3.257 13.262-9.306l12.377 10.385c-1.861 6.05-7.445 9.307-13.262 9.307L19.906 86.875ZM70.137 31.85H71.3l12.377 10.386h-1.163L70.137 31.85ZM45.5 85.596V41.273L57.875 51.66V95.98L45.5 85.596Z"/><path fill="#222" d="M33.168 77.569h1.047l12.377 10.385h-1.047L33.168 77.57Z"/><path fill="#222" d="M34.215 77.569v8.027L46.592 95.98v-8.027L34.215 77.57ZM68.392 51.278l1.745-19.428 12.377 10.386-1.745 19.427-12.377-10.385Z"/><path fill="#222" d="m71.3 31.85 1.63 19.428 12.376 10.385-1.629-19.427L71.3 31.85ZM118.396 4.28H97.223L109.6 14.665h21.173L118.396 4.28ZM34.215 85.596h11.284L57.876 95.98H46.592L34.215 85.596Z"/><path fill="#222" d="M72.93 51.278h-4.538L80.77 61.663h4.537L72.93 51.278ZM46.742 106.116H3l12.377 10.385H59.12l-12.377-10.385ZM67.112 65.47h7.097l12.377 10.386H79.49L67.113 65.47ZM92.356 85.596 83.632 4.163 96.009 14.55l8.725 81.432-12.377-10.385ZM49.081 85.596h16.286L77.745 95.98H61.458L49.081 85.596Z"/><path fill="#222" d="m65.367 85.596 1.745-20.126L79.49 75.856 77.745 95.98 65.367 85.596ZM97.223 4.28v81.432L109.6 96.098V14.665L97.223 4.28ZM110.485 32.548h1.047l12.377 10.386h-1.047l-12.377-10.386Z"/><path fill="#222" d="m74.209 65.47 1.861 20.126L88.447 95.98l-1.861-20.125L74.209 65.47ZM150.038 4.28h-21.056l12.377 10.385h21.056L150.038 4.28ZM123.165 57.792 118.396 4.28l12.377 10.385 4.769 53.513-12.377-10.386Z"/><path fill="#222" d="m128.982 4.28-4.653 53.512 12.377 10.386 4.653-53.513L128.982 4.28ZM76.07 85.596h16.287l12.377 10.385H88.447L76.07 85.596ZM112.23 85.712l-1.745-53.164 12.377 10.386 1.745 53.164-12.377-10.386ZM3 106.116v164.746l12.377 10.386V116.501L3 106.116Z"/><path fill="#222" d="M135.845 32.548h1.047l12.378 10.386h-1.047l-12.378-10.386ZM111.532 32.548l6.747 53.164 12.378 10.386-6.748-53.164-12.377-10.386ZM172.753 4.28h-16.287l12.377 10.385h16.287L172.753 4.28Z"/><path fill="#222" d="M124.329 57.792h-1.164l12.377 10.386h1.164l-12.377-10.386ZM97.223 85.712h15.007l12.377 10.386H109.6L97.223 85.712ZM114.541 106.116H70.799l12.378 10.385h43.741l-12.377-10.385Z"/><path fill="#222" d="m129.098 85.712 6.747-53.164 12.378 10.386-6.748 53.164-12.377-10.386Z"/><path fill="#222" d="m136.892 32.548-1.745 53.164 12.378 10.386 1.745-53.164-12.378-10.386ZM150.038 85.712V4.28l12.377 10.385v81.433l-12.377-10.386Z"/><path fill="#222" d="M156.466 4.28v81.432l12.377 10.386V14.665L156.466 4.28ZM118.279 85.712h10.819l12.377 10.386h-10.818l-12.378-10.386ZM208.679 4.163h-29.664l12.377 10.386h29.664L208.679 4.163ZM46.742 273.988V106.116l12.377 10.385v167.873l-12.377-10.386ZM172.753 85.712V4.28l12.377 10.385v81.433l-12.377-10.386ZM135.147 85.712h14.891l12.377 10.386h-14.89l-12.378-10.386Z"/><path fill="#222" d="M179.015 4.163v81.433l12.377 10.385V14.55L179.015 4.163ZM195.301 18.356h13.378l12.377 10.385h-13.378l-12.377-10.385ZM208.679 18.356V4.163l12.377 10.386V28.74l-12.377-10.385Z"/><path fill="#222" d="M195.301 37.9V18.356l12.377 10.385v19.544L195.301 37.9ZM228.836 4.28H212.55l12.377 10.385h16.287L228.836 4.28ZM70.8 106.116v167.872l12.377 10.386V116.501l-12.378-10.385Z"/><path fill="#222" d="M207.981 37.9h-12.68l12.377 10.385h12.68L207.981 37.9ZM156.466 85.712h16.287l12.377 10.386h-16.287l-12.377-10.386ZM195.301 51.976h12.68l12.377 10.385h-12.68l-12.377-10.385Z"/><path fill="#222" d="M207.981 51.976V37.9l12.377 10.385v14.076l-12.377-10.385ZM212.55 4.28l12.331 58.864 12.377 10.385-12.331-58.864L212.55 4.28ZM253.964 4.28h-16.402l12.376 10.385h16.403L253.964 4.28ZM232.676 40.575l-3.84-36.295 12.378 10.385 3.839 36.296-12.377-10.386ZM195.301 85.596v-33.62l12.377 10.385v33.62l-12.377-10.385Z"/><path fill="#222" d="m237.562 4.28-3.84 36.295L246.1 50.961l3.838-36.296L237.562 4.28ZM3 270.862c0 20.921 6.29 36.012 17.51 45.423l12.365 10.376c-11.213-9.412-17.498-24.5-17.498-45.413L3 270.862ZM179.015 85.596h16.286l12.377 10.385h-16.286l-12.377-10.385Z"/><path fill="#222" d="M233.722 40.575h-1.046l12.377 10.386h1.047l-12.378-10.386ZM186.612 102.677c-34.056 0-55.926 18.444-55.926 57.208l12.377 10.386c0-38.764 21.87-57.208 55.926-57.208l-12.377-10.386ZM275.161 4.28h-16.286l12.377 10.385h16.286L275.161 4.28ZM114.541 270.862V106.116l12.377 10.385v164.747l-12.377-10.386Z"/><path fill="#222" d="M241.168 63.144 253.964 4.28l12.377 10.385-12.796 58.864-12.377-10.385ZM51.669 287.724c-2.915-2.446-4.927-6.819-4.927-13.736l12.377 10.386c0 6.916 2.012 11.289 4.927 13.736l-12.377-10.386ZM224.881 63.144v22.568l12.377 10.386V73.529l-12.377-10.385ZM299.338 4.28h-17.915L293.8 14.665h17.915L299.338 4.28Z"/><path fill="#222" d="M258.875 4.28v81.432l12.377 10.386V14.665L258.875 4.28ZM225.876 115.113c-9.846-8.259-23.309-12.436-39.264-12.436l12.377 10.386c15.955 0 29.418 4.176 39.265 12.436l-12.378-10.386ZM58.927 290.244c-2.61 0-5.164-.763-7.255-2.517l12.374 10.383c2.091 1.756 4.647 2.52 7.258 2.52l-12.377-10.386Z"/><path fill="#222" d="M70.8 273.988c0 11.879-5.624 16.256-11.873 16.256l12.377 10.386c6.249 0 11.873-4.377 11.873-16.256l-12.378-10.386ZM241.168 85.712V63.144l12.377 10.385v22.569l-12.377-10.386Z"/><path fill="#222" d="M224.881 85.712h16.287l12.377 10.386h-16.287l-12.377-10.386ZM174.427 156.759c0-12.192 6.249-15.943 12.81-15.943l12.377 10.385c-6.561 0-12.81 3.752-12.81 15.943l-12.377-10.385ZM20.51 316.285c9.401 7.886 22.265 11.785 37.792 11.785l12.377 10.386c-15.527 0-28.39-3.899-37.792-11.785L20.51 316.285Z"/><path fill="#222" d="M187.237 140.816c2.928 0 5.793.747 8.069 2.657l12.374 10.383c-2.275-1.908-5.139-2.655-8.066-2.655l-12.377-10.385ZM130.686 159.885V270.55l12.377 10.385V170.271l-12.377-10.386ZM275.161 85.712V4.28l12.377 10.385v81.433l-12.377-10.386ZM26.232 343.917C12.085 343.917 3 351.648 3 367.497l12.377 10.386c0-15.849 9.085-23.58 23.232-23.58l-12.377-10.386Z"/><path fill="#222" d="M281.423 4.28v81.432L293.8 96.098V14.665L281.423 4.28ZM324.35 4.28h-16.287l12.377 10.385h16.287L324.35 4.28ZM294.103 32.548h.931l12.377 10.386h-.931l-12.377-10.386ZM195.306 143.473c2.825 2.371 4.741 6.534 4.741 13.286l12.377 10.385c0-6.751-1.916-10.915-4.741-13.286l-12.377-10.385ZM42.627 349.071c-4.08-3.423-9.69-5.154-16.395-5.154l12.377 10.386c6.706 0 12.315 1.731 16.395 5.153l-12.377-10.385ZM21.17 366.209c0-4.897 2.596-6.572 5.321-6.572l12.377 10.386c-2.725 0-5.32 1.675-5.32 6.571L21.17 366.209Z"/><path fill="#222" d="M26.491 359.637c1.207 0 2.388.328 3.33 1.119l12.375 10.384c-.941-.789-2.122-1.117-3.328-1.117l-12.377-10.386ZM3 367.497v45.615l12.377 10.385v-45.614L3 367.497ZM310.971 57.792 299.338 4.28l12.377 10.385 11.633 53.513-12.377-10.386Z"/><path fill="#222" d="M29.82 360.756c1.186.995 1.993 2.724 1.993 5.453l12.377 10.385c0-2.729-.806-4.457-1.992-5.452L29.82 360.756ZM308.063 4.28l3.839 53.512 12.377 10.386-3.839-53.513L308.063 4.28ZM58.302 328.07c34.368 0 56.239-19.069 56.239-57.208l12.377 10.386c0 38.138-21.871 57.208-56.239 57.208L58.302 328.07ZM258.875 85.712h16.286l12.377 10.386h-16.286l-12.377-10.386ZM297.71 85.712l-3.607-53.164 12.377 10.386 3.607 53.164-12.377-10.386ZM49.983 367.497c0-8.331-2.668-14.492-7.351-18.422l12.372 10.381c4.686 3.931 7.356 10.093 7.356 18.427l-12.377-10.386ZM200.047 156.759v38.139l12.377 10.385v-38.139l-12.377-10.385ZM31.813 366.209v20.617l12.377 10.385v-20.617l-12.377-10.385Z"/><path fill="#222" d="M21.17 414.529v-48.32l12.377 10.385v48.321L21.17 414.529ZM243.789 159.885c0-20.26-6.543-35.228-17.901-44.762l12.366 10.376c11.364 9.533 17.912 24.505 17.912 44.772l-12.377-10.386ZM295.034 32.548l11.284 53.164 12.377 10.386-11.284-53.164-12.377-10.386ZM351.376 3c-12.68 0-20.824 6.864-20.824 21.289l12.378 10.385c0-14.425 8.143-21.288 20.823-21.288L351.376 3ZM174.427 273.988V156.759l12.377 10.385v117.23l-12.377-10.386ZM79.257 345.334H56.804l12.377 10.386h22.453l-12.377-10.386ZM311.902 57.792h-.931l12.377 10.386h.931l-12.377-10.386ZM3 413.112c0 8.614 2.64 14.831 7.291 18.732l12.372 10.381c-4.647-3.901-7.286-10.117-7.286-18.728L3 413.112ZM281.423 85.712h16.287l12.377 10.386H293.8l-12.377-10.386Z"/><path fill="#222" d="m324.349 85.712.001-81.432 12.377 10.385v81.433l-12.378-10.386ZM365.999 7.63C362.332 4.556 357.318 3 351.376 3l12.377 10.386c5.942 0 10.956 1.555 14.623 4.63L365.999 7.632ZM31.813 386.826h18.17l12.377 10.385H44.19l-12.377-10.385ZM346.839 23.125c0-4.536 2.326-5.932 4.769-5.932l12.378 10.385c-2.443 0-4.77 1.396-4.77 5.933l-12.377-10.386Z"/><path fill="#222" d="M49.983 386.826v-19.329l12.377 10.386v19.328l-12.377-10.385ZM351.608 17.193c1.091 0 2.158.278 3.006.99l12.376 10.384c-.848-.71-1.914-.989-3.004-.989l-12.378-10.385ZM330.552 24.289V65.47l12.378 10.386V34.674L330.552 24.29ZM185.987 205.526v28.448l12.377 10.386v-28.448l-12.377-10.386ZM31.813 393.912v20.617l12.377 10.386v-20.617l-12.377-10.386ZM49.983 393.912h-18.17l12.377 10.386h18.17l-12.377-10.386ZM23.162 419.982c-1.185-.996-1.992-2.724-1.992-5.453l12.377 10.386c0 2.729.807 4.457 1.992 5.453l-12.377-10.386Z"/><path fill="#222" d="M354.614 18.182c1.051.883 1.764 2.431 1.764 4.943l12.377 10.386c0-2.512-.713-4.061-1.764-4.943l-12.377-10.386ZM26.492 421.101c-1.206 0-2.387-.328-3.328-1.118l12.375 10.385c.942.79 2.123 1.118 3.33 1.118l-12.377-10.385ZM95.67 350.379c-4-3.355-9.544-5.045-16.413-5.045l12.377 10.386c6.869 0 12.414 1.69 16.413 5.044L95.67 350.379Z"/><path fill="#222" d="M31.813 414.529c0 4.897-2.596 6.572-5.321 6.572l12.376 10.385c2.726 0 5.322-1.675 5.322-6.571l-12.377-10.386ZM74.974 361.055h4.153l12.377 10.385h-4.153l-12.377-10.385ZM356.378 23.125v14.193l12.377 10.386V33.51l-12.377-10.386ZM10.291 431.844c3.976 3.335 9.421 4.977 15.94 4.977l12.378 10.386c-6.52 0-11.965-1.643-15.94-4.977L10.29 431.844ZM372.665 24.289c0-7.537-2.435-13.107-6.662-16.655l12.373 10.383c4.229 3.547 6.666 9.118 6.666 16.657L372.665 24.29Z"/><path fill="#222" d="M79.127 361.055c1.614 0 2.872.376 3.79 1.147l12.377 10.385c-.92-.771-2.176-1.147-3.79-1.147l-12.377-10.385ZM56.804 345.334v90.327l12.377 10.386V355.72l-12.377-10.386ZM346.839 66.75V23.126l12.377 10.385v43.624L346.839 66.75ZM200.047 194.898h43.742l12.377 10.385h-43.742l-12.377-10.385ZM130.686 270.55c0 23.425 7.801 39.044 18.505 48.022l12.364 10.375c-10.697-8.979-18.492-24.596-18.492-48.012l-12.377-10.385ZM306.318 85.712h18.031l12.378 10.386h-18.032l-12.377-10.386ZM243.789 205.526h-57.802l12.377 10.386h57.802l-12.377-10.386ZM74.974 385.408v-24.353l12.377 10.385v24.354l-12.377-10.386Z"/><path fill="#222" d="M49.983 413.112v-19.2l12.377 10.386v19.199l-12.377-10.385ZM185.987 233.974h14.06l12.377 10.386h-14.06l-12.377-10.386ZM82.917 362.202c1.298 1.09 1.92 2.966 1.92 5.682l12.378 10.386c0-2.716-.623-4.593-1.92-5.682l-12.378-10.386ZM351.143 41.273V51.86l12.377 10.386V51.659l-12.377-10.386ZM243.789 194.898v-35.013l12.377 10.386v35.012l-12.377-10.385Z"/><path fill="#222" d="M26.232 436.821c14.406 0 23.75-7.989 23.75-23.709l12.378 10.385c0 15.721-9.345 23.71-23.751 23.71l-12.377-10.386ZM356.378 37.318h16.287l12.377 10.386h-16.287l-12.377-10.386ZM330.552 65.47c0 8.715 2.904 14.527 6.887 17.868l12.373 10.382c-3.982-3.342-6.882-9.153-6.882-17.864L330.552 65.47Z"/><path fill="#222" d="M372.665 41.273h-21.522L363.52 51.66h21.522l-12.377-10.386ZM351.143 51.86h5.235l12.377 10.385h-5.235l-12.377-10.386ZM84.838 367.884v10.566l12.377 10.386V378.27l-12.377-10.386ZM315.823 102.677c-34.056 0-55.926 18.757-55.926 57.208l12.377 10.386c0-38.452 21.871-57.208 55.927-57.208l-12.378-10.386ZM372.665 37.318v-13.03l12.377 10.386v13.03l-12.377-10.386ZM79.127 385.408h-4.153l12.377 10.386h4.153l-12.377-10.386ZM103.008 369.43c0-8.686-2.57-15.049-7.334-19.048l12.373 10.382c4.767 3.999 7.338 10.363 7.338 19.052l-12.377-10.386Z"/><path fill="#222" d="M84.838 378.45c0 4.767-1.817 6.958-5.71 6.958l12.376 10.386c3.894 0 5.711-2.191 5.711-6.958L84.838 378.45ZM356.378 51.86v13.145l12.377 10.386V62.245l-12.377-10.386ZM348.702 71.802c-1.116-.937-1.863-2.621-1.863-5.052l12.377 10.385c0 2.432.747 4.115 1.863 5.052l-12.377-10.385Z"/><path fill="#222" d="M351.143 72.683c-.896 0-1.74-.294-2.44-.88l12.376 10.384c.7.588 1.545.881 2.441.881l-12.377-10.385ZM200.047 233.974v35.325l12.377 10.386V244.36l-12.377-10.386ZM356.378 65.005c0 5.235-2.559 7.678-5.235 7.678l12.377 10.385c2.676 0 5.235-2.442 5.235-7.677l-12.377-10.386ZM179.433 287.566c-2.998-2.518-5.006-7.043-5.006-13.578l12.377 10.386c0 6.534 2.008 11.06 5.006 13.577l-12.377-10.385ZM103.008 370.074v-.644l12.377 10.386v.644l-12.377-10.386ZM74.974 401.128h4.153l12.377 10.386h-4.153l-12.377-10.386ZM337.439 83.338c2.876 2.413 6.316 3.537 9.632 3.537l12.378 10.386c-3.317 0-6.757-1.125-9.633-3.537l-12.377-10.386ZM143.193 345.206h-33.095l12.377 10.385h33.096l-12.378-10.385Z"/><path fill="#222" d="M89.64 392.624c6.36-.644 13.368-8.118 13.368-22.55l12.377 10.386c0 14.432-7.008 21.905-13.368 22.55L89.64 392.624ZM79.127 401.128c1.645 0 2.92.368 3.843 1.143l12.376 10.385c-.923-.774-2.197-1.142-3.842-1.142l-12.377-10.386Z"/><path fill="#222" d="M89.64 393.912v-1.288l12.377 10.386v1.288L89.64 393.912ZM347.071 86.875c5.817 0 11.401-3.257 13.262-9.306l12.377 10.385c-1.861 6.05-7.445 9.307-13.261 9.307l-12.378-10.386ZM82.97 402.271c1.262 1.06 1.868 2.879 1.868 5.558l12.377 10.385c0-2.679-.606-4.498-1.868-5.557L82.97 402.271Z"/><path fill="#222" d="M95.466 396.583c-1.855-1.556-3.871-2.472-5.826-2.671l12.377 10.386c1.955.198 3.971 1.114 5.826 2.67l-12.377-10.385ZM185.987 289.931c-2.405 0-4.672-.787-6.551-2.363l12.374 10.383c1.879 1.577 4.147 2.366 6.554 2.366l-12.377-10.386ZM372.665 85.596V41.273l12.377 10.386V95.98l-12.377-10.385ZM360.333 77.569h1.047l12.377 10.385h-1.047L360.333 77.57ZM74.974 435.661v-34.533l12.377 10.386v34.533l-12.377-10.386ZM355.16 115.069c-9.812-8.23-23.266-12.392-39.337-12.392l12.378 10.386c16.07 0 29.524 4.162 39.336 12.392l-12.377-10.386Z"/><path fill="#222" d="M200.047 269.299c0 14.068-6.873 20.632-14.06 20.632l12.377 10.386c7.187 0 14.06-6.565 14.06-20.632l-12.377-10.386ZM361.38 77.569v8.027l12.377 10.385v-8.027L361.38 77.57ZM84.838 407.829v9.277l12.377 10.386v-9.278l-12.377-10.385ZM56.804 435.661h18.17l12.377 10.386h-18.17l-12.377-10.386ZM149.191 318.572c7.723 6.478 16.956 9.498 25.861 9.498l12.377 10.386c-8.905 0-18.138-3.021-25.861-9.498l-12.377-10.386ZM303.638 156.759c0-11.879 6.249-15.943 12.81-15.943l12.377 10.385c-6.561 0-12.81 4.064-12.81 15.943l-12.377-10.385ZM110.098 345.206v90.326l12.377 10.386v-90.327l-12.377-10.385ZM128.268 360.926h14.926l12.377 10.385h-14.926l-12.377-10.385Z"/><path fill="#222" d="M361.38 85.596h11.285l12.377 10.385h-11.285L361.38 85.596ZM128.268 380.383v-19.457l12.377 10.385v19.457l-12.377-10.385ZM143.194 360.926l-.001-15.72 12.378 10.385v15.72l-12.377-10.385ZM316.448 140.816c2.891 0 5.721.789 7.983 2.687l12.374 10.383c-2.262-1.897-5.09-2.685-7.98-2.685l-12.377-10.385ZM103.008 415.947c0-9.101-3.36-15.854-7.538-19.361l12.373 10.382c4.18 3.506 7.542 10.261 7.542 19.364l-12.377-10.385ZM259.897 159.885V270.55l12.377 10.385V170.271l-12.377-10.386ZM84.838 417.106c0 6.958.13 13.015 1.298 18.426l12.377 10.386c-1.168-5.412-1.298-11.468-1.298-18.426l-12.377-10.386ZM103.008 417.235v-1.288l12.377 10.385v1.289l-12.377-10.386Z"/><path fill="#222" d="M324.431 143.503c2.872 2.411 4.827 6.611 4.827 13.256l12.377 10.385c0-6.645-1.955-10.844-4.827-13.255l-12.377-10.386ZM142.934 380.383h-14.666l12.377 10.385h14.666l-12.377-10.385ZM175.052 328.07c15.622 0 30.619-8.753 35.618-25.009l12.377 10.386c-4.999 16.256-19.996 25.009-35.618 25.009l-12.377-10.386ZM86.136 435.532h18.17l12.377 10.386h-18.17l-12.377-10.386Z"/><path fill="#222" d="M104.306 435.532c-1.168-5.025-1.298-10.566-1.298-18.297l12.377 10.386c0 7.731.13 13.272 1.298 18.297l-12.377-10.386ZM186.693 345.206h-28.424l12.377 10.385h28.424l-12.377-10.385ZM243.789 324.631V205.526l12.377 10.386v119.105l-12.377-10.386ZM210.67 303.061h2.812l12.377 10.386h-2.812l-12.377-10.386ZM128.268 396.103h14.666l12.377 10.386h-14.666l-12.377-10.386ZM142.934 396.103v-15.72l12.377 10.385v15.721l-12.377-10.386Z"/><path fill="#222" d="M128.268 419.812v-23.709l12.377 10.386v23.709l-12.377-10.386ZM213.482 303.061v21.57l12.377 10.386v-21.57l-12.377-10.386ZM373 159.885c0-20.291-6.474-35.275-17.829-44.806l12.366 10.376c11.362 9.531 17.84 24.518 17.84 44.816L373 159.885ZM158.269 345.206l-10.123 90.198 12.377 10.385 10.123-90.198-12.377-10.385ZM329.258 156.759v50.018l12.377 10.385v-50.018l-12.377-10.385ZM303.638 273.988V156.759l12.377 10.385v117.23l-12.377-10.386ZM171.637 375.873h1.298l12.377 10.385h-1.298l-12.377-10.385Z"/><path fill="#222" d="M143.583 419.812h-15.315l12.377 10.386h15.315l-12.377-10.386ZM195.612 345.206v15.72l12.377 10.385v-15.72l-12.377-10.385ZM110.098 435.532h33.485l12.377 10.386h-33.485l-12.377-10.386ZM169.69 397.392l1.947-21.519 12.377 10.385-1.947 21.519-12.377-10.385Z"/><path fill="#222" d="m172.935 375.873 1.817 21.519 12.377 10.385-1.817-21.519-12.377-10.385ZM213.482 324.631h30.307l12.377 10.386h-30.307l-12.377-10.386ZM143.583 435.532v-15.72l12.377 10.386v15.72l-12.377-10.386ZM195.612 360.926h13.239l12.377 10.385h-13.239l-12.377-10.385Z"/><path fill="#222" d="M174.752 397.392h-5.062l12.377 10.385h5.062l-12.377-10.385ZM240.389 345.206h-44.777l12.377 10.385h44.777l-12.377-10.385ZM259.897 270.55c0 20.977 6.405 36.095 17.68 45.553l12.364 10.375c-11.267-9.458-17.667-24.573-17.667-45.543l-12.377-10.385ZM168.263 413.112h7.917l12.377 10.385h-7.917l-12.377-10.385ZM196.427 435.404l-9.734-90.198 12.377 10.385 9.734 90.198-12.377-10.385ZM148.146 435.404h18.17l12.377 10.385h-18.17l-12.377-10.385Z"/><path fill="#222" d="m166.316 435.404 1.947-22.292 12.377 10.385-1.947 22.292-12.377-10.385ZM329.258 206.777H373l12.377 10.385h-43.742l-12.377-10.385Z"/><path fill="#222" d="M373 206.777v-46.892l12.377 10.386v46.891L373 206.777ZM176.18 413.112l2.076 22.292 12.377 10.385-2.076-22.292-12.377-10.385ZM227.021 360.926h13.368l12.377 10.385h-13.368l-12.377-10.385ZM240.389 360.926v-15.72l12.377 10.385v15.72l-12.377-10.385ZM329.258 223.97v50.018l12.377 10.386v-50.018l-12.377-10.386ZM373 223.97h-43.742l12.377 10.386h43.742L373 223.97ZM308.465 287.244c-2.871-2.411-4.827-6.61-4.827-13.256l12.377 10.386c0 6.645 1.956 10.845 4.827 13.255l-12.377-10.385ZM208.851 360.926v74.478l12.377 10.385v-74.478l-12.377-10.385ZM264.448 345.334h-18.17l12.377 10.386h18.17l-12.377-10.386Z"/><path fill="#222" d="M178.256 435.404h18.171l12.377 10.385h-18.171l-12.377-10.385ZM316.448 289.931c-2.889 0-5.718-.788-7.979-2.684l12.373 10.382c2.262 1.899 5.092 2.688 7.983 2.688l-12.377-10.386Z"/><path fill="#222" d="M329.258 273.988c0 11.879-6.248 15.943-12.81 15.943l12.377 10.386c6.562 0 12.81-4.064 12.81-15.943l-12.377-10.386ZM227.021 435.404v-74.478l12.377 10.385v74.478l-12.377-10.385ZM277.577 316.103c9.559 8.018 22.62 11.967 38.246 11.967l12.378 10.386c-15.627 0-28.687-3.949-38.247-11.968l-12.377-10.385ZM246.278 345.334v90.198l12.377 10.386V355.72l-12.377-10.386ZM373 270.549V223.97l12.377 10.386v46.579L373 270.549ZM294.537 344.046c-14.147 0-23.232 7.602-23.232 23.451l12.377 10.386c0-15.849 9.085-23.452 23.232-23.452l-12.377-10.385Z"/><path fill="#222" d="M208.851 435.404h18.17l12.377 10.385h-18.17l-12.377-10.385ZM264.448 435.532v-90.198l12.377 10.386v90.198l-12.377-10.386ZM310.993 349.193c-4.085-3.427-9.717-5.147-16.456-5.147l12.377 10.385c6.739 0 12.371 1.721 16.456 5.148l-12.377-10.386ZM315.823 328.07c34.681 0 57.177-19.382 57.177-57.521l12.377 10.386c0 38.139-22.496 57.521-57.176 57.521l-12.378-10.386ZM289.475 366.338c0-5.026 2.596-6.572 5.321-6.572l12.377 10.386c-2.725 0-5.321 1.546-5.321 6.571l-12.377-10.385Z"/><path fill="#222" d="M294.796 359.766c1.271 0 2.466.307 3.399 1.09l12.376 10.385c-.933-.783-2.127-1.089-3.398-1.089l-12.377-10.386ZM271.305 367.497v45.744l12.377 10.385v-45.743l-12.377-10.386Z"/><path fill="#222" d="M298.195 360.856c1.163.977 1.922 2.694 1.922 5.482l12.377 10.385c0-2.788-.758-4.505-1.922-5.481l-12.377-10.386ZM318.288 367.497c0-8.295-2.645-14.401-7.291-18.3l12.373 10.382c4.648 3.898 7.295 10.006 7.295 18.304l-12.377-10.386ZM289.475 414.529v-48.191l12.377 10.385v48.192l-12.377-10.386ZM246.278 435.532h18.17l12.377 10.386h-18.17l-12.377-10.386ZM345.096 345.334h-19.988l12.378 10.386h19.987l-12.377-10.386Z"/><path fill="#222" d="M300.117 366.338v48.191l12.377 10.386v-48.192l-12.377-10.385ZM271.305 413.241c0 8.529 2.631 14.707 7.265 18.594l12.372 10.381c-4.631-3.888-7.26-10.064-7.26-18.59l-12.377-10.385ZM291.527 420.109c-1.218-1.023-2.052-2.805-2.052-5.58l12.377 10.386c0 2.775.834 4.557 2.052 5.58l-12.377-10.386ZM318.288 413.241v-45.744l12.377 10.386v45.743l-12.377-10.385Z"/><path fill="#222" d="M294.796 421.23c-1.18 0-2.336-.339-3.267-1.12l12.375 10.385c.932.782 2.088 1.12 3.269 1.12l-12.377-10.385Z"/><path fill="#222" d="M300.117 414.529c0 4.897-2.466 6.701-5.321 6.701l12.377 10.385c2.855 0 5.321-1.804 5.321-6.7l-12.377-10.386ZM278.57 431.835c3.978 3.337 9.432 4.986 15.966 4.986l12.378 10.386c-6.534 0-11.989-1.65-15.967-4.986l-12.377-10.386ZM325.108 345.334v90.198l12.378 10.386V355.72l-12.378-10.386ZM373 345.334h-18.17l12.377 10.386h18.17L373 345.334ZM339.255 376.646h1.039l12.377 10.386h-1.039l-12.377-10.386Z"/><path fill="#222" d="M294.536 436.821c14.407 0 23.752-7.86 23.752-23.58l12.377 10.385c0 15.72-9.345 23.581-23.751 23.581l-12.378-10.386ZM358.074 404.607l-12.978-59.273 12.377 10.386 12.979 59.273-12.378-10.386Z"/><path fill="#222" d="m354.83 345.334 4.283 59.273 12.377 10.386-4.283-59.273-12.377-10.386ZM343.279 435.532l-4.024-58.886 12.377 10.386 4.024 58.886-12.377-10.386Z"/><path fill="#222" d="m340.294 376.646 12.589 58.886 12.377 10.386-12.589-58.886-12.377-10.386ZM359.113 404.607h-1.039l12.378 10.386h1.038l-12.377-10.386ZM325.108 435.532h18.171l12.377 10.386h-18.17l-12.378-10.386ZM373 435.532v-90.198l12.377 10.386v90.198L373 435.532Z"/><path fill="#222" d="M352.883 435.532H373l12.377 10.386H365.26l-12.377-10.386Z"/><path stroke="#222" stroke-linejoin="round" stroke-width="4.039" d="M32.05 33.511v43.624m0-43.624c0-4.537 2.327-5.933 4.77-5.933m-4.77 5.933L19.675 23.125m12.377 54.01c0 2.432.747 4.115 1.863 5.052m-1.863-5.052L19.674 66.75m16.681 16.318c2.676 0 5.235-2.443 5.235-7.677m-5.235 7.677a3.741 3.741 0 0 1-2.441-.88m2.441.88L23.978 72.683M41.59 75.39V62.246m0 13.146L29.213 65.005m12.377-2.76h-5.235m5.235 0L29.213 51.859m7.142 10.386V51.659m0 10.586L23.978 51.859m12.377-.2h21.521m-21.521 0L23.978 41.273M57.876 51.66V95.98m0-44.322L45.5 41.273m12.377 54.708H46.592m11.284 0L45.5 85.596m1.093 10.385v-8.027m0 8.027L34.215 85.596m12.377 2.358h-1.047m1.047 0L34.215 77.57m11.33 10.385c-1.861 6.05-7.445 9.307-13.262 9.307m13.262-9.307L33.168 77.57m-.885 19.692c-3.316 0-6.756-1.125-9.632-3.537m9.632 3.537L19.906 86.875m-4.142-11.02v-41.18m0 41.18c0 8.716 2.903 14.527 6.887 17.869m-6.887-17.868L3.387 65.47m12.377 10.386c0 8.711 2.901 14.522 6.883 17.864m-6.883-59.046c0-14.425 8.143-21.288 20.824-21.288M15.764 34.674 3.387 24.29m33.2-10.903c5.943 0 10.957 1.555 14.623 4.63m-14.622-4.63L24.21 3m33.665 31.674v13.03m0-13.03c0-7.54-2.436-13.11-6.665-16.657m6.665 16.657L45.5 24.29m12.377 23.414H41.59m16.286 0L45.5 37.319m-3.91 10.386V33.51m0 14.192L29.214 37.319m12.377-3.807c0-2.512-.713-4.061-1.765-4.943m1.765 4.943L29.213 23.125m7.607 4.453c1.09 0 2.158.278 3.005.99m-3.005-.99L24.443 17.193M36.82 27.578c1.09 0 2.157.278 3.005.989m30.707-14.018h25.477m-25.477 0L61.458 95.98m9.074-81.432L58.155 4.163M96.009 14.55l8.725 81.432M96.009 14.55 83.632 4.163m21.102 91.818H88.447m16.287 0L92.357 85.596m-3.91 10.385-1.861-20.125m1.861 20.125L76.07 85.596m10.516-9.74H79.49m7.096 0L74.209 65.47m5.28 10.386L77.746 95.98m1.745-20.125L67.113 65.47m10.632 30.511H61.458m16.287 0L65.367 85.596M61.458 95.98 49.081 85.596m31.688-23.933h4.537m-4.537 0 1.745-19.427M80.77 61.663 68.392 51.278m16.914 10.385-1.629-19.427m1.63 19.427L72.928 51.278m10.748-9.042h-1.163m1.163 0L71.3 31.85m11.214 10.386L70.137 31.85M109.6 14.665h21.173m-21.173 0v81.433m0-81.433L97.223 4.28m33.55 10.385 4.769 53.513m-4.769-53.513L118.396 4.28m17.146 63.898h1.164m-1.164 0-12.377-10.386m13.541 10.386 4.653-53.513m-4.653 53.513-12.377-10.386m17.03-43.127h21.056m-21.056 0L128.982 4.28m33.433 10.385v81.433m0-81.433L150.038 4.28m12.377 91.818h-14.89m14.89 0-12.377-10.386m-2.513 10.386 1.745-53.164m-1.745 53.164-12.378-10.386m14.123-42.778h-1.047m1.047 0-12.378-10.386m11.331 10.386-6.748 53.164m6.748-53.164-12.378-10.386m5.63 63.55h-10.818m10.818 0-12.377-10.386m1.559 10.386-6.748-53.164m6.748 53.164-12.378-10.386m5.63-42.778h-1.047m1.047 0-12.377-10.386m11.33 10.386 1.745 53.164m-1.745-53.164-12.377-10.386m14.122 63.55H109.6m15.007 0L112.23 85.712m-2.63 10.386L97.223 85.712m71.62-71.047h16.287m-16.287 0v81.433m0-81.433L156.466 4.28m28.664 10.385v81.433m0-81.433L172.753 4.28m12.377 91.818h-16.287m16.287 0-12.377-10.386m-3.91 10.386-12.377-10.386m64.59-56.97h-13.378m13.378 0V14.548m0 14.192-12.377-10.385m-1.001 10.385v19.544m0-19.544-12.377-10.385m12.377 29.93h12.68m-12.68 0L195.301 37.9m25.057 10.385v14.076m0-14.076L207.981 37.9m12.377 24.461h-12.68m12.68 0-12.377-10.385m-.303 10.385v33.62m0-33.62-12.377-10.385m12.377 44.005h-16.286m16.286 0-12.377-10.385m-3.909 10.385V14.55m0 81.432-12.377-10.385m12.377-71.047h29.664m-29.664 0L179.015 4.163m42.041 10.386L208.679 4.163m16.248 10.502h16.287m-16.287 0 12.331 58.864m-12.331-58.864L212.55 4.28m28.664 10.385 3.839 36.296m-3.839-36.296L228.836 4.28m16.217 46.68h1.047m-1.047 0-12.377-10.385M246.1 50.961l3.838-36.296M246.1 50.961l-12.378-10.386m16.216-25.91h16.403m-16.403 0L237.562 4.28m28.779 10.385L253.545 73.53m12.796-58.864L253.964 4.28m-.419 69.25v22.568m0-22.569-12.377-10.385m12.377 32.954h-16.287m16.287 0-12.377-10.386m-3.91 10.386V73.529m0 22.569-12.377-10.386m12.377-12.183-12.377-10.385m46.371-48.479h16.286m-16.286 0v81.433m0-81.433L258.875 4.28m28.663 10.385v81.433m0-81.433L275.161 4.28m12.377 91.818h-16.286m16.286 0-12.377-10.386m-3.909 10.386-12.377-10.386m61.565-71.047h16.287m-16.287 0 3.839 53.513m-3.839-53.513L308.063 4.28m28.664 10.385v81.433m0-81.433L324.35 4.28m12.377 91.818h-18.032m18.032 0-12.378-10.386m-5.654 10.386-11.284-53.164m11.284 53.164-12.377-10.386m1.093-42.778h-.931m.931 0-12.377-10.386m11.446 10.386 3.607 53.164m-3.607-53.164-12.377-10.386m15.984 63.55H293.8m16.287 0L297.71 85.712m-3.91 10.386V14.665m0 81.433-12.377-10.386M293.8 14.665h17.915m-17.915 0L281.423 4.28m30.292 10.385 11.633 53.513m-11.633-53.513L299.338 4.28m24.01 63.898h.931m-.931 0-12.377-10.386m13.308 10.386-12.377-10.386m47.314-24.281v43.624m0-43.624c0-4.537 2.327-5.933 4.77-5.933m-4.77 5.933-12.377-10.386m12.377 54.01c0 2.432.747 4.115 1.863 5.052m-1.863-5.052L346.839 66.75m16.681 16.318c2.676 0 5.235-2.443 5.235-7.677m-5.235 7.677a3.743 3.743 0 0 1-2.441-.88m2.441.88-12.377-10.385m17.612 2.707V62.246m0 13.146-12.377-10.386m12.377-2.76h-5.235m5.235 0-12.377-10.386m7.142 10.386V51.659m0 10.586-12.377-10.386m12.377-.2h21.522m-21.522 0-12.377-10.386m33.899 10.386V95.98m0-44.322-12.377-10.386m12.377 54.708h-11.285m11.285 0-12.377-10.385m1.092 10.385v-8.027m0 8.027L361.38 85.596m12.377 2.358h-1.047m1.047 0L361.38 77.57m11.33 10.385c-1.861 6.05-7.445 9.307-13.261 9.307m13.261-9.307L360.333 77.57m-.884 19.692c-3.317 0-6.757-1.125-9.633-3.537m9.633 3.537-12.378-10.386m-4.142-11.02v-41.18m0 41.18c0 8.716 2.904 14.527 6.887 17.869m-6.887-17.868L330.552 65.47m12.377 10.386c0 8.711 2.901 14.522 6.883 17.864m-6.883-59.046c0-14.425 8.144-21.288 20.824-21.288m-20.824 21.288L330.552 24.29m33.201-10.903c5.942 0 10.956 1.555 14.623 4.63m-14.623-4.63L351.376 3m33.666 31.674v13.03m0-13.03c0-7.54-2.437-13.11-6.666-16.657m6.666 16.657L372.665 24.29m12.377 23.414h-16.287m16.287 0-12.377-10.385m-3.91 10.386V33.51m0 14.192-12.377-10.385m12.377-3.807c0-2.512-.713-4.061-1.764-4.943m1.764 4.943-12.377-10.386m7.608 4.453c1.09 0 2.157.278 3.005.99m-3.005-.99-12.378-10.385m12.378 10.385c1.09 0 2.156.278 3.004.989M15.377 116.5H59.12m-43.742 0v164.747m0-164.747L3 106.116m56.119 10.385v167.873m0-167.873-12.377-10.385m12.377 178.258c0 6.916 2.012 11.289 4.927 13.736m-4.927-13.736-12.377-10.386m24.562 26.642c6.249 0 11.873-4.377 11.873-16.256M71.304 300.63c-2.61 0-5.167-.764-7.258-2.52m7.258 2.52-12.377-10.386m24.25-5.87V116.501m0 167.873-12.378-10.386m12.378-157.487h43.741m-43.741 0-12.378-10.385m56.119 10.385v164.747m0-164.747-12.377-10.385m12.377 175.132c0 38.138-21.871 57.208-56.239 57.208m56.239-57.208-12.377-10.386m-43.862 67.594c-15.527 0-28.39-3.899-37.792-11.785m37.792 11.785L58.302 328.07m-42.925-46.822c0 20.921 6.29 36.011 17.51 45.423m-17.51-45.423L3 270.862m12.377 10.386c0 20.913 6.285 36.001 17.498 45.413m153.929-159.517v117.23m0-117.23c0-12.191 6.249-15.943 12.81-15.943m-12.81 15.943-12.377-10.385m12.377 127.615c0 6.534 2.008 11.06 5.006 13.577m-5.006-13.577-12.377-10.386m23.937 26.329c7.187 0 14.06-6.565 14.06-20.632m-14.06 20.632c-2.407 0-4.675-.789-6.554-2.366m6.554 2.366-12.377-10.386m26.437-10.246V244.36m0 35.325-12.377-10.386m12.377-24.939h-14.06m14.06 0-12.377-10.386m-1.683 10.386v-28.448m0 28.448-12.377-10.386m12.377-18.062h57.802m-57.802 0-12.377-10.386m70.179 10.386v119.105m0-119.105-12.377-10.386m12.377 129.491h-30.307m30.307 0-12.377-10.386m-17.93 10.386v-21.57m0 21.57-12.377-10.386m12.377-11.184h-2.812m2.812 0-12.377-10.386m9.565 10.386c-4.999 16.256-19.996 25.009-35.618 25.009m35.618-25.009-12.377-10.386m-23.241 35.395c-8.905 0-18.138-3.021-25.861-9.498m25.861 9.498-12.377-10.386m-31.989-47.135V170.271m0 110.664c0 23.425 7.801 39.045 18.505 48.023m-18.505-48.023-12.377-10.385m12.377 10.385c0 23.416 7.795 39.033 18.492 48.012m-18.492-158.676c0-38.764 21.87-57.208 55.926-57.208m-55.926 57.208-12.377-10.386m68.303-46.822c15.955 0 29.418 4.176 39.265 12.436m-39.265-12.436-12.377-10.386m69.554 67.594v35.012m0-35.012c0-20.267-6.548-35.239-17.912-44.772m17.912 44.772-12.377-10.386m12.377 45.398h-43.742m43.742 0-12.377-10.385m-31.365 10.385v-38.139m0 38.139-12.377-10.385m12.377-27.754c0-6.751-1.916-10.915-4.741-13.286m4.741 13.286-12.377-10.385m-.433-5.558c2.928 0 5.793.747 8.069 2.657m-8.069-2.657-12.377-10.385m12.377 10.385c2.927 0 5.791.747 8.066 2.655m108.335 13.288v117.23m0-117.23c0-11.879 6.249-15.943 12.81-15.943m-12.81 15.943-12.377-10.385m12.377 127.615c0 6.645 1.956 10.845 4.827 13.255m-4.827-13.255-12.377-10.386m25.187 26.329c6.562 0 12.81-4.064 12.81-15.943m-12.81 15.943c-2.891 0-5.721-.789-7.983-2.688m7.983 2.688-12.377-10.386m25.187-5.557v-50.018m0 50.018-12.377-10.386m12.377-39.632h43.742m-43.742 0-12.377-10.386m56.119 10.386v46.579m0-46.579L373 223.97m12.377 56.965c0 38.139-22.496 57.521-57.177 57.521m57.177-57.521L373 270.549m-44.8 67.907c-15.626 0-28.686-3.949-38.246-11.968m38.246 11.968-12.377-10.386m-43.549-47.135V170.271m0 110.664c0 20.978 6.405 36.096 17.68 45.553m-17.68-45.553-12.377-10.385m12.377 10.385c0 20.97 6.4 36.085 17.667 45.543m-17.667-156.207c0-38.452 21.871-57.208 55.926-57.208m-55.926 57.208-12.377-10.386m68.303-46.822c16.071 0 29.525 4.162 39.337 12.392M328.2 113.063l-12.377-10.386m69.554 67.594v46.891m0-46.891c0-20.298-6.478-35.285-17.84-44.816m17.84 44.816L373 159.885m12.377 57.277h-43.742m43.742 0L373 206.777m-31.365 10.385v-50.018m0 50.018-12.377-10.385m12.377-39.633c0-6.645-1.955-10.844-4.827-13.255m4.827 13.255-12.377-10.385m-.433-5.558c2.891 0 5.721.789 7.983 2.688m-7.983-2.688-12.377-10.385m12.377 10.385c2.89 0 5.719.788 7.98 2.685M33.547 376.594v48.321m0-48.321c0-4.896 2.596-6.571 5.322-6.571m-5.322 6.571L21.17 366.209m12.377 58.706c0 2.729.807 4.457 1.992 5.453m-1.992-5.453L21.17 414.529m17.698 16.957c2.726 0 5.322-1.675 5.322-6.571m-5.322 6.571c-1.206 0-2.387-.328-3.329-1.118m3.33 1.118-12.377-10.385m17.698 3.814v-20.617m0 20.617-12.377-10.386m12.377-10.231h18.17m-18.17 0-12.377-10.386m30.547 10.386v19.199m0-19.199-12.377-10.386m12.377 29.585c0 15.721-9.345 23.71-23.751 23.71m23.751-23.71-12.377-10.385m-11.374 34.095c-6.52 0-11.965-1.643-15.94-4.977m15.94 4.977-12.377-10.386m-10.855-13.324v-45.614m0 45.614c0 8.614 2.64 14.832 7.292 18.733m-7.292-18.733L3 413.112m12.377 10.385c0 8.611 2.639 14.827 7.286 18.728m-7.286-64.342c0-15.849 9.085-23.58 23.232-23.58m-23.232 23.58L3 367.497m35.609-13.194c6.706 0 12.315 1.731 16.395 5.153m-16.395-5.153-12.377-10.386m36.128 33.966v19.328m0-19.328c0-8.334-2.67-14.496-7.356-18.427m7.356 18.427-12.377-10.386m12.377 29.714H44.19m18.17 0-12.377-10.385m-5.793 10.385v-20.617m0 20.617-12.377-10.385m12.377-10.232c0-2.729-.806-4.457-1.992-5.452m1.992 5.452-12.377-10.385m7.055 3.814c1.207 0 2.388.328 3.33 1.119m-3.33-1.119-12.377-10.386m12.377 10.386c1.206 0 2.387.328 3.328 1.117m26.985-15.42h22.453m-22.453 0v90.327m0-90.327-12.377-10.386m34.83 10.386c6.869 0 12.414 1.69 16.413 5.044m-16.413-5.044-12.377-10.386m36.128 34.482v.644m0-.644c0-8.689-2.571-15.053-7.338-19.052m7.338 19.052-12.377-10.386m12.377 11.03c0 14.432-7.008 21.905-13.368 22.55m13.368-22.55-12.377-10.386m-.991 32.936v1.288m0-1.288L89.64 392.624m12.377 11.674c1.955.198 3.971 1.114 5.826 2.67m-5.826-2.67L89.64 393.912m25.745 32.42v1.289m0-1.289c0-9.103-3.362-15.858-7.542-19.364m7.542 19.364-12.377-10.385m12.377 11.674c0 7.731.13 13.272 1.298 18.297m-1.298-18.297-12.377-10.386m13.675 28.683h-18.17m18.17 0-12.377-10.386m-5.793 10.386c-1.168-5.412-1.298-11.468-1.298-18.426m1.298 18.426-12.377-10.386m11.079-8.04v-9.278m0 9.278-12.377-10.386m12.377 1.108c0-2.679-.606-4.498-1.868-5.557m1.868 5.557-12.377-10.385m6.666 3.685h-4.153m4.153 0c1.645 0 2.92.368 3.843 1.143m-3.843-1.143-12.377-10.386m12.377 10.386c1.645 0 2.919.368 3.842 1.142m-7.995-1.142v34.533m0-34.533-12.377-10.386m12.377 44.919h-18.17m18.17 0-12.377-10.386m-5.793 10.386-12.377-10.386m30.547-64.221v24.354m0-24.354h4.153m-4.153 0-12.377-10.385m12.377 34.739h4.153m-4.153 0-12.377-10.386m16.53 10.386c3.894 0 5.711-2.191 5.711-6.958m-5.71 6.958-12.378-10.386m18.088 3.428V378.27m0 10.566L84.838 378.45m12.377-.18c0-2.716-.623-4.593-1.92-5.682m1.92 5.682-12.377-10.386m6.666 3.556c1.614 0 2.872.377 3.79 1.148m-3.79-1.148-12.377-10.385m12.377 10.385c1.614 0 2.87.376 3.79 1.147m60.277-1.276h-14.926m14.926 0v-15.72m0 15.72-12.377-10.385m-2.549 10.385v19.457m0-19.457-12.377-10.385m12.377 29.842h14.666m-14.666 0-12.377-10.385m27.043 10.385v15.721m0-15.721-12.377-10.385m12.377 26.106h-14.666m14.666 0-12.377-10.386m-2.289 10.386v23.709m0-23.709-12.377-10.386m12.377 34.095h15.315m-15.315 0-12.377-10.386m27.692 10.386v15.72m0-15.72-12.377-10.386m12.377 26.106h-33.485m33.485 0-12.377-10.386m-21.108 10.386v-90.327m0 90.327-12.377-10.386m12.377-79.941h33.096m-33.096 0-12.377-10.385m45.473 10.385-12.378-10.385m27.453 10.385h28.424m-28.424 0-10.123 90.198m10.123-90.198-12.377-10.385m40.801 10.385 9.734 90.198m-9.734-90.198-12.377-10.385m22.111 100.583h-18.171m18.171 0-12.377-10.385m-5.794 10.385-2.076-22.292m2.076 22.292-12.377-10.385m10.301-11.907h-7.917m7.917 0-12.377-10.385m4.46 10.385-1.947 22.292m1.947-22.292-12.377-10.385m10.43 32.677h-18.17m18.17 0-12.377-10.385m-5.793 10.385-12.377-10.385m33.921-27.627h5.062m-5.062 0 1.947-21.519m-1.947 21.519-12.377-10.385m17.439 10.385-1.817-21.519m1.817 21.519-12.377-10.385m10.56-11.134h-1.298m1.298 0-12.377-10.385m11.079 10.385-12.377-10.385m81.129-20.282v15.72m0-15.72h-44.777m44.777 0-12.377-10.385m12.377 26.105h-13.368m13.368 0-12.377-10.385m-.991 10.385v74.478m0-74.478-12.377-10.385m12.377 84.863h-18.17m18.17 0-12.377-10.385m-5.793 10.385v-74.478m0 74.478-12.377-10.385m12.377-64.093h-13.239m13.239 0-12.377-10.385m-.862 10.385v-15.72m0 15.72-12.377-10.385m12.377-5.335-12.377-10.385m63.043 10.514h18.17m-18.17 0v90.198m0-90.198-12.377-10.386m30.547 10.386v90.198m0-90.198-12.377-10.386m12.377 100.584h-18.17m18.17 0-12.377-10.386m-5.793 10.386-12.377-10.386m37.404-57.649c0-15.849 9.085-23.452 23.232-23.452m-23.232 23.452v45.743m0-45.743-12.377-10.386m35.609-13.066c6.739 0 12.371 1.721 16.456 5.148m-16.456-5.148-12.377-10.385m36.128 33.837v45.743m0-45.743c0-8.298-2.647-14.406-7.295-18.304m7.295 18.304-12.377-10.386m12.377 56.129c0 15.72-9.345 23.581-23.751 23.581m23.751-23.581-12.377-10.385m-11.374 33.966c-6.534 0-11.989-1.65-15.967-4.986m15.967 4.986-12.378-10.386m-10.854-13.195c0 8.529 2.631 14.707 7.265 18.595m-7.265-18.595-12.377-10.385m12.377 10.385c0 8.526 2.629 14.702 7.26 18.59m10.91-65.493v48.192m0-48.192c0-5.025 2.596-6.571 5.321-6.571m-5.321 6.571-12.377-10.385m12.377 58.577c0 2.775.834 4.557 2.052 5.58m-2.052-5.58-12.377-10.386m17.698 17.086c2.855 0 5.321-1.804 5.321-6.7m-5.321 6.7c-1.181 0-2.337-.338-3.269-1.12m3.269 1.12-12.377-10.385m17.698 3.685v-48.192m0 48.192-12.377-10.386m12.377-37.806c0-2.788-.758-4.505-1.922-5.481m1.922 5.481-12.377-10.385m7.056 3.814c1.271 0 2.466.306 3.399 1.09m-3.399-1.09-12.377-10.386m12.377 10.386c1.271 0 2.465.306 3.398 1.089m56.636-15.521h18.17m-18.17 0 4.283 59.273m-4.283-59.273-12.377-10.386m30.547 10.386v90.198m0-90.198L373 345.334m12.377 100.584H365.26m20.117 0L373 435.532m-7.74 10.386-12.589-58.886m12.589 58.886-12.377-10.386m-.212-48.5h-1.039m1.039 0-12.377-10.386m11.338 10.386 4.024 58.886m-4.024-58.886-12.377-10.386m16.401 69.272h-18.17m18.17 0-12.377-10.386m-5.793 10.386V355.72m0 90.198-12.378-10.386m12.378-79.812h19.987m-19.987 0-12.378-10.386m32.365 10.386 12.979 59.273m-12.979-59.273-12.377-10.386m25.356 69.659h1.038m-1.038 0-12.378-10.386m13.416 10.386-12.377-10.386m-325.2-322.42L21.538 71.802m12.377 10.385L21.538 71.803m1.113 21.92c-.002 0-.003-.002-.005-.003m.005.004L10.274 83.338m40.937-65.321L38.834 7.63M51.21 18.017 38.838 7.634m.987 20.934v-.001m0 0L27.448 18.183M361.08 82.187l-12.377-10.385m12.377 10.385-12.376-10.384m1.113 21.92-.004-.003m.004.004-12.377-10.386m40.937-65.321L365.999 7.63m12.377 10.386L366.003 7.634m.988 20.934-.001-.001m.001 0-12.377-10.385M64.046 298.11l-12.377-10.386m12.377 10.386-12.374-10.383m-18.785 38.944-.012-.01m.012.01L20.51 316.285m171.3-18.334-12.377-10.385m12.377 10.385-12.374-10.383m-17.868 41.39-.013-.011m.013.011-12.377-10.386m89.063-193.073-12.378-10.386m12.378 10.386-12.366-10.376m-18.205 38.735-.003-.002m.003.002-12.377-10.385m125.536 154.156-12.377-10.385m12.377 10.385-12.373-10.382m-18.515 39.241-.013-.01m.013.01-12.377-10.385m89.96-190.648-12.377-10.386m12.377 10.386-12.366-10.376m-18.363 38.81-.003-.003m.003.003-12.377-10.386M35.539 430.368l-12.377-10.386m12.377 10.386-12.375-10.385m-.495 22.247-.006-.005m.006.005L10.29 431.844m44.713-72.388-12.377-10.385m12.377 10.385-12.372-10.381m-.434 22.067-.002-.002m.002.002L29.82 360.756m78.226.008L95.67 350.379m12.377 10.385-12.373-10.382m12.169 56.586-12.377-10.385m12.377 10.385L95.47 396.586m-.123 16.071v-.001m0 .001L82.97 402.271m12.325-29.683-.001-.001m0 .001-12.377-10.386m240.453-2.623-12.377-10.386m12.377 10.386-12.373-10.382m-20.05 93.024-.005-.005m.005.005-12.377-10.386m25.334-1.34-12.377-10.386m12.377 10.386-12.375-10.385m19.043-48.868-.001-.001m.001.001-12.377-10.386M3.387 24.289C3.387 9.864 11.53 3 24.211 3M3.387 24.289V65.47M24.211 3c5.942 0 10.956 1.555 14.623 4.63m0 0 .004.004m-14.395 9.559c-2.443 0-4.77 1.396-4.77 5.932m4.77-5.932c1.09 0 2.158.278 3.005.99m-7.774 4.942V66.75m7.774-48.568 12.377 10.385M27.447 18.182c1.052.883 1.765 2.431 1.765 4.943M3.387 65.47c0 8.715 2.903 14.527 6.887 17.868m18.939-60.213v14.193m0 0h16.286M38.838 7.634c4.227 3.548 6.661 9.118 6.661 16.655m0 0v13.029M19.674 66.75c0 2.431.747 4.115 1.863 5.052m2.44-19.943V41.273m0 10.586h5.236m-5.235-10.586h21.521M10.274 83.338 22.647 93.72M10.274 83.338c2.876 2.413 6.316 3.537 9.632 3.537M45.5 41.273v44.323M29.213 51.859v13.146M58.155 4.163h25.477m-25.477 0-9.074 81.433m34.55-81.433 8.725 81.433M29.213 65.005c0 5.235-2.56 7.678-5.235 7.678m-2.441-.881c.7.587 1.545.88 2.44.88m-4.07 14.193c5.816 0 11.4-3.257 13.261-9.306m15.913 8.027h16.286m-32.199-8.027h1.047M71.3 31.85h-1.163m1.163 0 1.63 19.428M70.136 31.85l-1.745 19.428M45.5 85.596H34.215m0-8.027v8.027m34.177-34.318h4.537M97.223 4.28h21.173m-21.173 0v81.432M118.396 4.28l4.769 53.512M3 106.116h43.742m-43.742 0v164.746m43.742-164.746v167.872M74.209 65.47h-7.097m7.097 0 1.861 20.126M67.113 65.47l-1.746 20.126m26.99 0H76.07m21.153.116h15.007m-.698-53.164h-1.047m1.047 0 6.747 53.164m-7.794-53.164 1.745 53.164M128.982 4.28h21.056m-21.056 0-4.653 53.512M150.038 4.28v81.432m-26.873-27.92h1.164M3 270.862c0 20.921 6.29 36.012 17.51 45.423M136.892 32.548h-1.047m1.047 0-1.745 53.164m.698-53.164-6.747 53.164m-10.819 0h10.819M156.466 4.28h16.287m-16.287 0v81.432M172.753 4.28v81.432M70.8 106.116h43.741m-43.742 0v167.872m43.742-167.872v164.746m20.606-185.15h14.891m6.428 0h16.287m6.262-81.549h29.664m-29.664 0v81.433m29.664-81.433v14.193M46.742 273.988c0 6.917 2.012 11.29 4.927 13.736M179.015 85.596h16.286m13.378-67.24h-13.378m0 0V37.9m0 0h12.68m4.569-33.62h16.286m-16.286 0 12.331 58.864m3.955-58.864 3.84 36.295M70.8 273.988c0 11.879-5.624 16.256-11.873 16.256M207.98 37.899v14.077m0 0h-12.68m0 0v33.62m29.58-22.452v22.568M237.562 4.28h16.402m-16.402 0-3.84 36.295M253.964 4.28l-12.796 58.864m-8.492-22.569h1.046M20.51 316.285l12.365 10.376M20.51 316.285c9.401 7.886 22.265 11.785 37.792 11.785m72.384-168.185c0-38.764 21.87-57.208 55.926-57.208m-55.926 57.208V270.55m55.926-167.873c15.955 0 29.418 4.177 39.264 12.436M258.875 4.28h16.286m-16.286 0v81.432M275.161 4.28v81.432m-160.62 185.15c0 38.139-21.87 57.208-56.24 57.208M241.169 63.144v22.568m-189.5 202.012.004.003M224.881 85.712h16.287M281.423 4.28h17.915m-17.915 0v81.432M299.338 4.28l11.633 53.512m-52.096 27.92h16.286m-49.285 29.401a.106.106 0 0 0 .012.01M51.672 287.727c2.091 1.754 4.646 2.517 7.255 2.517m128.31-149.428c-6.561 0-12.81 3.751-12.81 15.943m12.81-15.943c2.928 0 5.793.747 8.069 2.657m-20.879 13.286v117.229m20.879-130.515 12.374 10.383m-12.374-10.383c2.825 2.371 4.741 6.534 4.741 13.286M130.686 270.55c0 23.425 7.801 39.044 18.505 48.022M3 367.497c0-15.849 9.085-23.58 23.232-23.58M3 367.497v45.615m23.232-69.195c6.706 0 12.315 1.731 16.395 5.154M281.423 85.712h16.287M308.063 4.28h16.287m-16.287 0 3.839 53.512M324.35 4.28l-.001 81.432m-29.315-53.164h-.931m.931 0 11.284 53.164m-12.215-53.164 3.607 53.164m-97.663 71.047v38.139M42.627 349.071a.015.015 0 0 1 .005.004m-16.14 10.562c-2.726 0-5.322 1.675-5.322 6.572m5.321-6.572c1.207 0 2.388.328 3.33 1.119m-8.65 5.453v48.32m8.65-53.773 12.375 10.384m-12.375-10.384c1.185.995 1.992 2.724 1.992 5.453M3 413.112c0 8.614 2.64 14.831 7.291 18.732m300.68-374.052h.931M31.812 366.21v20.617m10.82-37.751c4.683 3.93 7.35 10.091 7.35 18.422m0 0 .001 19.329m150.064-191.928h43.742M31.813 386.826h18.17M21.17 414.529c0 2.729.806 4.457 1.992 5.453m202.726-304.859c11.358 9.534 17.901 24.502 17.901 44.762m0 0v35.013m62.529-109.186h18.031m6.203-61.423C330.552 9.864 338.696 3 351.376 3m-20.824 21.289V65.47M351.376 3c5.942 0 10.956 1.555 14.623 4.63M174.427 273.989c0 6.535 2.008 11.06 5.006 13.578M56.804 345.334h22.453m-22.453 0v90.327m22.453-90.327c6.869 0 12.413 1.69 16.413 5.045M10.29 431.844l12.372 10.381m-12.372-10.381c3.976 3.335 9.421 4.977 15.94 4.977M366 7.631l.004.003m-14.395 9.559c-2.443 0-4.769 1.396-4.769 5.932m4.769-5.932c1.091 0 2.158.278 3.006.99m-7.775 4.942V66.75m7.775-48.568 12.376 10.385m-12.376-10.385c1.051.883 1.764 2.431 1.764 4.943M330.552 65.47c0 8.715 2.904 14.527 6.887 17.868M185.987 233.974v-28.448m0 28.448h14.06m-14.06-28.448h57.802M31.813 414.529v-20.617m0 20.617c0 4.897-2.596 6.572-5.321 6.572m5.32-27.189h18.171m0 0v19.2m-26.82 6.87v.001M356.379 23.125v14.193M23.164 419.983c.941.79 2.122 1.118 3.328 1.118m69.178-70.722.004.003m-16.547 10.673h-4.153m4.153 0c1.614 0 2.872.376 3.79 1.147m-7.943-1.147v24.353m281.404-348.09h16.287M26.232 436.82c14.406 0 23.75-7.989 23.75-23.709M366.004 7.634c4.227 3.548 6.662 9.118 6.662 16.655m0 0v13.029M82.917 362.202l12.377 10.385m-12.377-10.385c1.298 1.09 1.92 2.966 1.92 5.682m-28.033 67.777h18.17M346.84 66.75c0 2.431.747 4.115 1.863 5.052m-199.511 246.77 12.364 10.375m-12.364-10.375c7.723 6.478 16.956 9.498 25.861 9.498m68.737-122.544v119.105M74.974 385.408h4.153m120.92-151.434v35.325m-115.21 98.585v10.566M351.144 51.86V41.272m0 10.586h5.235m-5.235-10.586h21.522m-35.226 42.065 12.373 10.382m-12.373-10.382c2.876 2.413 6.316 3.537 9.632 3.537m25.594-45.602v44.323m-16.287-33.737v13.146M84.838 378.45c0 4.767-1.817 6.958-5.71 6.958m180.769-225.523c0-38.451 21.87-57.208 55.926-57.208m-55.926 57.208V270.55m55.926-167.873c16.071 0 29.525 4.162 39.337 12.392M95.674 350.382c4.764 3.999 7.334 10.362 7.334 19.048m0 0v.644m253.37-305.07c0 5.236-2.559 7.679-5.235 7.679m-2.441-.881h.001m0 0c.7.587 1.544.88 2.44.88M200.047 269.3c0 14.068-6.873 20.632-14.06 20.632m-6.554-2.365.003.002m-76.428 82.506c0 14.432-7.008 21.906-13.368 22.55m-10.513 8.504h-4.153m4.153 0c1.645 0 2.92.368 3.843 1.143m-7.996-1.143v34.533M347.071 86.875c5.817 0 11.401-3.257 13.262-9.306M110.098 345.206h33.095m-33.095 0v90.326m33.095-90.326.001 15.72M89.64 392.624v1.288m-6.67 8.359 12.376 10.385M82.97 402.271c1.262 1.06 1.868 2.879 1.868 5.558m4.802-13.917c1.955.199 3.97 1.115 5.826 2.671M360.333 77.569h1.047M84.838 407.829v9.277m10.628-20.523.004.003m83.966-109.018c1.879 1.576 4.146 2.363 6.551 2.363M372.665 85.596H361.38m0-8.027v8.027m-6.22 29.473.011.01M84.838 417.106c0 6.958.13 13.015 1.298 18.426m88.916-107.462c15.622 0 30.619-8.753 35.618-25.009m105.778-162.245c-6.561 0-12.81 4.064-12.81 15.943m12.81-15.943c2.891 0 5.721.789 7.983 2.687m-20.793 13.256v117.229m-193.54 161.544h33.485m-.389-74.606h-14.926m0 0v19.457m0 0h14.666m181.497-236.88 12.374 10.383m-12.374-10.383c2.872 2.411 4.827 6.611 4.827 13.256M95.47 396.586c4.178 3.507 7.538 10.26 7.538 19.361m0 0v1.288M259.897 270.55c0 20.977 6.405 36.095 17.68 45.553M86.136 435.532h18.17m-1.298-18.297c0 7.731.13 13.272 1.298 18.297m224.952-278.773v50.018M142.934 380.383v15.72m67.736-93.042h2.812m-55.213 42.145h28.424m-28.424 0-10.123 90.198m38.547-90.198 9.734 90.198m47.362-110.773h-30.307m0-21.57v21.57m-70.548 71.472h-14.666m0 0v23.709m0 0h15.315m211.588-304.733C366.526 124.61 373 139.594 373 159.885m0 0v46.892M148.146 435.404h18.17m162.942-228.627H373m-69.362 67.211c0 6.646 1.956 10.845 4.827 13.256m-135.53 88.629h-1.298m1.298 0 1.817 21.519m-3.115-21.519-1.947 21.519m-26.107 22.42v15.72m52.029-74.606v-15.72m0 15.72h13.239m-13.239-15.72h44.777m-70.699 52.186h5.062m34.099-36.466v74.478m31.538-90.198v15.72m37.188-44.823 12.364 10.375m-12.364-10.375c9.559 8.018 22.62 11.967 38.246 11.967M176.18 413.112h-7.917m7.917 0 2.076 22.292m-9.993-22.292-1.947 22.292m30.111 0h-18.171m62.133-74.478h-13.368m0 0v74.478m102.237-161.416V223.97m0 50.018c0 11.879-6.248 15.943-12.81 15.943m12.81-65.961H373m0 0v46.579m-64.535 16.695a.014.014 0 0 1 .004.003m-99.618 148.157h18.17m19.257-90.07h18.17m-18.17 0v90.198m18.17-90.198v90.198m44.021-148.285c2.261 1.896 5.09 2.684 7.979 2.684m-.625 38.139c34.681 0 57.177-19.382 57.177-57.521M246.278 435.532h18.17m6.857-68.035c0-15.849 9.085-23.451 23.232-23.451m-23.232 23.451v45.744m23.232-69.195c6.739 0 12.371 1.72 16.456 5.147m0 0 .004.004m-16.201 10.569c-2.725 0-5.321 1.546-5.321 6.572m5.321-6.572c1.271 0 2.466.307 3.399 1.09m-8.72 5.482v48.191m8.72-53.673 12.376 10.385m-12.376-10.385c1.163.977 1.922 2.694 1.922 5.482m-28.812 46.903c0 8.529 2.631 14.707 7.265 18.594m21.547-65.497v48.191m10.88-65.332c4.646 3.899 7.291 10.005 7.291 18.3m0 0v45.744m-28.813 1.288c0 2.775.834 4.557 2.052 5.58m33.581-74.775h19.988m-19.988 0v90.198m19.988-90.198 12.978 59.273m-57.957 9.922c0 4.897-2.466 6.701-5.321 6.701m-16.226 10.605 12.372 10.381m-12.372-10.381c3.978 3.337 9.432 4.986 15.966 4.986m-3.009-16.712.002.001m26.759-6.869c0 15.72-9.345 23.58-23.752 23.58m-3.007-16.711c.931.781 2.087 1.12 3.267 1.12m30.312 14.302h18.171m11.551-90.198H373m-18.17 0 4.283 59.273M373 345.334v90.198m-32.706-58.886h-1.039m1.039 0 12.589 58.886m-13.628-58.886 4.024 58.886m14.795-30.925h1.039m-6.23 30.925H373"/><mask id="a" width="375" height="90" x=".387" y="0" fill="#000" maskUnits="userSpaceOnUse"><path fill="#fff" d="M.387 0h375v90h-375z"/><path d="M19.674 23.125V66.75c0 3.955 1.977 5.933 4.304 5.933 2.676 0 5.235-2.443 5.235-7.678V51.859h-5.235V41.273h21.521v44.323H34.215v-8.027h-1.047c-1.861 6.049-7.445 9.306-13.262 9.306-7.91 0-16.519-6.398-16.519-21.405V24.29C3.387 9.864 11.53 3 24.211 3c12.796 0 21.288 7.213 21.288 21.289v13.029H29.213V23.125c0-4.537-2.327-5.933-4.77-5.933-2.443 0-4.77 1.396-4.77 5.933ZM58.155 4.163h25.477l8.725 81.433H76.07L74.21 65.47h-7.097l-1.744 20.126H49.08l9.074-81.433Zm10.237 47.115h4.537L71.3 31.85h-1.163l-1.745 19.428ZM97.223 4.28h21.173l4.769 53.512h1.164l4.653-53.512h21.056v81.432h-14.89l1.745-53.164h-1.047l-6.748 53.164h-10.819l-6.747-53.164h-1.047l1.745 53.164H97.223V4.28ZM156.466 4.28h16.287v81.432h-16.287V4.28ZM208.679 18.356h-13.378V37.9h12.68v14.076h-12.68v33.62h-16.286V4.163h29.664v14.193ZM212.55 4.28h16.287l3.839 36.295h1.047l3.838-36.295h16.403l-12.796 58.864v22.568h-16.287V63.144L212.55 4.28ZM258.875 4.28h16.286v81.432h-16.286V4.28ZM308.063 4.28h16.287v81.432h-18.032l-11.284-53.164h-.931l3.607 53.164h-16.287V4.28h17.915l11.633 53.512h.931L308.063 4.28ZM346.839 23.125V66.75c0 3.955 1.978 5.933 4.304 5.933 2.676 0 5.235-2.443 5.235-7.678V51.859h-5.235V41.273h21.522v44.323H361.38v-8.027h-1.047c-1.861 6.049-7.445 9.306-13.261 9.306-7.911 0-16.52-6.398-16.52-21.405V24.29C330.552 9.864 338.696 3 351.376 3c12.796 0 21.289 7.213 21.289 21.289v13.029h-16.287V23.125c0-4.537-2.326-5.933-4.769-5.933s-4.77 1.396-4.77 5.933Z"/></mask><path fill="#fff" d="M19.674 23.125V66.75c0 3.955 1.977 5.933 4.304 5.933 2.676 0 5.235-2.443 5.235-7.678V51.859h-5.235V41.273h21.521v44.323H34.215v-8.027h-1.047c-1.861 6.049-7.445 9.306-13.262 9.306-7.91 0-16.519-6.398-16.519-21.405V24.29C3.387 9.864 11.53 3 24.211 3c12.796 0 21.288 7.213 21.288 21.289v13.029H29.213V23.125c0-4.537-2.327-5.933-4.77-5.933-2.443 0-4.77 1.396-4.77 5.933ZM58.155 4.163h25.477l8.725 81.433H76.07L74.21 65.47h-7.097l-1.744 20.126H49.08l9.074-81.433Zm10.237 47.115h4.537L71.3 31.85h-1.163l-1.745 19.428ZM97.223 4.28h21.173l4.769 53.512h1.164l4.653-53.512h21.056v81.432h-14.89l1.745-53.164h-1.047l-6.748 53.164h-10.819l-6.747-53.164h-1.047l1.745 53.164H97.223V4.28ZM156.466 4.28h16.287v81.432h-16.287V4.28ZM208.679 18.356h-13.378V37.9h12.68v14.076h-12.68v33.62h-16.286V4.163h29.664v14.193ZM212.55 4.28h16.287l3.839 36.295h1.047l3.838-36.295h16.403l-12.796 58.864v22.568h-16.287V63.144L212.55 4.28ZM258.875 4.28h16.286v81.432h-16.286V4.28ZM308.063 4.28h16.287v81.432h-18.032l-11.284-53.164h-.931l3.607 53.164h-16.287V4.28h17.915l11.633 53.512h.931L308.063 4.28ZM346.839 23.125V66.75c0 3.955 1.978 5.933 4.304 5.933 2.676 0 5.235-2.443 5.235-7.678V51.859h-5.235V41.273h21.522v44.323H361.38v-8.027h-1.047c-1.861 6.049-7.445 9.306-13.261 9.306-7.911 0-16.52-6.398-16.52-21.405V24.29C330.552 9.864 338.696 3 351.376 3c12.796 0 21.289 7.213 21.289 21.289v13.029h-16.287V23.125c0-4.537-2.326-5.933-4.769-5.933s-4.77 1.396-4.77 5.933Z"/><path stroke="#222" stroke-width="4.847" d="M19.674 23.125V66.75c0 3.955 1.977 5.933 4.304 5.933 2.676 0 5.235-2.443 5.235-7.678V51.859h-5.235V41.273h21.521v44.323H34.215v-8.027h-1.047c-1.861 6.049-7.445 9.306-13.262 9.306-7.91 0-16.519-6.398-16.519-21.405V24.29C3.387 9.864 11.53 3 24.211 3c12.796 0 21.288 7.213 21.288 21.289v13.029H29.213V23.125c0-4.537-2.327-5.933-4.77-5.933-2.443 0-4.77 1.396-4.77 5.933ZM58.155 4.163h25.477l8.725 81.433H76.07L74.21 65.47h-7.097l-1.744 20.126H49.08l9.074-81.433Zm10.237 47.115h4.537L71.3 31.85h-1.163l-1.745 19.428ZM97.223 4.28h21.173l4.769 53.512h1.164l4.653-53.512h21.056v81.432h-14.89l1.745-53.164h-1.047l-6.748 53.164h-10.819l-6.747-53.164h-1.047l1.745 53.164H97.223V4.28ZM156.466 4.28h16.287v81.432h-16.287V4.28ZM208.679 18.356h-13.378V37.9h12.68v14.076h-12.68v33.62h-16.286V4.163h29.664v14.193ZM212.55 4.28h16.287l3.839 36.295h1.047l3.838-36.295h16.403l-12.796 58.864v22.568h-16.287V63.144L212.55 4.28ZM258.875 4.28h16.286v81.432h-16.286V4.28ZM308.063 4.28h16.287v81.432h-18.032l-11.284-53.164h-.931l3.607 53.164h-16.287V4.28h17.915l11.633 53.512h.931L308.063 4.28ZM346.839 23.125V66.75c0 3.955 1.978 5.933 4.304 5.933 2.676 0 5.235-2.443 5.235-7.678V51.859h-5.235V41.273h21.522v44.323H361.38v-8.027h-1.047c-1.861 6.049-7.445 9.306-13.261 9.306-7.911 0-16.52-6.398-16.52-21.405V24.29C330.552 9.864 338.696 3 351.376 3c12.796 0 21.289 7.213 21.289 21.289v13.029h-16.287V23.125c0-4.537-2.326-5.933-4.769-5.933s-4.77 1.396-4.77 5.933Z" mask="url(#a)"/><path fill="url(#b)" stroke="#222" stroke-width="2.424" d="M3 104.904H1.788v165.958c0 19.444 5.376 34.096 15.238 43.883 9.86 9.785 24.033 14.537 41.276 14.537 17.401 0 31.802-4.83 41.854-14.647 10.058-9.822 15.597-24.473 15.597-43.773V104.904H69.588v169.084c0 5.764-1.366 9.511-3.306 11.799-1.92 2.265-4.526 3.245-7.355 3.245-2.834 0-5.526-.984-7.526-3.261-2.012-2.291-3.448-6.034-3.448-11.783V104.904H3Zm181.776 129.07v1.212H198.835v34.113c0 6.847-1.672 11.72-4.083 14.852-2.399 3.116-5.565 4.569-8.765 4.569-2.755 0-5.295-1.161-7.174-3.528-1.894-2.386-3.174-6.081-3.174-11.204V156.759c0-5.9 1.51-9.538 3.604-11.701 2.09-2.16 4.937-3.031 7.994-3.031 3.057 0 5.904.871 7.995 3.031 2.093 2.163 3.603 5.801 3.603 11.701v39.35H245.001V159.885c0-19.161-5.783-33.81-16.074-43.664-10.282-9.845-24.909-14.756-42.315-14.756-17.237 0-31.562 4.67-41.579 14.411-10.023 9.747-15.559 24.401-15.559 44.009v110.664c0 20.397 5.851 35.089 14.528 44.696 8.675 9.603 20.098 14.037 31.05 14.037 15.781 0 31.063-8.707 36.502-25.009h.716v21.57h32.731V204.314h-60.225v29.66Zm144.482-11.215h-1.211v51.229c0 5.734-1.506 9.382-3.611 11.591-2.101 2.206-4.954 3.141-7.988 3.141-3.033 0-5.886-.935-7.988-3.141-2.104-2.209-3.61-5.857-3.61-11.591V156.759c0-5.734 1.506-9.382 3.61-11.591 2.102-2.206 4.955-3.141 7.988-3.141 3.034 0 5.887.935 7.988 3.141 2.105 2.209 3.611 5.857 3.611 11.591v51.229h46.165v-48.103c0-19.156-5.702-33.806-15.955-43.662-10.245-9.849-24.874-14.758-42.434-14.758-17.242 0-31.566 4.751-41.581 14.53-10.02 9.784-15.557 24.436-15.557 43.89v110.664c0 19.608 5.536 34.338 15.556 44.162 10.015 9.82 24.34 14.571 41.582 14.571 17.56 0 32.19-4.909 42.436-14.798 10.252-9.897 15.953-24.625 15.953-43.935v-47.79h-44.954Z"/><path fill="#fff" stroke="#222" stroke-width="2.424" d="M31.813 392.701H30.6v21.828c0 2.241-.591 3.544-1.301 4.283-.708.737-1.69 1.077-2.809 1.077-1.118 0-2.1-.34-2.808-1.077-.71-.739-1.301-2.042-1.301-4.283v-48.32c0-2.241.591-3.544 1.3-4.283.709-.738 1.691-1.077 2.81-1.077 1.118 0 2.1.339 2.808 1.077.71.739 1.301 2.042 1.301 4.283v21.828h20.594v-20.54c0-8.041-2.416-14.286-6.849-18.513-4.423-4.219-10.694-6.279-18.114-6.279-7.286 0-13.434 1.993-17.764 6.188-4.337 4.202-6.68 10.449-6.68 18.604v45.615c0 8.217 2.341 14.496 6.678 18.715 4.33 4.213 10.48 6.206 17.766 6.206 7.42 0 13.693-2.06 18.116-6.296 4.432-4.246 6.847-10.522 6.847-18.625V392.701H31.813Zm24.99-48.578h-1.21v92.75h20.593V402.34h2.941c1.74 0 2.767.455 3.397 1.189.665.774 1.102 2.101 1.102 4.3v9.277c0 6.949.126 13.127 1.325 18.682l.207.956H105.832l-.346-1.486c-1.132-4.87-1.266-10.275-1.266-18.023v-1.288c0-6.785-1.809-12.374-4.506-16.381-2.07-3.077-4.706-5.273-7.477-6.283 6.332-2.167 11.983-10.162 11.983-23.209v-.644c0-8.202-2.235-14.578-6.588-18.899-4.35-4.32-10.638-6.408-18.375-6.408H56.804Zm86.39 18.015h1.212V343.994H108.886v92.75H144.795V418.6H129.48v-21.285h14.666V379.171H129.48v-17.033h13.713Zm15.076-18.144h-1.083l-.121 1.076-10.124 90.198-.151 1.347H167.426l.097-1.106 1.85-21.185h5.703l1.974 21.192.102 1.099h20.624l-.145-1.341-9.734-90.198-.116-1.082H158.269Zm83.332 1.212v-1.212h-47.2V362.138h13.238v74.477h20.594v-74.477h13.368V345.206Zm4.677-1.083h-1.212v92.621h20.594v-92.621h-19.382Zm108.552 0h-1.303l.094 1.299 3.579 49.526-10.921-49.873-.208-.952h-22.174v92.621H344.576l-.088-1.294-3.353-49.073 10.563 49.409.205.958h22.309v-92.621H354.83ZM79.127 384.196h-2.941v-21.93h2.941c1.719 0 2.747.475 3.385 1.24.677.811 1.114 2.18 1.114 4.378v10.566c0 2.268-.44 3.671-1.119 4.497-.638.775-1.662 1.249-3.38 1.249Zm94.307 11.984h-2.417l1.25-13.818 1.167 13.818Zm121.103-53.346c-7.281 0-13.43 1.958-17.761 6.12-4.34 4.171-6.683 10.388-6.683 18.543v45.744c0 8.155 2.342 14.401 6.679 18.603 4.33 4.196 10.479 6.189 17.765 6.189 7.414 0 13.687-2.025 18.112-6.229 4.436-4.213 6.85-10.46 6.85-18.563v-45.744c0-8.041-2.416-14.256-6.852-18.452-4.424-4.186-10.696-6.211-18.11-6.211Zm-3.85 71.695v-48.191c0-2.314.595-3.608 1.294-4.325.697-.714 1.674-1.035 2.815-1.035 1.218 0 2.184.326 2.857 1.028.681.71 1.253 2.001 1.253 4.332v48.191c0 2.257-.568 3.599-1.272 4.368-.694.758-1.668 1.121-2.838 1.121-1.094 0-2.078-.357-2.796-1.128-.722-.776-1.313-2.121-1.313-4.361Z"/><defs><linearGradient id="b" x1="95.485" x2="176.957" y1="312.988" y2="81.337" gradientUnits="userSpaceOnUse"><stop stop-color="#9CFF87"/><stop offset="1" stop-color="#1FD0E0"/></linearGradient></defs></svg>