<svg xmlns="http://www.w3.org/2000/svg" width="818" height="818" fill="none"><g filter="url(#a)"><circle cx="409" cy="409" r="388.671" stroke="url(#b)" stroke-width="6.658" transform="rotate(90 409 409)"/></g><g filter="url(#c)"><path fill="url(#d)" fill-rule="evenodd" d="M681.478 136.522c-150.486-150.485-394.47-150.485-544.956 0-150.485 150.486-150.485 394.47 0 544.956 150.486 150.485 394.47 150.485 544.956 0 150.485-150.486 150.485-394.47 0-544.956Zm-549.664-4.708c153.086-153.085 401.286-153.085 554.372 0 153.085 153.086 153.085 401.286 0 554.372-153.086 153.085-401.286 153.085-554.372 0-153.085-153.086-153.085-401.286 0-554.372Z" clip-rule="evenodd"/></g><circle cx="408.671" cy="408.671" r="388.671" stroke="url(#e)" stroke-width="6.658"/><defs><radialGradient id="b" cx="0" cy="0" r="1" gradientTransform="matrix(677.31588 -709.97281 1386.5566 1322.77856 20.33 730.302)" gradientUnits="userSpaceOnUse"><stop stop-color="#ACFFB7"/><stop offset=".448" stop-color="#0BCAFF"/><stop offset=".74" stop-color="#1F93FF"/></radialGradient><radialGradient id="d" cx="0" cy="0" r="1" gradientTransform="matrix(683.11691 -716.05354 1398.43733 1334.1128 17 733.053)" gradientUnits="userSpaceOnUse"><stop stop-color="#ACFFB7"/><stop offset=".448" stop-color="#0BCAFF"/><stop offset=".74" stop-color="#1F93FF"/></radialGradient><radialGradient id="e" cx="0" cy="0" r="1" gradientTransform="matrix(677.31588 -709.97281 1386.5566 1322.77856 20 729.972)" gradientUnits="userSpaceOnUse"><stop stop-color="#ACFFB7"/><stop offset=".448" stop-color="#0BCAFF"/><stop offset=".74" stop-color="#1F93FF"/></radialGradient><filter id="a" width="817.291" height="817.291" x=".355" y=".355" color-interpolation-filters="sRGB" filterUnits="userSpaceOnUse"><feFlood flood-opacity="0" result="BackgroundImageFix"/><feBlend in="SourceGraphic" in2="BackgroundImageFix" result="shape"/><feGaussianBlur result="effect1_foregroundBlur_11_2" stdDeviation="8.323"/></filter><filter id="c" width="800.645" height="800.645" x="8.677" y="8.677" color-interpolation-filters="sRGB" filterUnits="userSpaceOnUse"><feFlood flood-opacity="0" result="BackgroundImageFix"/><feBlend in="SourceGraphic" in2="BackgroundImageFix" result="shape"/><feGaussianBlur result="effect1_foregroundBlur_11_2" stdDeviation="4.161"/></filter></defs></svg>