<svg xmlns="http://www.w3.org/2000/svg" width="32" height="32" fill="none"><path fill="#8946EC" d="M29 4.157a3.125 3.125 0 0 0-3.117-3.095L6.102 1A3.103 3.103 0 0 0 3 4.095V24.5c0 1.706 1.393 3 3.103 3H23l-.813-2.75L29 31V4.157Zm-8.71 16.456s-.544-.65-1-1.207c1.984-.56 2.741-1.781 2.741-1.781a8.685 8.685 0 0 1-1.74.89 10.83 10.83 0 0 1-2.195.65 10.628 10.628 0 0 1-3.92-.015 11.528 11.528 0 0 1-2.224-.65 8.843 8.843 0 0 1-1.105-.513c-.046-.03-.09-.045-.136-.076-.031-.015-.046-.03-.063-.03a5.35 5.35 0 0 1-.424-.257s.727 1.194 2.65 1.767c-.455.573-1.015 1.238-1.015 1.238-3.345-.106-4.616-2.28-4.616-2.28 0-4.816 2.18-8.726 2.18-8.726 2.179-1.615 4.237-1.57 4.237-1.57l.151.181c-2.724.77-3.965 1.963-3.965 1.963s.333-.181.893-.423c1.62-.71 2.906-.89 3.437-.95a1.5 1.5 0 0 1 .258-.031 12.85 12.85 0 0 1 3.057-.03 12.6 12.6 0 0 1 4.555 1.434s-1.195-1.134-3.768-1.903l.211-.242s2.073-.045 4.238 1.573c0 0 2.18 3.91 2.18 8.726 0-.017-1.272 2.157-4.616 2.262Z"/><path fill="#8946EC" d="M13.253 13.625c-.862 0-1.544.74-1.544 1.66 0 .921.697 1.661 1.544 1.661.863 0 1.544-.74 1.544-1.66.015-.923-.681-1.661-1.544-1.661Zm5.524 0c-.863 0-1.544.74-1.544 1.66 0 .921.696 1.661 1.544 1.661.863 0 1.544-.74 1.544-1.66 0-.922-.696-1.661-1.544-1.661Z"/></svg>