<svg xmlns="http://www.w3.org/2000/svg" width="56" height="70" fill="none"><path fill="#222" d="M8.345 7.38h14.564c4.62 0 8.308 1.154 10.927 3.35 2.98 2.5 4.574 6.351 4.574 11.384v.426c0 8.603-4.344 13.032-8.687 13.543v.851c1.542.149 3.198.886 4.701 2.147 2.814 2.36 5.093 6.555 5.093 12.162v.937C39.517 61.55 33.385 67 23.08 67H8.344V7.38Zm11.923 10.39v13.543h2.47c2.726 0 3.748-1.192 3.748-4.258v-4.94c0-1.765-.338-2.937-1.145-3.614-.595-.5-1.445-.73-2.603-.73h-2.47Zm0 23.934v14.905h2.726c2.81 0 3.918-1.278 3.918-4.429v-5.962c0-1.793-.386-3.006-1.236-3.72-.644-.54-1.555-.794-2.767-.794h-2.64ZM17.69 3H3.124l5.22 4.38h14.564L17.689 3Z"/><path fill="#222" d="M28.616 6.35C25.998 4.156 22.309 3 17.689 3l5.22 4.38c4.62 0 8.308 1.154 10.927 3.35l-5.22-4.38ZM15.049 13.39h2.47l5.22 4.38h-2.47l-5.22-4.38Z"/><path fill="#222" d="M17.519 13.39c1.157 0 2.007.231 2.602.73l5.22 4.38c-.596-.5-1.446-.73-2.603-.73l-5.22-4.38ZM3.125 3v59.62L8.345 67V7.38L3.125 3ZM15.049 26.933V13.391l5.22 4.38v13.542l-5.22-4.38Z"/><path fill="#222" d="M20.121 14.12c.807.678 1.145 1.85 1.145 3.615l5.22 4.38c0-1.765-.338-2.937-1.145-3.614l-5.22-4.38Z"/><path fill="#222" d="M21.266 17.735v4.94l5.22 4.38v-4.94l-5.22-4.38ZM17.519 26.933h-2.47l5.22 4.38h2.47l-5.22-4.38Z"/><path fill="#222" d="M21.266 22.675c0 3.066-1.022 4.258-3.747 4.258l5.22 4.38c2.725 0 3.747-1.192 3.747-4.258l-5.22-4.38ZM33.19 17.735c0-5.031-1.591-8.88-4.57-11.381l5.216 4.376c2.98 2.5 4.574 6.351 4.574 11.384l-5.22-4.38ZM15.049 37.324h2.64l5.22 4.38h-2.64l-5.22-4.38ZM33.19 18.16v-.425l5.22 4.38v.425l-5.22-4.38Z"/><path fill="#222" d="M24.503 31.703c4.344-.511 8.688-4.94 8.688-13.542l5.22 4.38c0 8.602-4.345 13.03-8.688 13.542l-5.22-4.38ZM17.69 37.324c1.211 0 2.122.254 2.766.794l5.22 4.38c-.645-.54-1.556-.794-2.767-.794l-5.22-4.38ZM24.503 32.554v-.851l5.22 4.38v.851l-5.22-4.38ZM15.049 52.23V37.323l5.22 4.38v14.905l-5.22-4.38Z"/><path fill="#222" d="M20.456 38.118c.85.714 1.236 1.928 1.236 3.72l5.22 4.38c0-1.793-.386-3.006-1.236-3.72l-5.22-4.38ZM29.204 34.7c-1.503-1.26-3.159-1.997-4.701-2.146l5.22 4.38c1.542.149 3.198.886 4.701 2.147l-5.22-4.38Z"/><path fill="#222" d="M21.692 41.838V47.8l5.22 4.38v-5.962l-5.22-4.38ZM17.774 52.23H15.05l5.22 4.38h2.725l-5.22-4.38Z"/><path fill="#222" d="M21.692 47.8c0 3.152-1.107 4.43-3.918 4.43l5.22 4.38c2.81 0 3.918-1.279 3.918-4.43l-5.22-4.38ZM3.125 62.62H17.86L23.08 67H8.344l-5.22-4.38ZM34.298 46.863c0-5.604-2.278-9.799-5.09-12.16l5.216 4.378c2.814 2.36 5.093 6.555 5.093 12.162l-5.22-4.38Z"/><path fill="#222" d="M17.86 62.62c10.305 0 16.438-5.45 16.438-14.82l5.22 4.38c0 9.369-6.133 14.82-16.439 14.82l-5.22-4.38Z"/><path fill="#222" d="M34.298 47.8v-.937l5.22 4.38v.937l-5.22-4.38Z"/><path stroke="#222" stroke-linejoin="round" stroke-width="5.11" d="M8.345 7.38h14.564m-14.564 0V67m0-59.62L3.125 3m19.784 4.38c4.62 0 8.308 1.154 10.927 3.35M22.909 7.38 17.689 3M38.41 22.114v.426m0-.425c0-5.034-1.593-8.884-4.574-11.384m4.574 11.383-5.22-4.38m5.22 4.806c0 8.603-4.344 13.032-8.687 13.543M38.41 22.54l-5.22-4.38m-3.467 17.923v.851m0-.851-5.22-4.38m5.22 5.231c1.542.149 3.198.886 4.701 2.147m-4.701-2.147-5.22-4.38m15.014 18.69v.936m0-.937c0-5.607-2.28-9.802-5.093-12.162m5.093 12.162-5.22-4.38m5.22 5.317C39.517 61.55 33.385 67 23.08 67m16.438-14.82-5.22-4.38M23.08 67H8.344m14.735 0-5.22-4.38M8.345 67l-5.22-4.38m17.144-44.85v13.543m0-13.542h2.47m-2.47 0-5.22-4.38m5.22 17.922h2.47m-2.47 0-5.22-4.38m7.69 4.38c2.726 0 3.748-1.192 3.748-4.258m-3.748 4.258-5.22-4.38m8.968.122v-4.94m0 4.94-5.22-4.38m5.22-.56c0-1.765-.338-2.937-1.145-3.614m1.145 3.613-5.22-4.38m1.473.037c1.157 0 2.007.23 2.602.73m-2.603-.73-5.22-4.38m5.22 4.38c1.157 0 2.007.23 2.602.729m-5.072 23.204v14.905m0-14.905h2.64m-2.64 0-5.22-4.38m5.22 19.285h2.726m-2.726 0-5.22-4.38m7.946 4.38c2.81 0 3.918-1.278 3.918-4.429m-3.918 4.43-5.22-4.38m9.138-.05v-5.962m0 5.962-5.22-4.38m5.22-1.582c0-1.793-.386-3.006-1.236-3.72m1.236 3.72-5.22-4.38m1.217-.134c1.212 0 2.123.253 2.767.794m-2.767-.794-5.22-4.38m5.22 4.38c1.211 0 2.122.253 2.766.794m8.16-31.767-5.219-4.38m5.22 4.38L28.62 6.353m5.804 32.727-5.22-4.38m5.22 4.38-5.216-4.377M25.341 18.5V18.5m0 0-5.22-4.38m5.555 28.378-5.22-4.38M3.125 3h14.564M3.125 3v59.62M17.689 3c4.62 0 8.309 1.155 10.927 3.35m0 0a.115.115 0 0 1 .004.004M17.519 13.39h-2.47m2.47 0c1.157 0 2.007.23 2.602.73m-5.072-.73v13.542m5.072-12.812 5.22 4.379m-5.22-4.38c.807.678 1.145 1.85 1.145 3.615M3.125 62.62H17.86m-2.811-35.687h2.47m3.747-9.198v4.94m0 0c0 3.066-1.022 4.258-3.747 4.258m11.1-20.58c2.98 2.501 4.572 6.35 4.572 11.382m0 0v.426M17.688 37.324h-2.64m2.64 0c1.212 0 2.123.254 2.767.794m-5.407-.794V52.23M33.19 18.161c0 8.602-4.344 13.03-8.688 13.542m0 0v.851m-4.047 5.564 5.22 4.38m-5.22-4.38c.85.714 1.236 1.928 1.236 3.72m2.811-9.284c1.542.149 3.198.886 4.701 2.147M15.05 52.229h2.725m3.918-10.39V47.8m7.512-13.1.004.004M21.692 47.8c0 3.152-1.107 4.43-3.918 4.43m.086 10.39c10.305 0 16.438-5.45 16.438-14.82m-5.09-13.096c2.812 2.36 5.09 6.555 5.09 12.16m0 0v.936"/><path fill="#fff" stroke="#222" stroke-width="1.597" d="M3 2.481h-.798V63.7h15.533c5.287 0 9.608-1.4 12.617-4.102 3.02-2.712 4.62-6.65 4.62-11.517v-.937c0-7.887-4.38-13.288-8.82-14.742 4.186-1.393 7.712-6.132 7.712-13.96v-.426c0-4.887-1.457-8.803-4.295-11.493-2.831-2.683-6.928-4.04-12.005-4.04H3Zm14.394 23.934h-1.671V14.469h1.671c1.254 0 1.908.294 2.287.74.408.48.662 1.325.662 2.806v4.94c0 1.482-.255 2.297-.654 2.753-.374.427-1.027.707-2.295.707Zm.256 25.296h-1.927V38.403h1.841c1.29 0 2.021.311 2.458.805.457.518.747 1.407.747 2.91v5.962c0 1.517-.273 2.378-.706 2.869-.409.464-1.11.762-2.413.762Z"/><path fill="#222" d="M53.901 26.13a.448.448 0 0 0-.208-.097 15.245 15.245 0 0 1-2.13-.544c-1.55-.521-2.888-1.277-4.023-2.23-2.48-2.079-3.99-5.095-4.62-8.657a.438.438 0 0 0-.148-.265c-.237-.2-.668-.111-.735.265-1.067 6.034-4.617 10.301-10.741 11.438-.402.075-.472.567-.21.787a.45.45 0 0 0 .21.096c2.442.452 4.486 1.412 6.126 2.787 2.436 2.043 3.982 5.004 4.617 8.58.022.124.08.208.146.263a.453.453 0 0 0 .738-.263c.541-3.087 2.06-7.28 6.227-9.73 1.331-.78 2.86-1.334 4.544-1.644a.449.449 0 0 0 .207-.785Z"/><path fill="#222" d="M27.9 24.154c-.262-.22-.192-.712.21-.787l3.186 2.673c-.402.075-.472.567-.21.787L27.9 24.154Z"/><path fill="#222" d="M28.11 23.367c6.124-1.137 9.675-5.404 10.742-11.438l3.185 2.673C40.97 20.636 37.42 24.903 31.296 26.04l-3.186-2.673ZM28.11 24.25a.45.45 0 0 1-.21-.096l3.186 2.673a.45.45 0 0 0 .21.096l-3.185-2.673Z"/><path fill="#222" d="M38.852 11.929c.066-.376.497-.465.735-.265l3.185 2.673c-.237-.2-.668-.111-.735.265l-3.185-2.673Z"/><path fill="#222" d="M39.587 11.664c.073.061.128.15.148.265l3.186 2.673a.438.438 0 0 0-.148-.265l-3.186-2.673ZM34.237 27.038c-1.64-1.376-3.685-2.336-6.126-2.788l3.185 2.673c2.442.452 4.486 1.412 6.126 2.787l-3.185-2.672ZM39.735 11.93c.63 3.56 2.14 6.577 4.62 8.657l3.18 2.67c-2.476-2.08-3.985-5.095-4.614-8.655l-3.186-2.673Z"/><path fill="#222" d="M38.854 35.618c-.635-3.575-2.18-6.534-4.613-8.577l3.181 2.67c2.436 2.042 3.982 5.003 4.617 8.58l-3.185-2.673ZM44.354 20.587c1.136.952 2.474 1.707 4.024 2.229l3.186 2.673c-1.55-.521-2.889-1.277-4.024-2.23l-3.186-2.672Z"/><path fill="#222" d="M45.965 25.888c-4.167 2.448-5.686 6.642-6.228 9.729l3.186 2.673c.541-3.087 2.06-7.28 6.227-9.73l-3.185-2.672ZM48.378 22.816c.674.227 1.39.41 2.13.544l3.185 2.673a15.245 15.245 0 0 1-2.13-.544l-3.185-2.673ZM39 35.88a.429.429 0 0 1-.146-.262l3.185 2.673c.022.123.08.207.146.262L39 35.88Z"/><path fill="#222" d="M50.508 24.243c-1.684.31-3.212.863-4.543 1.645l3.185 2.673c1.331-.782 2.86-1.335 4.544-1.645l-3.186-2.673ZM39 35.88c.13.11.295.114.297.109l3.185 2.672a.453.453 0 0 1-.297-.108L39 35.88ZM39.584 35.883a.448.448 0 0 1-.288.105l3.186 2.673a.448.448 0 0 0 .288-.105l-3.186-2.673ZM39.737 35.617a.45.45 0 0 1-.153.266l3.186 2.673a.45.45 0 0 0 .153-.266l-3.186-2.673ZM50.507 23.36c.077.014.15.048.209.098L53.9 26.13a.448.448 0 0 0-.208-.098l-3.186-2.673Z"/><path fill="#222" d="M50.716 23.458c.02.016.038.035.056.055l3.185 2.673a.446.446 0 0 0-.056-.055l-3.185-2.673ZM50.772 23.513c.067.081.104.183.104.288l3.185 2.673a.449.449 0 0 0-.104-.288l-3.185-2.673Z"/><path fill="#222" d="M50.876 23.8a.45.45 0 0 1-.104.289l3.186 2.673a.449.449 0 0 0 .103-.288L50.876 23.8Z"/><path fill="#222" d="M50.772 24.089a.448.448 0 0 1-.264.154l3.186 2.673a.449.449 0 0 0 .264-.154l-3.186-2.673Z"/><path stroke="#222" stroke-linejoin="round" stroke-width="2.599" d="M53.693 26.033a15.245 15.245 0 0 1-2.13-.544m2.13.544c.077.014.149.048.208.098m-.208-.098-3.186-2.673m1.057 2.129c-1.55-.521-2.889-1.277-4.024-2.23m4.024 2.23-3.186-2.673m-5.457-8.214a.438.438 0 0 0-.148-.265m.148.265c.63 3.562 2.14 6.578 4.619 8.658m-4.62-8.658-3.185-2.673m3.186 2.673c.629 3.56 2.138 6.575 4.615 8.654m-5.499-8.654C40.97 20.636 37.42 24.903 31.296 26.04m10.741-11.438c.067-.377.498-.465.736-.265m-.736.265-3.185-2.673M31.296 26.04c-.402.075-.472.567-.21.787m.21-.787-3.186-2.673m3.186 3.556c2.442.452 4.486 1.412 6.126 2.787m-6.126-2.787a.45.45 0 0 1-.21-.096m.21.096-3.185-2.673m13.928 14.04c.022.124.08.208.146.263m-.146-.262c-.635-3.577-2.18-6.538-4.617-8.58m4.617 8.58-3.185-2.673m3.628 3.043a.448.448 0 0 0 .288-.105m-.288.105a.453.453 0 0 1-.297-.108m.297.108-3.185-2.672m3.185 2.672-3.186-2.673m3.474 2.568a.45.45 0 0 0 .153-.266m-.153.266-3.186-2.673m3.339 2.407c.541-3.087 2.06-7.28 6.227-9.73m-6.227 9.73-3.186-2.673m9.413-7.056c1.331-.782 2.86-1.335 4.544-1.645M49.15 28.56l-3.185-2.673m7.729 1.028a.449.449 0 0 0 .264-.154m-.264.154-3.186-2.673m3.45 2.519a.449.449 0 0 0 .103-.288m-.103.288-3.186-2.673m3.29 2.385a.449.449 0 0 0-.105-.288m.104.288L50.876 23.8m3.08 2.385a.446.446 0 0 0-.055-.055m.056.055-3.185-2.673m-3.232-.253-.004-.004m.004.004-3.186-2.673m-1.581-6.25Zm0 0-3.186-2.673m-8.501 15.163L27.9 24.154m9.522 5.556-3.185-2.672m3.185 2.672-3.18-2.669m7.943 11.512L39 35.88M53.9 26.13Zm0 0-3.185-2.672m-22.606-.09c-.402.074-.472.566-.21.786m.21-.787c6.124-1.137 9.675-5.404 10.742-11.438M27.9 24.154a.45.45 0 0 0 .21.096M38.853 11.93c.066-.376.497-.465.735-.265M28.111 24.25c2.441.452 4.485 1.412 6.126 2.788m5.35-15.374c.073.061.128.15.148.265m0 0c.63 3.562 2.14 6.578 4.62 8.658m-10.118 6.45.004.004m10.113-6.454 3.182 2.67m-3.182-2.67c1.136.952 2.474 1.707 4.024 2.229m-14.137 4.225c2.434 2.043 3.978 5.002 4.613 8.577m0 0c.022.123.08.207.146.262m9.378-13.064c.674.227 1.39.41 2.13.544m-10.77 12.257c.54-3.087 2.06-7.28 6.227-9.73m-6.228 9.73a.45.45 0 0 1-.153.266m6.38-9.995c1.332-.782 2.86-1.335 4.544-1.645m0-.883c.076.014.148.048.208.098M39 35.88Zm0 0c.13.11.295.114.297.109m11.211-11.746a.448.448 0 0 0 .264-.154m-11.475 11.9a.448.448 0 0 0 .287-.106m11.132-12.425c.02.016.038.035.056.055m0 0a.45.45 0 0 1 .104.288m0 0a.45.45 0 0 1-.104.288"/><mask id="a" width="27" height="28" x="25.745" y="9.56" fill="#000" maskUnits="userSpaceOnUse"><path fill="#fff" d="M25.745 9.56h27v28h-27z"/><path d="M50.507 23.36a15.218 15.218 0 0 1-2.129-.544c-4.935-1.66-7.725-5.694-8.643-10.887-.087-.492-.796-.492-.883 0-1.067 6.034-4.618 10.301-10.742 11.438-.487.09-.486.793 0 .883 6.068 1.123 9.68 5.382 10.744 11.368.067.377.465.379.442.37a.448.448 0 0 0 .441-.371c.542-3.087 2.061-7.28 6.228-9.73 1.33-.78 2.86-1.334 4.543-1.644a.448.448 0 0 0 0-.883Z"/></mask><path fill="#FFD02A" d="M50.507 23.36a15.218 15.218 0 0 1-2.129-.544c-4.935-1.66-7.725-5.694-8.643-10.887-.087-.492-.796-.492-.883 0-1.067 6.034-4.618 10.301-10.742 11.438-.487.09-.486.793 0 .883 6.068 1.123 9.68 5.382 10.744 11.368.067.377.465.379.442.37a.448.448 0 0 0 .441-.371c.542-3.087 2.061-7.28 6.228-9.73 1.33-.78 2.86-1.334 4.543-1.644a.448.448 0 0 0 0-.883Z"/><path fill="#222" d="m50.507 23.36-.232 1.278.232-1.278Zm-2.129-.544.415-1.232-.415 1.232Zm-8.643-10.887 1.28-.226-1.28.226Zm-.883 0-1.28-.227 1.28.227ZM28.11 23.367l.238 1.278-.238-1.278Zm0 .883-.236 1.278.237-1.278Zm10.744 11.368 1.28-.227-1.28.227Zm.442.37-.002-1.3a1.3 1.3 0 0 0-.465 2.513l.467-1.213Zm.441-.371 1.28.225-1.28-.225Zm6.228-9.73-.658-1.12.658 1.12Zm4.543-1.644-.234-1.278h-.001l.235 1.278Zm.231-2.162a13.941 13.941 0 0 1-1.946-.497l-.829 2.464c.736.247 1.513.446 2.31.59l.465-2.557Zm-1.946-.497c-4.382-1.474-6.922-5.038-7.778-9.881l-2.56.452c.98 5.543 4.02 10.046 9.509 11.893l.829-2.464Zm-7.778-9.882c-.34-1.921-3.102-1.923-3.443 0l2.56.454c-.167.939-1.51.938-1.676 0l2.559-.454Zm-3.443 0c-.5 2.828-1.567 5.162-3.156 6.908-1.58 1.737-3.737 2.959-6.543 3.48l.475 2.555c3.317-.616 5.998-2.096 7.99-4.286 1.985-2.18 3.226-4.997 3.793-8.204l-2.559-.452ZM27.873 22.09c-1.904.353-1.903 3.085.001 3.438l.473-2.556c.93.172.93 1.5 0 1.673l-.474-2.555Zm.001 3.438c5.457 1.01 8.717 4.782 9.7 10.317l2.56-.454c-1.144-6.437-5.109-11.183-11.787-12.419l-.473 2.556Zm9.7 10.317a1.724 1.724 0 0 0 1.008 1.29 1.82 1.82 0 0 0 .711.155c.013 0 .136.001.284-.032a1.3 1.3 0 0 0 .938-.816c.285-.766-.214-1.304-.373-1.44-.17-.146-.336-.21-.379-.226L38.83 37.2a1.295 1.295 0 0 1-.73-.709 1.3 1.3 0 0 1 .915-1.771c.144-.032.262-.03.265-.03.067 0 .116.005.144.009a.78.78 0 0 1 .212.06c.19.084.439.296.498.63l-2.559.455Zm1.724 1.443c.41 0 .808-.146 1.123-.41l-1.673-1.99a.851.851 0 0 1 .546-.2l.004 2.6Zm1.123-.41a1.75 1.75 0 0 0 .596-1.036l-2.56-.45a.851.851 0 0 1 .29-.504l1.674 1.99Zm.596-1.037c.512-2.916 1.913-6.663 5.606-8.833l-1.317-2.24c-4.64 2.726-6.277 7.367-6.848 10.624l2.56.45Zm5.606-8.833c1.187-.697 2.57-1.202 4.12-1.487l-.47-2.556c-1.817.334-3.49.936-4.966 1.802l1.316 2.241Zm4.12-1.487a1.748 1.748 0 0 0 1.028-.601l-1.998-1.663a.85.85 0 0 1 .501-.292l.468 2.556Zm1.028-.601c.262-.315.405-.711.404-1.12l-2.598.002c0-.199.069-.392.196-.545l1.998 1.663Zm.404-1.12c0-.41-.144-.806-.407-1.12l-1.993 1.667a.85.85 0 0 1-.198-.545l2.598-.003Zm-.407-1.12a1.748 1.748 0 0 0-1.03-.599l-.462 2.558a.852.852 0 0 1-.502-.292l1.994-1.667Z" mask="url(#a)"/><circle cx="54.255" cy="26.114" r="1.04" fill="#222"/></svg>