<svg width="32" height="32" viewBox="0 0 32 32" fill="none" xmlns="http://www.w3.org/2000/svg">
<g clip-path="url(#clip0_178_1440)">
<path d="M29.8132 2.6054L0.816116 13.8264C0.798864 13.833 0.78214 13.841 0.766087 13.8501C0.530949 13.9833 -1.11002 14.9871 1.20384 15.887L1.22761 15.8957L8.13229 18.1264C8.18497 18.1435 8.24075 18.1489 8.29573 18.1422C8.35071 18.1355 8.40357 18.1169 8.4506 18.0876L25.5763 7.4026C25.6183 7.37639 25.665 7.35875 25.7139 7.35069C25.9521 7.31129 26.6382 7.2375 26.2042 7.78845C25.7132 8.41382 14.0157 18.8962 12.7175 20.0588C12.6426 20.126 12.5963 20.2193 12.588 20.3196L12.0214 27.0735C12.0214 27.1423 12.0373 27.2102 12.0681 27.2717C12.0988 27.3333 12.1434 27.3868 12.1984 27.4281C12.2765 27.4773 12.3683 27.5001 12.4603 27.4931C12.5523 27.4861 12.6396 27.4497 12.7094 27.3893L16.8118 23.7228C16.8766 23.6649 16.9592 23.6309 17.046 23.6265C17.1328 23.622 17.2185 23.6474 17.2889 23.6984L24.4462 28.8952L24.4694 28.9109C24.6426 29.0178 26.5137 30.1066 27.054 27.6751L31.9944 4.1832C32.0013 4.10879 32.0682 3.29081 31.4835 2.8074C30.8694 2.3021 30.0001 2.55725 29.8694 2.58477C29.8502 2.59013 29.8313 2.59703 29.8132 2.6054Z" fill="white"/>
</g>
<defs>
<clipPath id="clip0_178_1440">
<rect width="32" height="32" fill="white"/>
</clipPath>
</defs>
</svg>
