<svg xmlns="http://www.w3.org/2000/svg" width="171" height="168" fill="none"><path fill="url(#a)" d="M129.201 20.405c23.03 13.291 38.529 38.172 38.529 66.672 0 42.483-34.439 76.923-76.923 76.923-13.983 0-27.094-3.731-38.393-10.252-23.03-13.29-38.53-38.171-38.53-66.671 0-42.483 34.44-76.923 76.923-76.923 13.983 0 27.095 3.73 38.394 10.252Z"/><path fill="url(#b)" d="M80.148 4C37.665 4 3.225 38.44 3.225 80.923l10.66 6.154c0-42.483 34.439-76.923 76.922-76.923L80.148 4Z"/><path fill="url(#c)" d="M3.225 80.923c0 28.501 15.5 53.381 38.53 66.671l10.634 6.14c-23.016-13.294-38.505-38.167-38.505-66.657L3.225 80.923Z"/><path fill="url(#d)" d="M118.542 14.252C107.243 7.73 94.132 4 80.148 4l10.66 6.154c13.982 0 27.094 3.73 38.393 10.252l-10.659-6.154Z"/><path fill="url(#e)" d="M41.755 147.594c11.299 6.521 24.41 10.252 38.393 10.252L90.808 164c-13.984 0-27.095-3.731-38.394-10.252l-10.66-6.154Z"/><path fill="url(#f)" d="M157.072 80.923c0-28.49-15.489-53.363-38.506-66.657l10.635 6.14c23.03 13.29 38.529 38.17 38.529 66.67l-10.658-6.153Z"/><path fill="url(#g)" d="M80.148 157.846c42.484 0 76.924-34.44 76.924-76.923l10.658 6.154c0 42.483-34.439 76.923-76.923 76.923l-10.659-6.154Z"/><path stroke="url(#h)" stroke-linejoin="round" stroke-width="6.154" d="M167.73 87.077c0 42.483-34.439 76.923-76.923 76.923m76.923-76.923c0-28.5-15.499-53.38-38.529-66.671m38.529 66.67-10.658-6.153M90.807 164c-13.983 0-27.094-3.731-38.393-10.252M90.807 164l-10.659-6.154m-66.264-70.77c0-42.482 34.44-76.922 76.923-76.922M13.884 87.077c0 28.5 15.5 53.381 38.53 66.671m-38.53-66.671L3.225 80.923m10.66 6.154c0 28.49 15.488 53.363 38.504 66.657m38.418-143.58c13.983 0 27.095 3.73 38.394 10.252M90.807 10.153 80.148 4M52.414 153.748a.303.303 0 0 1-.025-.014m.025.014-10.66-6.154m87.447-127.188-10.659-6.154m10.659 6.153-10.635-6.14M3.226 80.924C3.225 38.44 37.664 4 80.147 4M3.225 80.923c0 28.501 15.5 53.381 38.53 66.671M80.148 4c13.983 0 27.095 3.731 38.394 10.252M41.755 147.594l10.634 6.14m-10.634-6.14c11.299 6.521 24.41 10.252 38.393 10.252m38.394-143.594.024.014m-38.418 143.58c42.484 0 76.924-34.44 76.924-76.923m-38.506-66.657c23.017 13.294 38.506 38.167 38.506 66.657"/><circle cx="80.148" cy="80.923" r="76.923" fill="#22CAEE"/><path fill="#fff" d="M103.701 52.73c3.661 0 6.641 3.565 6.641 7.944a1.17 1.17 0 0 0 2 .829c.22-.22.344-.518.344-.829 0-4.375 2.979-7.944 6.64-7.944a1.173 1.173 0 1 0 0-2.343c-3.661 0-6.64-3.563-6.64-7.942a1.172 1.172 0 0 0-2.344 0c0 4.375-2.98 7.942-6.641 7.942a1.172 1.172 0 1 0 0 2.344Zm-46.406 57.032c-3.661 0-6.64-3.563-6.64-7.942a1.173 1.173 0 0 0-2.345 0c0 4.375-2.98 7.942-6.64 7.942a1.17 1.17 0 0 0-.829 2c.22.22.518.344.829.344 3.66 0 6.64 3.564 6.64 7.943a1.173 1.173 0 0 0 2.001.829 1.175 1.175 0 0 0 .343-.829c0-4.375 2.98-7.943 6.64-7.943a1.172 1.172 0 0 0 0-2.344ZM104.539 71.004c.012.375.022.75.022 1.128a33.347 33.347 0 0 1-.238 3.958 21.505 21.505 0 0 1 11.488 19.011c0 11.847-9.638 21.484-21.485 21.484a21.505 21.505 0 0 1-19.01-11.487 33.135 33.135 0 0 1-5.087.216c3.988 9.375 13.281 15.959 24.097 15.959 14.431 0 26.172-11.741 26.172-26.172 0-10.81-6.587-20.11-15.959-24.097Z"/><path fill="#fff" d="M71.357 102.991c17.016 0 30.86-13.843 30.86-30.859 0-17.016-13.844-30.86-30.86-30.86-17.015 0-30.859 13.845-30.859 30.86 0 17.016 13.844 30.859 30.86 30.859Zm0-56.25c14 0 25.391 11.391 25.391 25.391 0 14-11.39 25.39-25.39 25.39s-25.391-11.39-25.391-25.39 11.39-25.39 25.39-25.39Z"/><path fill="#fff" d="M78.68 104.336c11.446-2.061 23.021-12.956 25-24.882 6.032 2.744 9.545 8.553 9.545 15.85 0 9.823-8.296 18.183-17.725 18.183-7.003 0-14.186-2.866-16.82-9.151ZM74.25 63.522a2.928 2.928 0 1 0 4.14 4.141 2.928 2.928 0 0 0-4.14-4.141Z"/><path fill="#fff" fill-rule="evenodd" d="M71.407 94.91c12.552 0 22.727-10.176 22.727-22.728 0-12.552-10.175-22.727-22.727-22.727S48.68 59.63 48.68 72.181s10.175 22.727 22.727 22.727Zm4.578-19.16c-.1.108-.335.28-.222.638l.42 1.766c.122.511-.083 1.233-.454 1.604l-6.753 6.754c-.371.371-.742.25-.824-.269l-.767-4.884c-.082-.52.155-1.247.527-1.619 0 0 .253-.251-.011-.516L62.577 73.9c-.253-.253-.505 0-.505 0-.372.372-1.1.609-1.62.527l-4.883-.768c-.52-.08-.64-.452-.269-.823l6.753-6.753c.372-.372 1.094-.576 1.605-.454l1.84.438c.412.086.643-.118.76-.226 5.907-5.433 13.536-9.013 16.1-6.45 2.578 2.579-.9 10.451-6.373 16.36Zm-14.279.552c.096-.095.258-.312.689.119l3.09 3.09c.416.417.246.581.144.68l-.018.017c-1.566 1.565-2.424 1.89-3.91 2.452-.869.328-1.95.737-3.512 1.521-1.164.585 1.037-5.398 3.517-7.879Z" clip-rule="evenodd"/><defs><linearGradient id="a" x1="85.478" x2="85.478" y1="4" y2="164" gradientUnits="userSpaceOnUse"><stop offset=".54" stop-color="#26D7F3"/><stop offset=".96" stop-color="#0175C9"/></linearGradient><linearGradient id="b" x1="85.478" x2="85.478" y1="4" y2="164" gradientUnits="userSpaceOnUse"><stop offset=".54" stop-color="#26D7F3"/><stop offset=".96" stop-color="#0175C9"/></linearGradient><linearGradient id="c" x1="85.478" x2="85.478" y1="4" y2="164" gradientUnits="userSpaceOnUse"><stop offset=".54" stop-color="#26D7F3"/><stop offset=".96" stop-color="#0175C9"/></linearGradient><linearGradient id="d" x1="85.478" x2="85.478" y1="4" y2="164" gradientUnits="userSpaceOnUse"><stop offset=".54" stop-color="#26D7F3"/><stop offset=".96" stop-color="#0175C9"/></linearGradient><linearGradient id="e" x1="85.478" x2="85.478" y1="4" y2="164" gradientUnits="userSpaceOnUse"><stop offset=".54" stop-color="#26D7F3"/><stop offset=".96" stop-color="#0175C9"/></linearGradient><linearGradient id="f" x1="85.478" x2="85.478" y1="4" y2="164" gradientUnits="userSpaceOnUse"><stop offset=".54" stop-color="#26D7F3"/><stop offset=".96" stop-color="#0175C9"/></linearGradient><linearGradient id="g" x1="85.478" x2="85.478" y1="4" y2="164" gradientUnits="userSpaceOnUse"><stop offset=".54" stop-color="#26D7F3"/><stop offset=".96" stop-color="#0175C9"/></linearGradient><linearGradient id="h" x1="85.478" x2="85.478" y1="4" y2="164" gradientUnits="userSpaceOnUse"><stop offset=".54" stop-color="#26D7F3"/><stop offset=".96" stop-color="#0175C9"/></linearGradient></defs></svg>