<svg xmlns="http://www.w3.org/2000/svg" width="200" height="75" fill="none"><path fill="#000" d="M0 0h200v75H0z"/><path fill="#fff" d="M40.044 45.947c-3.534 3.335-7.491 5.003-11.909 5.003-3.227 0-5.8-.892-7.683-2.637-1.882-1.784-2.804-4.188-2.804-7.251 0-1.59.384-3.296 1.114-5.119a17.32 17.32 0 0 1 2.766-4.692h8.26c-1.422 1.28-2.575 2.87-3.497 4.847-.922 1.978-1.383 3.916-1.383 5.778 0 1.512.308 2.83.922 3.878.768 1.28 1.844 1.9 3.227 1.9 2.343 0 4.495-1.551 6.377-4.615 1.69-2.753 2.535-5.39 2.535-7.91 0-2.017-.576-3.568-1.728-4.692-1.153-1.124-2.728-1.668-4.764-1.668H13L15.881 24H33.13c3.496 0 6.339.737 8.528 2.171 2.574 1.707 3.88 4.227 3.88 7.562 0 4.692-1.844 8.725-5.493 12.215Zm16.172 1.668h7.49c-.038.853-.537 1.551-1.42 2.133-.922.582-1.883.892-2.958.892h-14.29c-2.728 0-4.11-.854-4.11-2.521 0-.155 0-.31.037-.504.116-.776.5-1.357 1.191-1.745a4.14 4.14 0 0 1 2.075-.543c1.344.039 3.188.776 5.493 2.249.653-.814.999-1.667.999-2.52 0-.427-.27-1.396-.807-2.947l-2.113 1.939h-3.765l4.995-4.653c-.231-.388-.385-.699-.462-.97a5.097 5.097 0 0 1-.268-1.59l4.61-4.963c2.074.349 3.111 1.318 3.111 2.87 0 .891-.269 1.744-.807 2.52.461 1.24.922 2.481 1.422 3.722.576 1.59.844 2.87.844 3.878 0 1.047-.422 1.977-1.267 2.753Zm17.632-6.825h-1.229l-2.344 6.825H80.34c-.576 2.016-2.151 3.025-4.687 3.025h-9.565c-1.843 0-2.765-.66-2.765-1.978 0-.31.076-.698.192-1.047l2.382-6.825h-3.074l1.191-3.024c2.19-.582 3.803-1.28 4.879-2.172 1.19-1.008 2.497-2.792 3.841-5.429h3.65l-2.651 7.6h4.84c-.768 2.017-2.343 3.025-4.725 3.025Zm22.818 4.072h-6.223l2.036-4.072h-3.957l-1.536 4.576a2.662 2.662 0 0 0-.116.737c0 1.008.807 1.55 2.42 1.55h14.636c-.269.97-.845 1.746-1.805 2.288-.845.505-1.806.737-2.88.737H88.79c-6.07 0-9.104-1.86-9.104-5.545 0-2.365 1.037-4.226 3.112-5.584 1.805-1.163 3.918-1.745 6.376-1.745h2.728c1.575 0 2.996.233 4.187.737 1.613.66 2.42 1.668 2.497 2.986.076 1.319-.577 2.443-1.92 3.335Zm25.161 2.753h7.683c-.307 1.124-1.037 1.939-2.151 2.443a5.661 5.661 0 0 1-2.535.582h-7.491c-1.729 0-2.574-.582-2.574-1.707 0-.387.077-.814.269-1.318l1.421-4.072-6.453 5.507c-1.498 1.047-2.766 1.59-3.727 1.59h-3.456l4.494-12.874h6.761l-2.114 6.049 5.725-4.731c1.536-1.28 3.226-1.9 5.032-1.822 1.229.038 1.844.698 1.844 1.977 0 .465-.116 1.008-.307 1.59l-2.421 6.786Zm32.537 0c-.615 2.016-2.151 3.025-4.61 3.025h-7.145c-2.074 0-3.073-.66-3.035-1.978-1.382 1.629-3.226 2.443-5.531 2.443-1.498 0-2.728-.427-3.688-1.28-.96-.891-1.459-2.094-1.459-3.606 0-2.753 1.114-4.886 3.303-6.437 1.921-1.357 4.303-2.016 7.145-2.016h3.918l3.496-10.005h6.838l-6.992 19.854h7.76Zm-16.902-6.825-1.421 4.072c-.116.388-.192.737-.192 1.008 0 .854.537 1.396 1.613 1.59.384.078 1.191.116 2.42.116l2.382-6.825h-4.802v.039Zm44.253 0H169.96c.423.272.768.776.999 1.512.269.737.384 1.396.307 1.94-.192 2.094-1.075 3.761-2.765 4.963-1.576 1.163-3.65 1.745-6.185 1.745-2.958.039-5.225-.543-6.799-1.745-1.422-1.047-2.113-2.443-2.113-4.188 0-.349.038-.698.076-1.009.308-1.9 1.268-3.412 2.805-4.497 1.652-1.163 3.841-1.707 6.607-1.707h23.279c-.461 1.978-1.959 2.986-4.456 2.986Zm-20.244 0-1.691 4.847a2.648 2.648 0 0 0-.115.737c0 1.086.999 1.629 2.996 1.629h.615l2.497-7.174h-4.302v-.039Z"/></svg>