<svg xmlns="http://www.w3.org/2000/svg" width="200" height="75" fill="none"><path fill="#000" d="M0 0h200v75H0z"/><path fill="#fff" d="M83.523 31.612c.933.564 1.723 1.34 2.226 2.398.574 1.058.861 2.328.861 3.738 0 1.41-.287 2.61-.933 3.668-.575 1.058-1.436 1.833-2.513 2.327-1.077.564-2.37.846-3.734.846-.79 0-1.508-.14-2.226-.423-.718-.211-1.364-.635-1.867-1.128v7.335h-4.164V31.048h3.59l.359 1.552c1.58-1.27 3.303-1.905 5.098-1.905 1.22 0 2.37.282 3.303.917Zm-2.298 8.746c.718-.635 1.077-1.481 1.077-2.54 0-1.057-.359-1.904-1.005-2.609-.646-.705-1.508-.987-2.441-.987-.79 0-1.508.14-2.083.493-.574.282-1.005.776-1.364 1.411V39.3c.215.635.646 1.128 1.15 1.48.573.353 1.22.565 2.01.565 1.076 0 1.938-.352 2.656-.987ZM89.052 34.082c.647-.988 1.508-1.834 2.657-2.398a8.71 8.71 0 0 1 3.877-.917c1.436 0 2.729.282 3.877.917 1.077.564 1.939 1.41 2.585 2.468.646 1.058.933 2.187.933 3.527 0 1.34-.287 2.468-.933 3.526-.646 1.058-1.436 1.904-2.585 2.469-1.076.564-2.44.917-3.877.917-1.436 0-2.728-.282-3.877-.847-1.149-.564-2.01-1.34-2.657-2.398a7.526 7.526 0 0 1-.933-3.667c0-1.34.359-2.54.933-3.597Zm4.237 6.136c.574.705 1.364.987 2.297.987.934 0 1.724-.352 2.298-.987.575-.635.862-1.552.862-2.54 0-1.057-.287-1.903-.862-2.538-.646-.706-1.364-1.058-2.37-1.058-.933 0-1.65.352-2.297.987-.574.706-.862 1.552-.862 2.61 0 .987.288 1.834.934 2.539ZM109.73 21.035V44.24h-4.164V21.035h4.164ZM126.819 31.4l-8.472 19.044h-4.021l3.159-6.842-6.031-12.201h4.739l3.446 7.617 3.447-7.617h3.733ZM142.758 31.402v12.836a5.553 5.553 0 0 1-1.077 3.315c-.718.987-1.651 1.763-2.872 2.327-1.221.565-2.513.847-3.949.847a10.8 10.8 0 0 1-2.8-.353c-.79-.282-1.436-.564-1.939-.846a13.204 13.204 0 0 1-1.795-1.34l2.441-2.822a7.033 7.033 0 0 0 1.795 1.27 5.176 5.176 0 0 0 2.226.494c1.077 0 1.939-.282 2.657-.776.718-.494 1.077-1.27 1.077-2.186v-1.834a4.678 4.678 0 0 1-1.867 1.622c-.862.423-1.867.635-3.016.635-1.148 0-2.297-.282-3.303-.917-1.005-.565-1.795-1.41-2.441-2.469-.574-1.058-.933-2.186-.933-3.456s.287-2.468.933-3.526c.646-1.058 1.436-1.904 2.513-2.54 1.006-.634 2.083-.916 3.231-.916 1.077 0 2.011.141 2.872.423.862.282 1.508.705 1.939 1.2l.431-.988h3.877Zm-4.236 7.9v-3.175a3.054 3.054 0 0 0-1.364-1.48 4.524 4.524 0 0 0-2.226-.565 3.8 3.8 0 0 0-2.585.987c-.718.635-1.077 1.481-1.077 2.54 0 .987.359 1.904 1.077 2.609a3.558 3.558 0 0 0 2.585 1.058c1.651-.07 2.872-.705 3.59-1.975ZM146.205 34.08c.647-1.057 1.508-1.833 2.657-2.468a8.71 8.71 0 0 1 3.877-.917c1.436 0 2.729.282 3.878.917 1.077.564 1.938 1.41 2.585 2.469.574 1.058.933 2.186.933 3.526 0 1.34-.287 2.469-.933 3.526a5.796 5.796 0 0 1-2.585 2.469c-1.077.564-2.442.917-3.878.917s-2.728-.282-3.877-.846c-1.149-.565-2.01-1.34-2.657-2.398-.646-1.058-.933-2.257-.933-3.739 0-1.198.287-2.397.933-3.455Zm4.165 6.137c.574.705 1.364.987 2.298.987.933 0 1.723-.353 2.297-.987.575-.635.862-1.552.862-2.54 0-1.057-.287-1.904-.862-2.538-.574-.635-1.364-.988-2.297-.988-.934 0-1.652.353-2.298.988-.646.634-.933 1.551-.933 2.539.071.987.359 1.833.933 2.539ZM174.855 31.825c.862.705 1.22 1.622 1.291 2.75v9.663h-4.236v-8.11c-.071-1.27-.718-1.905-1.938-1.905-.934 0-1.723.423-2.298 1.34-.574.917-.861 2.045-.861 3.385v5.29h-4.165V31.402h3.806l.287 2.045a5.355 5.355 0 0 1 2.01-1.975c.862-.493 1.867-.705 3.016-.705 1.22 0 2.297.353 3.088 1.058ZM53.367 31.191c-.718-.423-1.652-.423-2.441 0l-5.601 3.245-3.806 2.116-5.6 3.244c-.718.423-1.651.423-2.441 0l-4.452-2.54c-.718-.422-1.22-1.198-1.22-2.044v-5.008c0-.846.43-1.622 1.22-2.045l4.38-2.469c.718-.423 1.651-.423 2.441 0l4.38 2.469c.718.423 1.22 1.199 1.22 2.045v3.244l3.806-2.186v-3.244a2.28 2.28 0 0 0-1.22-2.046l-8.114-4.655c-.718-.423-1.651-.423-2.441 0l-8.257 4.655A2.28 2.28 0 0 0 24 28.018v9.38c0 .846.43 1.622 1.22 2.045l8.258 4.655c.718.423 1.651.423 2.441 0l5.6-3.174 3.806-2.186 5.6-3.174c.718-.423 1.652-.423 2.442 0l4.38 2.469c.717.423 1.22 1.199 1.22 2.045v5.008a2.28 2.28 0 0 1-1.22 2.045l-4.38 2.539c-.718.423-1.652.423-2.441 0l-4.38-2.469c-.718-.423-1.221-1.199-1.221-2.045v-3.244l-3.806 2.186v3.244c0 .847.431 1.623 1.221 2.046l8.257 4.655c.718.423 1.651.423 2.441 0l8.258-4.655c.718-.423 1.22-1.2 1.22-2.046v-9.38a2.28 2.28 0 0 0-1.22-2.045l-8.33-4.726Z"/></svg>