<svg width="200" height="75" viewBox="0 0 200 75" fill="none" xmlns="http://www.w3.org/2000/svg">
<g clip-path="url(#clip0_230_1818)">
<rect y="0.000488281" width="202.245" height="75.0601" fill="black"/>
<path d="M59.1684 36.5573C60.1731 36.8197 61.1469 37.1354 61.9958 37.818C64.0991 39.5053 63.8132 42.8382 61.7057 44.1885C60.508 44.9553 59.2367 45.3297 57.8331 45.3286C56.7132 45.3276 55.5944 45.3286 54.4746 45.3286C53.6928 45.3286 53.6992 45.3286 53.6992 44.5618C53.7013 40.0098 53.6992 35.4577 53.7002 30.9057C53.7002 30.0493 53.7024 30.0173 54.5482 30.0461C55.9816 30.0962 57.4278 30.0951 58.8431 30.2957C60.0355 30.4652 61.0189 31.1468 61.3911 32.3744C61.7228 33.4665 61.6098 34.5608 60.7693 35.4097C60.3192 35.8641 59.7198 36.1713 59.1684 36.5584V36.5573ZM55.5304 40.9046C55.5304 42.0053 55.5272 43.107 55.5304 44.2077C55.5326 44.8561 55.5699 44.8956 56.2344 44.8935C56.8732 44.8913 57.5153 44.9127 58.1488 44.8508C59.5119 44.7175 60.5976 44.1213 61.1341 42.7913C61.4636 41.9754 61.5767 41.1147 61.4796 40.2327C61.2642 38.2788 59.915 36.9914 57.9579 36.8986C57.3414 36.8688 56.7218 36.9082 56.1042 36.8858C55.6542 36.8688 55.5176 37.0725 55.524 37.4948C55.54 38.6318 55.5294 39.7677 55.5294 40.9046H55.5304ZM55.5166 33.6318C55.4942 33.6318 55.4718 33.6318 55.4483 33.6318C55.4483 34.4125 55.4547 35.1932 55.4451 35.9739C55.4409 36.3088 55.5731 36.4752 55.9165 36.4507C56.5874 36.4038 57.2721 36.423 57.9238 36.2854C58.3483 36.1958 58.8218 35.9643 59.1044 35.6465C60.0249 34.6088 60.0953 33.3801 59.6676 32.1056C59.3988 31.3067 58.8591 30.7607 58.0144 30.6177C57.3361 30.5026 56.6439 30.4642 55.9571 30.398C55.6595 30.3692 55.5027 30.4684 55.5102 30.8161C55.5304 31.7547 55.5166 32.6932 55.5166 33.6329V33.6318Z" fill="white"/>
<path d="M42.8535 45.6251C38.0273 45.2252 35.025 41.7024 35.1935 37.3647C35.3812 32.5226 39.4267 29.5064 43.8219 29.7645C48.4198 30.0343 51.8242 33.8089 51.357 38.5262C50.9219 42.9204 47.2348 45.7659 42.8535 45.6251ZM37.1826 37.8884C37.2509 39.7474 37.6764 41.6672 39.0918 43.3385C41.2984 45.943 46.3048 46.0496 48.391 42.0981C49.3839 40.2167 49.625 38.2073 49.3029 36.1457C48.8965 33.5476 47.7756 31.4411 45.1081 30.4663C43.0945 29.7304 40.4079 30.429 39.0384 32.0693C37.6786 33.699 37.2104 35.6017 37.1816 37.8895L37.1826 37.8884Z" fill="white"/>
<path d="M167.293 30.0397C168.601 30.0397 169.917 29.9682 171.219 30.0621C172.307 30.1399 173.427 30.2733 174.45 30.6231C178.052 31.8517 180.418 35.7436 179.154 39.8903C178.586 41.7536 177.429 43.1475 175.817 44.132C174.582 44.886 173.188 45.303 171.716 45.3276C170.472 45.3478 169.229 45.3361 167.985 45.3329C167.331 45.3308 167.293 45.2924 167.293 44.6354C167.291 40.1367 167.293 35.6391 167.293 31.1404C167.293 30.7895 167.293 30.4375 167.293 30.0397ZM169.046 37.6655C169.046 39.9063 169.046 42.1471 169.046 44.3879C169.046 44.678 169.017 44.9969 169.454 44.9735C170.41 44.9233 171.379 44.9447 172.319 44.7932C174.736 44.4039 176.185 42.8446 177.066 40.6582C177.579 39.3858 177.64 38.0548 177.508 36.7205C177.25 34.116 176.079 32.0853 173.637 30.9484C172.36 30.3543 170.978 30.3874 169.605 30.397C169.158 30.4002 169.034 30.5634 169.038 30.9964C169.056 33.2191 169.046 35.4428 169.046 37.6655Z" fill="white"/>
<path d="M110.691 45.2582C109.358 45.5217 108.239 45.4118 107.675 43.9602C106.291 45.1388 104.738 45.5441 103.095 45.6038C101.424 45.6646 99.7879 45.4523 98.5229 44.1981C97.0042 42.6921 97.0586 40.0546 98.6669 38.4057C99.3453 37.7114 100.136 37.1194 100.916 36.536C101.34 36.2193 101.398 35.9942 101.071 35.5569C100.259 34.4712 99.7601 33.2777 100.08 31.8741C100.41 30.4268 101.728 29.5469 103.195 29.7581C104.255 29.9106 105.033 30.3852 105.325 31.4667C105.641 32.6346 105.266 33.6041 104.415 34.4083C104.092 34.7122 103.712 34.9554 103.396 35.2647C103.304 35.3543 103.264 35.6391 103.334 35.7308C104.996 37.8799 106.676 40.0151 108.354 42.1514C108.374 42.1759 108.415 42.1812 108.496 42.2186C109.332 40.9569 109.536 39.4861 109.749 38.0185C109.816 38.0228 109.883 38.027 109.949 38.0313C109.978 38.1966 110.065 38.3769 110.027 38.5241C109.72 39.7058 109.442 40.8993 109.038 42.0479C108.866 42.5353 108.898 42.8489 109.204 43.2211C109.665 43.78 110.094 44.3645 110.531 44.9425C110.592 45.0225 110.624 45.1238 110.691 45.2582ZM103.1 45.2081C104.55 45.1932 105.815 44.7975 106.953 43.989C107.276 43.7597 107.343 43.5816 107.057 43.2286C105.93 41.8346 104.842 40.4086 103.735 38.9976C103.166 38.2702 102.593 37.546 102.012 36.8283C101.871 36.6544 101.724 36.4443 101.448 36.6864C99.5042 38.4014 98.9154 40.3553 99.5276 42.7145C99.6642 43.2393 99.9958 43.7491 100.348 44.1757C101.067 45.0471 102.112 45.1569 103.097 45.2081H103.1ZM104.359 31.9808C104.305 31.775 104.236 31.407 104.111 31.0614C103.896 30.4748 103.431 30.1826 102.792 30.1815C102.174 30.1815 101.69 30.4418 101.528 31.0412C101.395 31.536 101.281 32.1344 101.44 32.5887C101.712 33.3652 102.198 34.067 102.609 34.7922C102.781 35.0962 102.988 35.029 103.208 34.8135C103.961 34.0819 104.316 33.1828 104.359 31.9819V31.9808Z" fill="white"/>
<path d="M130.552 38.619C133.22 40.7969 135.887 42.9758 138.555 45.1537C138.518 45.2188 138.481 45.2838 138.445 45.35C138.214 45.2433 137.952 45.1772 137.76 45.0236C136.352 43.8931 134.962 42.7423 133.561 41.6032C132.421 40.6753 131.276 39.7538 130.037 38.7534C130.019 39.0328 129.999 39.213 129.998 39.3944C129.996 41.1552 129.998 42.9161 129.995 44.677C129.994 45.3276 129.951 45.3606 129.285 45.3404C128.185 45.3073 128.165 45.5569 128.168 44.2024C128.173 39.7559 128.169 35.3095 128.17 30.8631C128.17 30.093 128.341 29.9277 129.092 29.9501C130.279 29.9842 131.466 30.0088 132.652 30.0471C134.154 30.0962 135.559 30.4535 136.607 31.6043C138.447 33.6233 137.633 36.8421 135.076 37.8543C133.943 38.3033 132.769 38.4046 131.572 38.3897C131.261 38.3854 130.95 38.3897 130.639 38.3897C130.61 38.4665 130.581 38.5433 130.552 38.62V38.619ZM129.998 34.1693C129.998 35.2359 130.012 36.3024 129.991 37.369C129.983 37.8116 130.151 37.9823 130.587 37.9535C131.399 37.8991 132.219 37.9172 133.024 37.8073C134.23 37.641 135.151 37.0138 135.398 35.7638C135.563 34.9245 135.655 34.0307 135.557 33.1871C135.363 31.5147 134.255 30.589 132.563 30.5068C131.925 30.4759 131.276 30.5484 130.647 30.4578C130.074 30.3746 129.979 30.5858 129.99 31.0785C130.015 32.1088 129.998 33.1401 129.998 34.1715V34.1693Z" fill="white"/>
<path d="M78.6884 38.5497C81.3878 40.7563 84.0883 42.962 86.8133 45.1889C86.3899 45.3446 86.2182 45.2828 85.7542 44.9041C83.6404 43.1721 81.5211 41.4453 79.4062 39.7133C79.0702 39.4381 78.746 39.1501 78.3065 38.7736C78.2799 39.1267 78.2532 39.3282 78.2522 39.5309C78.2479 41.2203 78.2522 42.9086 78.2479 44.598C78.2458 45.2678 78.1828 45.3244 77.5152 45.3329C76.7871 45.3414 76.423 44.9742 76.423 44.2312C76.423 39.7687 76.423 35.3063 76.423 30.8449C76.423 30.0503 76.4262 30.0311 77.224 30.0439C78.8025 30.0685 80.3863 30.0503 81.9584 30.1719C83.1412 30.2637 84.18 30.8215 84.965 31.7323C86.4198 33.4185 86.1702 36.7163 83.3289 37.8084C82.4202 38.1572 81.4006 38.2393 80.4226 38.3747C79.8712 38.4515 79.3006 38.3886 78.7374 38.3886C78.7204 38.443 78.7033 38.4974 78.6862 38.5518L78.6884 38.5497ZM78.2777 34.1374C78.2692 34.1374 78.2607 34.1374 78.2522 34.1374C78.2522 35.222 78.2554 36.3067 78.25 37.3914C78.2479 37.7146 78.3129 37.9748 78.7097 37.9439C79.7325 37.866 80.7671 37.8457 81.7739 37.6708C82.4853 37.5482 83.0612 37.0938 83.3961 36.4006C84.0275 35.0951 84.0435 33.7555 83.5849 32.4085C83.2777 31.5051 82.6239 30.8684 81.6971 30.6924C80.7287 30.5079 79.7293 30.4887 78.7428 30.4066C78.4132 30.3788 78.2671 30.5314 78.2724 30.8833C78.2884 31.968 78.2777 33.0516 78.2777 34.1363V34.1374Z" fill="white"/>
<path d="M25.9316 38.5966C28.5937 40.7798 31.2548 42.962 33.9169 45.1452C33.8923 45.2049 33.8667 45.2636 33.8422 45.3233C33.6332 45.2401 33.3889 45.2017 33.2204 45.0673C32.1219 44.196 31.0404 43.3022 29.9525 42.418C28.5105 41.2448 27.0675 40.0738 25.5189 38.8152C25.488 39.1309 25.4528 39.3272 25.4528 39.5223C25.4485 41.0688 25.4538 42.6164 25.4485 44.1629C25.4442 45.318 25.0603 45.6091 23.934 45.3041C23.8135 45.271 23.6876 45.1185 23.6407 44.9937C23.5874 44.8519 23.6183 44.678 23.6183 44.5181C23.6183 39.966 23.6183 35.414 23.6183 30.862C23.6183 30.0493 23.6204 30.0439 24.4566 30.0418C25.7365 30.0397 27.0152 30.0333 28.2951 30.0535C29.368 30.0706 30.3514 30.397 31.2622 30.9686C32.9026 31.9989 33.1948 33.6446 32.8194 35.3116C32.4984 36.7365 31.467 37.562 30.1392 37.9428C29.2294 38.2041 28.2588 38.266 27.3107 38.3801C26.8937 38.4302 26.466 38.3886 26.0436 38.3886C26.0063 38.4579 25.97 38.5273 25.9327 38.5977L25.9316 38.5966ZM25.4517 34.1502C25.4517 35.2327 25.4581 36.3152 25.4474 37.3978C25.4442 37.7689 25.5658 37.9652 25.9668 37.9524C26.5513 37.9332 27.1422 37.9823 27.7213 37.9215C28.8966 37.7977 30.0517 37.5258 30.6063 36.3312C31.1524 35.1548 31.2036 33.9123 30.8335 32.6463C30.4399 31.3035 29.4779 30.6999 28.1863 30.5324C27.4685 30.4386 26.7369 30.4503 26.0127 30.4012C25.6021 30.3735 25.4389 30.5388 25.4453 30.9548C25.4613 32.0192 25.4506 33.0847 25.4506 34.1502H25.4517Z" fill="white"/>
<path d="M152.001 45.3105C151.332 45.3105 150.806 45.3382 150.288 45.2913C150.158 45.2796 150.006 45.0439 149.939 44.8796C149.407 43.5806 148.883 42.2783 148.38 40.9675C148.254 40.6401 148.063 40.5612 147.733 40.5633C146.155 40.574 144.575 40.559 142.997 40.5516C142.802 40.5516 142.605 40.5569 142.411 40.5398C142.052 40.51 141.873 40.6742 141.748 41.0091C141.258 42.3231 140.748 43.6286 140.227 44.9308C140.167 45.0812 139.998 45.1878 139.879 45.3158C139.867 45.1324 139.79 44.9255 139.85 44.7698C140.745 42.449 141.667 40.1388 142.561 37.818C142.747 37.3338 142.812 36.8037 142.997 36.3195C143.208 35.766 143.511 35.2476 143.737 34.6984C144.359 33.1871 144.96 31.6662 145.574 30.1517C145.63 30.012 145.713 29.8829 145.848 29.6301C147.914 34.8935 149.932 40.0375 152.001 45.3094V45.3105ZM145.081 32.5759C144.068 35.1484 143.098 37.609 142.104 40.1313C142.34 40.1495 142.492 40.1719 142.645 40.1719C144.207 40.174 145.771 40.1761 147.333 40.1719C148.005 40.1697 148.045 40.1025 147.791 39.4552C147.194 37.9364 146.596 36.4176 145.998 34.8999C145.707 34.1608 145.415 33.4228 145.08 32.5749L145.081 32.5759Z" fill="white"/>
<path d="M72.7733 37.6602C72.56 37.69 72.3467 37.7455 72.1334 37.7465C70.7298 37.754 69.3262 37.7657 67.9226 37.7433C67.4427 37.7359 67.2646 37.8884 67.2699 38.3843C67.2913 40.3393 67.2913 42.2954 67.2699 44.2504C67.2646 44.7356 67.4246 44.9073 67.9141 44.902C69.6729 44.8807 71.4316 44.8903 73.1903 44.8977C73.4132 44.8977 73.6361 44.9596 73.858 44.9937C73.858 45.0641 73.859 45.1356 73.8601 45.206C73.6756 45.2476 73.4922 45.3265 73.3076 45.3265C70.8919 45.335 68.4751 45.3244 66.0594 45.3393C65.5922 45.3425 65.4408 45.1644 65.4419 44.71C65.4515 39.9991 65.4515 35.2882 65.4419 30.5772C65.4419 30.1677 65.5528 30.0279 65.9858 30.0322C68.3845 30.0546 70.7821 30.0418 73.1807 30.0471C73.394 30.0471 73.6073 30.0962 73.8207 30.1218L73.8302 30.3063C73.6287 30.3383 73.4271 30.397 73.2245 30.398C71.4657 30.4055 69.707 30.4172 67.9482 30.3938C67.447 30.3874 67.2614 30.5335 67.2689 31.0561C67.2944 32.9226 67.2934 34.789 67.2689 36.6555C67.2625 37.177 67.4512 37.3306 67.9525 37.3221C69.3561 37.2965 70.7597 37.3093 72.1632 37.3178C72.3691 37.3189 72.5749 37.3839 72.7808 37.4191C72.7786 37.4991 72.7754 37.5802 72.7733 37.6602Z" fill="white"/>
<path d="M155.634 35.8417C155.691 37.8489 155.664 39.8636 155.826 41.8623C156.036 44.4466 158.615 45.8758 161.066 44.9852C162.317 44.5309 163.33 43.8803 163.759 42.6303C164.072 41.7226 164.272 40.7339 164.294 39.7762C164.361 36.7365 164.32 33.6937 164.32 30.6519C164.32 30.5271 164.302 30.3991 164.325 30.2797C164.338 30.2071 164.424 30.0887 164.464 30.0941C164.554 30.1058 164.684 30.1645 164.709 30.2349C164.758 30.382 164.762 30.5484 164.762 30.7063C164.764 33.7481 164.78 36.7899 164.752 39.8306C164.742 41.0475 164.52 42.2314 163.91 43.3193C163.187 44.6087 162.056 45.3361 160.641 45.5163C158.993 45.7264 157.381 45.5803 155.963 44.533C155.025 43.8408 154.467 42.9033 154.204 41.8165C153.997 40.9601 153.888 40.0631 153.876 39.1811C153.835 36.3718 153.858 33.5604 153.859 30.75C153.859 30.0695 153.888 30.0461 154.596 30.0418C155.324 30.0368 155.689 30.4041 155.689 31.1436C155.689 32.7092 155.689 34.2739 155.689 35.8396C155.671 35.8396 155.653 35.8396 155.634 35.8406V35.8417Z" fill="white"/>
<path d="M124.93 37.6484C124.723 37.6826 124.516 37.7444 124.309 37.7455C122.905 37.754 121.501 37.7679 120.097 37.7412C119.586 37.7316 119.416 37.9076 119.421 38.4185C119.442 40.4812 119.43 42.5439 119.428 44.6066C119.428 45.2977 119.395 45.3265 118.707 45.3318C117.971 45.3382 117.602 44.9752 117.602 44.2429C117.602 39.7794 117.602 35.3159 117.602 30.8524C117.602 30.0503 117.609 30.0439 118.4 30.0439C120.71 30.0429 123.02 30.0418 125.332 30.0471C125.543 30.0471 125.754 30.0962 125.965 30.1229C125.967 30.1858 125.969 30.2487 125.973 30.3117C125.769 30.3415 125.565 30.398 125.362 30.3991C123.62 30.4066 121.878 30.4194 120.137 30.3938C119.617 30.3863 119.41 30.5196 119.419 31.0774C119.449 32.9268 119.428 34.7762 119.43 36.6256C119.43 37.2826 119.461 37.3114 120.131 37.3125C121.518 37.3157 122.903 37.3093 124.29 37.3178C124.502 37.3189 124.714 37.3754 124.926 37.4063C124.926 37.4874 124.927 37.5674 124.929 37.6484H124.93Z" fill="white"/>
<path d="M90.4247 37.6143C90.4247 39.9618 90.414 42.3103 90.4332 44.6578C90.4375 45.1633 90.2732 45.35 89.7591 45.3425C88.6809 45.3276 88.6798 45.35 88.6798 44.2727C88.6798 39.7911 88.6798 35.3084 88.6798 30.8268C88.6798 30.061 88.6926 30.0503 89.4509 30.0461C89.5224 30.0461 89.5928 30.0461 89.6642 30.0461C90.1719 30.0461 90.425 30.2925 90.4236 30.7852C90.4236 33.0623 90.4236 35.3383 90.4236 37.6154L90.4247 37.6143Z" fill="white"/>
<path d="M59.1684 36.5573C60.1731 36.8197 61.1469 37.1354 61.9958 37.818C64.0991 39.5053 63.8132 42.8382 61.7057 44.1885C60.508 44.9553 59.2367 45.3297 57.8331 45.3286C56.7132 45.3276 55.5944 45.3286 54.4746 45.3286C53.6928 45.3286 53.6992 45.3286 53.6992 44.5618C53.7013 40.0098 53.6992 35.4577 53.7002 30.9057C53.7002 30.0493 53.7024 30.0173 54.5482 30.0461C55.9816 30.0962 57.4278 30.0951 58.8431 30.2957C60.0355 30.4652 61.0189 31.1468 61.3911 32.3744C61.7228 33.4665 61.6098 34.5608 60.7693 35.4097C60.3192 35.8641 59.7198 36.1713 59.1684 36.5584V36.5573ZM55.5304 40.9046C55.5304 42.0053 55.5272 43.107 55.5304 44.2077C55.5326 44.8561 55.5699 44.8956 56.2344 44.8935C56.8732 44.8913 57.5153 44.9127 58.1488 44.8508C59.5119 44.7175 60.5976 44.1213 61.1341 42.7913C61.4636 41.9754 61.5767 41.1147 61.4796 40.2327C61.2642 38.2788 59.915 36.9914 57.9579 36.8986C57.3414 36.8688 56.7218 36.9082 56.1042 36.8858C55.6542 36.8688 55.5176 37.0725 55.524 37.4948C55.54 38.6318 55.5294 39.7677 55.5294 40.9046H55.5304ZM55.5166 33.6318C55.4942 33.6318 55.4718 33.6318 55.4483 33.6318C55.4483 34.4125 55.4547 35.1932 55.4451 35.9739C55.4409 36.3088 55.5731 36.4752 55.9165 36.4507C56.5874 36.4038 57.2721 36.423 57.9238 36.2854C58.3483 36.1958 58.8218 35.9643 59.1044 35.6465C60.0249 34.6088 60.0953 33.3801 59.6676 32.1056C59.3988 31.3067 58.8591 30.7607 58.0144 30.6177C57.3361 30.5026 56.6439 30.4642 55.9571 30.398C55.6595 30.3692 55.5027 30.4684 55.5102 30.8161C55.5304 31.7547 55.5166 32.6932 55.5166 33.6329V33.6318Z" stroke="white" stroke-width="0.5"/>
<path d="M42.8535 45.6251C38.0273 45.2252 35.025 41.7024 35.1935 37.3647C35.3812 32.5226 39.4267 29.5064 43.8219 29.7645C48.4198 30.0343 51.8242 33.8089 51.357 38.5262C50.9219 42.9204 47.2348 45.7659 42.8535 45.6251ZM37.1826 37.8884C37.2509 39.7474 37.6764 41.6672 39.0918 43.3385C41.2984 45.943 46.3048 46.0496 48.391 42.0981C49.3839 40.2167 49.625 38.2073 49.3029 36.1457C48.8965 33.5476 47.7756 31.4411 45.1081 30.4663C43.0945 29.7304 40.4079 30.429 39.0384 32.0693C37.6786 33.699 37.2104 35.6017 37.1816 37.8895L37.1826 37.8884Z" stroke="white" stroke-width="0.5"/>
<path d="M167.293 30.0397C168.601 30.0397 169.917 29.9682 171.219 30.0621C172.307 30.1399 173.427 30.2733 174.45 30.6231C178.052 31.8517 180.418 35.7436 179.154 39.8903C178.586 41.7536 177.429 43.1475 175.817 44.132C174.582 44.886 173.188 45.303 171.716 45.3276C170.472 45.3478 169.229 45.3361 167.985 45.3329C167.331 45.3308 167.293 45.2924 167.293 44.6354C167.291 40.1367 167.293 35.6391 167.293 31.1404C167.293 30.7895 167.293 30.4375 167.293 30.0397ZM169.046 37.6655C169.046 39.9063 169.046 42.1471 169.046 44.3879C169.046 44.678 169.017 44.9969 169.454 44.9735C170.41 44.9233 171.379 44.9447 172.319 44.7932C174.736 44.4039 176.185 42.8446 177.066 40.6582C177.579 39.3858 177.64 38.0548 177.508 36.7205C177.25 34.116 176.079 32.0853 173.637 30.9484C172.36 30.3543 170.978 30.3874 169.605 30.397C169.158 30.4002 169.034 30.5634 169.038 30.9964C169.056 33.2191 169.046 35.4428 169.046 37.6655Z" stroke="white" stroke-width="0.5"/>
<path d="M110.691 45.2582C109.358 45.5217 108.239 45.4118 107.675 43.9602C106.291 45.1388 104.738 45.5441 103.095 45.6038C101.424 45.6646 99.7879 45.4523 98.5229 44.1981C97.0042 42.6921 97.0586 40.0546 98.6669 38.4057C99.3453 37.7114 100.136 37.1194 100.916 36.536C101.34 36.2193 101.398 35.9942 101.071 35.5569C100.259 34.4712 99.7601 33.2777 100.08 31.8741C100.41 30.4268 101.728 29.5469 103.195 29.7581C104.255 29.9106 105.033 30.3852 105.325 31.4667C105.641 32.6346 105.266 33.6041 104.415 34.4083C104.092 34.7122 103.712 34.9554 103.396 35.2647C103.304 35.3543 103.264 35.6391 103.334 35.7308C104.996 37.8799 106.676 40.0151 108.354 42.1514C108.374 42.1759 108.415 42.1812 108.496 42.2186C109.332 40.9569 109.536 39.4861 109.749 38.0185C109.816 38.0228 109.883 38.027 109.949 38.0313C109.978 38.1966 110.065 38.3769 110.027 38.5241C109.72 39.7058 109.442 40.8993 109.038 42.0479C108.866 42.5353 108.898 42.8489 109.204 43.2211C109.665 43.78 110.094 44.3645 110.531 44.9425C110.592 45.0225 110.624 45.1238 110.691 45.2582ZM103.1 45.2081C104.55 45.1932 105.815 44.7975 106.953 43.989C107.276 43.7597 107.343 43.5816 107.057 43.2286C105.93 41.8346 104.842 40.4086 103.735 38.9976C103.166 38.2702 102.593 37.546 102.012 36.8283C101.871 36.6544 101.724 36.4443 101.448 36.6864C99.5042 38.4014 98.9154 40.3553 99.5276 42.7145C99.6642 43.2393 99.9958 43.7491 100.348 44.1757C101.067 45.0471 102.112 45.1569 103.097 45.2081H103.1ZM104.359 31.9808C104.305 31.775 104.236 31.407 104.111 31.0614C103.896 30.4748 103.431 30.1826 102.792 30.1815C102.174 30.1815 101.69 30.4418 101.528 31.0412C101.395 31.536 101.281 32.1344 101.44 32.5887C101.712 33.3652 102.198 34.067 102.609 34.7922C102.781 35.0962 102.988 35.029 103.208 34.8135C103.961 34.0819 104.316 33.1828 104.359 31.9819V31.9808Z" stroke="white" stroke-width="0.5"/>
<path d="M130.552 38.619C133.22 40.7969 135.887 42.9758 138.555 45.1537C138.518 45.2188 138.481 45.2838 138.445 45.35C138.214 45.2433 137.952 45.1772 137.76 45.0236C136.352 43.8931 134.962 42.7423 133.561 41.6032C132.421 40.6753 131.276 39.7538 130.037 38.7534C130.019 39.0328 129.999 39.213 129.998 39.3944C129.996 41.1552 129.998 42.9161 129.995 44.677C129.994 45.3276 129.951 45.3606 129.285 45.3404C128.185 45.3073 128.165 45.5569 128.168 44.2024C128.173 39.7559 128.169 35.3095 128.17 30.8631C128.17 30.093 128.341 29.9277 129.092 29.9501C130.279 29.9842 131.466 30.0088 132.652 30.0471C134.154 30.0962 135.559 30.4535 136.607 31.6043C138.447 33.6233 137.633 36.8421 135.076 37.8543C133.943 38.3033 132.769 38.4046 131.572 38.3897C131.261 38.3854 130.95 38.3897 130.639 38.3897C130.61 38.4665 130.581 38.5433 130.552 38.62V38.619ZM129.998 34.1693C129.998 35.2359 130.012 36.3024 129.991 37.369C129.983 37.8116 130.151 37.9823 130.587 37.9535C131.399 37.8991 132.219 37.9172 133.024 37.8073C134.23 37.641 135.151 37.0138 135.398 35.7638C135.563 34.9245 135.655 34.0307 135.557 33.1871C135.363 31.5147 134.255 30.589 132.563 30.5068C131.925 30.4759 131.276 30.5484 130.647 30.4578C130.074 30.3746 129.979 30.5858 129.99 31.0785C130.015 32.1088 129.998 33.1401 129.998 34.1715V34.1693Z" stroke="white" stroke-width="0.5"/>
<path d="M78.6884 38.5497C81.3878 40.7563 84.0883 42.962 86.8133 45.1889C86.3899 45.3446 86.2182 45.2828 85.7542 44.9041C83.6404 43.1721 81.5211 41.4453 79.4062 39.7133C79.0702 39.4381 78.746 39.1501 78.3065 38.7736C78.2799 39.1267 78.2532 39.3282 78.2522 39.5309C78.2479 41.2203 78.2522 42.9086 78.2479 44.598C78.2458 45.2678 78.1828 45.3244 77.5152 45.3329C76.7871 45.3414 76.423 44.9742 76.423 44.2312C76.423 39.7687 76.423 35.3063 76.423 30.8449C76.423 30.0503 76.4262 30.0311 77.224 30.0439C78.8025 30.0685 80.3863 30.0503 81.9584 30.1719C83.1412 30.2637 84.18 30.8215 84.965 31.7323C86.4198 33.4185 86.1702 36.7163 83.3289 37.8084C82.4202 38.1572 81.4006 38.2393 80.4226 38.3747C79.8712 38.4515 79.3006 38.3886 78.7374 38.3886C78.7204 38.443 78.7033 38.4974 78.6862 38.5518L78.6884 38.5497ZM78.2777 34.1374C78.2692 34.1374 78.2607 34.1374 78.2522 34.1374C78.2522 35.222 78.2554 36.3067 78.25 37.3914C78.2479 37.7146 78.3129 37.9748 78.7097 37.9439C79.7325 37.866 80.7671 37.8457 81.7739 37.6708C82.4853 37.5482 83.0612 37.0938 83.3961 36.4006C84.0275 35.0951 84.0435 33.7555 83.5849 32.4085C83.2777 31.5051 82.6239 30.8684 81.6971 30.6924C80.7287 30.5079 79.7293 30.4887 78.7428 30.4066C78.4132 30.3788 78.2671 30.5314 78.2724 30.8833C78.2884 31.968 78.2777 33.0516 78.2777 34.1363V34.1374Z" stroke="white" stroke-width="0.5"/>
<path d="M25.9316 38.5966C28.5937 40.7798 31.2548 42.962 33.9169 45.1452C33.8923 45.2049 33.8667 45.2636 33.8422 45.3233C33.6332 45.2401 33.3889 45.2017 33.2204 45.0673C32.1219 44.196 31.0404 43.3022 29.9525 42.418C28.5105 41.2448 27.0675 40.0738 25.5189 38.8152C25.488 39.1309 25.4528 39.3272 25.4528 39.5223C25.4485 41.0688 25.4538 42.6164 25.4485 44.1629C25.4442 45.318 25.0603 45.6091 23.934 45.3041C23.8135 45.271 23.6876 45.1185 23.6407 44.9937C23.5874 44.8519 23.6183 44.678 23.6183 44.5181C23.6183 39.966 23.6183 35.414 23.6183 30.862C23.6183 30.0493 23.6204 30.0439 24.4566 30.0418C25.7365 30.0397 27.0152 30.0333 28.2951 30.0535C29.368 30.0706 30.3514 30.397 31.2622 30.9686C32.9026 31.9989 33.1948 33.6446 32.8194 35.3116C32.4984 36.7365 31.467 37.562 30.1392 37.9428C29.2294 38.2041 28.2588 38.266 27.3107 38.3801C26.8937 38.4302 26.466 38.3886 26.0436 38.3886C26.0063 38.4579 25.97 38.5273 25.9327 38.5977L25.9316 38.5966ZM25.4517 34.1502C25.4517 35.2327 25.4581 36.3152 25.4474 37.3978C25.4442 37.7689 25.5658 37.9652 25.9668 37.9524C26.5513 37.9332 27.1422 37.9823 27.7213 37.9215C28.8966 37.7977 30.0517 37.5258 30.6063 36.3312C31.1524 35.1548 31.2036 33.9123 30.8335 32.6463C30.4399 31.3035 29.4779 30.6999 28.1863 30.5324C27.4685 30.4386 26.7369 30.4503 26.0127 30.4012C25.6021 30.3735 25.4389 30.5388 25.4453 30.9548C25.4613 32.0192 25.4506 33.0847 25.4506 34.1502H25.4517Z" stroke="white" stroke-width="0.5"/>
<path d="M152.001 45.3105C151.332 45.3105 150.806 45.3382 150.288 45.2913C150.158 45.2796 150.006 45.0439 149.939 44.8796C149.407 43.5806 148.883 42.2783 148.38 40.9675C148.254 40.6401 148.063 40.5612 147.733 40.5633C146.155 40.574 144.575 40.559 142.997 40.5516C142.802 40.5516 142.605 40.5569 142.411 40.5398C142.052 40.51 141.873 40.6742 141.748 41.0091C141.258 42.3231 140.748 43.6286 140.227 44.9308C140.167 45.0812 139.998 45.1878 139.879 45.3158C139.867 45.1324 139.79 44.9255 139.85 44.7698C140.745 42.449 141.667 40.1388 142.561 37.818C142.747 37.3338 142.812 36.8037 142.997 36.3195C143.208 35.766 143.511 35.2476 143.737 34.6984C144.359 33.1871 144.96 31.6662 145.574 30.1517C145.63 30.012 145.713 29.8829 145.848 29.6301C147.914 34.8935 149.932 40.0375 152.001 45.3094V45.3105ZM145.081 32.5759C144.068 35.1484 143.098 37.609 142.104 40.1313C142.34 40.1495 142.492 40.1719 142.645 40.1719C144.207 40.174 145.771 40.1761 147.333 40.1719C148.005 40.1697 148.045 40.1025 147.791 39.4552C147.194 37.9364 146.596 36.4176 145.998 34.8999C145.707 34.1608 145.415 33.4228 145.08 32.5749L145.081 32.5759Z" stroke="white" stroke-width="0.5"/>
<path d="M72.7733 37.6602C72.56 37.69 72.3467 37.7455 72.1334 37.7465C70.7298 37.754 69.3262 37.7657 67.9226 37.7433C67.4427 37.7359 67.2646 37.8884 67.2699 38.3843C67.2913 40.3393 67.2913 42.2954 67.2699 44.2504C67.2646 44.7356 67.4246 44.9073 67.9141 44.902C69.6729 44.8807 71.4316 44.8903 73.1903 44.8977C73.4132 44.8977 73.6361 44.9596 73.858 44.9937C73.858 45.0641 73.859 45.1356 73.8601 45.206C73.6756 45.2476 73.4922 45.3265 73.3076 45.3265C70.8919 45.335 68.4751 45.3244 66.0594 45.3393C65.5922 45.3425 65.4408 45.1644 65.4419 44.71C65.4515 39.9991 65.4515 35.2882 65.4419 30.5772C65.4419 30.1677 65.5528 30.0279 65.9858 30.0322C68.3845 30.0546 70.7821 30.0418 73.1807 30.0471C73.394 30.0471 73.6073 30.0962 73.8207 30.1218L73.8302 30.3063C73.6287 30.3383 73.4271 30.397 73.2245 30.398C71.4657 30.4055 69.707 30.4172 67.9482 30.3938C67.447 30.3874 67.2614 30.5335 67.2689 31.0561C67.2944 32.9226 67.2934 34.789 67.2689 36.6555C67.2625 37.177 67.4512 37.3306 67.9525 37.3221C69.3561 37.2965 70.7597 37.3093 72.1632 37.3178C72.3691 37.3189 72.5749 37.3839 72.7808 37.4191C72.7786 37.4991 72.7754 37.5802 72.7733 37.6602Z" stroke="white" stroke-width="0.5"/>
<path d="M155.634 35.8417C155.691 37.8489 155.664 39.8636 155.826 41.8623C156.036 44.4466 158.615 45.8758 161.066 44.9852C162.317 44.5309 163.33 43.8803 163.759 42.6303C164.072 41.7226 164.272 40.7339 164.294 39.7762C164.361 36.7365 164.32 33.6937 164.32 30.6519C164.32 30.5271 164.302 30.3991 164.325 30.2797C164.338 30.2071 164.424 30.0887 164.464 30.0941C164.554 30.1058 164.684 30.1645 164.709 30.2349C164.758 30.382 164.762 30.5484 164.762 30.7063C164.764 33.7481 164.78 36.7899 164.752 39.8306C164.742 41.0475 164.52 42.2314 163.91 43.3193C163.187 44.6087 162.056 45.3361 160.641 45.5163C158.993 45.7264 157.381 45.5803 155.963 44.533C155.025 43.8408 154.467 42.9033 154.204 41.8165C153.997 40.9601 153.888 40.0631 153.876 39.1811C153.835 36.3718 153.858 33.5604 153.859 30.75C153.859 30.0695 153.888 30.0461 154.596 30.0418C155.324 30.0368 155.689 30.4041 155.689 31.1436C155.689 32.7092 155.689 34.2739 155.689 35.8396C155.671 35.8396 155.653 35.8396 155.634 35.8406V35.8417Z" stroke="white" stroke-width="0.5"/>
<path d="M124.93 37.6484C124.723 37.6826 124.516 37.7444 124.309 37.7455C122.905 37.754 121.501 37.7679 120.097 37.7412C119.586 37.7316 119.416 37.9076 119.421 38.4185C119.442 40.4812 119.43 42.5439 119.428 44.6066C119.428 45.2977 119.395 45.3265 118.707 45.3318C117.971 45.3382 117.602 44.9752 117.602 44.2429C117.602 39.7794 117.602 35.3159 117.602 30.8524C117.602 30.0503 117.609 30.0439 118.4 30.0439C120.71 30.0429 123.02 30.0418 125.332 30.0471C125.543 30.0471 125.754 30.0962 125.965 30.1229C125.967 30.1858 125.969 30.2487 125.973 30.3117C125.769 30.3415 125.565 30.398 125.362 30.3991C123.62 30.4066 121.878 30.4194 120.137 30.3938C119.617 30.3863 119.41 30.5196 119.419 31.0774C119.449 32.9268 119.428 34.7762 119.43 36.6256C119.43 37.2826 119.461 37.3114 120.131 37.3125C121.518 37.3157 122.903 37.3093 124.29 37.3178C124.502 37.3189 124.714 37.3754 124.926 37.4063C124.926 37.4874 124.927 37.5674 124.929 37.6484H124.93Z" stroke="white" stroke-width="0.5"/>
<path d="M90.4247 37.6143C90.4247 39.9618 90.414 42.3103 90.4332 44.6578C90.4375 45.1633 90.2732 45.35 89.7591 45.3425C88.6809 45.3276 88.6798 45.35 88.6798 44.2727C88.6798 39.7911 88.6798 35.3084 88.6798 30.8268C88.6798 30.061 88.6926 30.0503 89.4509 30.0461C89.5224 30.0461 89.5928 30.0461 89.6642 30.0461C90.1719 30.0461 90.425 30.2925 90.4236 30.7852C90.4236 33.0623 90.4236 35.3383 90.4236 37.6154L90.4247 37.6143Z" stroke="white" stroke-width="0.5"/>
</g>
<defs>
<clipPath id="clip0_230_1818">
<rect width="200" height="75" fill="white"/>
</clipPath>
</defs>
</svg>
