<svg xmlns="http://www.w3.org/2000/svg" width="172" height="168" fill="none"><path fill="url(#a)" d="M129.975 20.405c23.03 13.291 38.53 38.172 38.53 66.672 0 42.483-34.44 76.923-76.923 76.923-13.983 0-27.095-3.731-38.394-10.252-23.03-13.29-38.53-38.171-38.53-66.671 0-42.483 34.44-76.923 76.924-76.923 13.983 0 27.094 3.73 38.393 10.252Z"/><path fill="url(#b)" d="M80.923 4C38.44 4 4 38.44 4 80.923l10.659 6.154c0-42.483 34.44-76.923 76.923-76.923L80.923 4Z"/><path fill="url(#c)" d="M4 80.923c0 28.501 15.5 53.381 38.53 66.671l10.634 6.14c-23.017-13.294-38.505-38.167-38.505-66.657L4 80.923Z"/><path fill="url(#d)" d="M119.317 14.252C108.018 7.73 94.907 4 80.923 4l10.659 6.154c13.983 0 27.094 3.73 38.393 10.252l-10.658-6.154Z"/><path fill="url(#e)" d="M42.53 147.594c11.298 6.521 24.41 10.252 38.393 10.252L91.582 164c-13.983 0-27.095-3.731-38.394-10.252l-10.659-6.154Z"/><path fill="url(#f)" d="M157.846 80.923c0-28.49-15.489-53.363-38.505-66.657l10.634 6.14c23.03 13.29 38.53 38.17 38.53 66.67l-10.659-6.153Z"/><path fill="url(#g)" d="M80.923 157.846c42.484 0 76.923-34.44 76.923-76.923l10.659 6.154c0 42.483-34.44 76.923-76.923 76.923l-10.659-6.154Z"/><path stroke="url(#h)" stroke-linejoin="round" stroke-width="6.154" d="M168.505 87.077c0 42.483-34.44 76.923-76.923 76.923m76.923-76.923c0-28.5-15.5-53.38-38.53-66.671m38.53 66.67-10.659-6.153M91.582 164c-13.983 0-27.095-3.731-38.394-10.252M91.582 164l-10.659-6.154M14.66 87.076c0-42.482 34.44-76.922 76.923-76.922M14.659 87.077c0 28.5 15.5 53.381 38.53 66.671m-38.53-66.671L4 80.923m10.659 6.154c0 28.49 15.489 53.363 38.505 66.657m38.418-143.58c13.983 0 27.094 3.73 38.393 10.252M91.582 10.153 80.923 4M53.188 153.748a.288.288 0 0 1-.024-.014m.024.014-10.659-6.154m87.446-127.188-10.658-6.154m10.658 6.153-10.634-6.14M4 80.924C4 38.44 38.44 4 80.923 4M4 80.923c0 28.501 15.5 53.381 38.53 66.671M80.922 4c13.983 0 27.095 3.731 38.394 10.252M42.53 147.594l10.634 6.14m-10.635-6.14c11.3 6.521 24.411 10.252 38.394 10.252m38.394-143.594.024.014m-38.418 143.58c42.484 0 76.923-34.44 76.923-76.923m-38.505-66.657c23.016 13.294 38.505 38.167 38.505 66.657"/><circle cx="81.361" cy="80.923" r="76.923" fill="#C536F7"/><g fill="#fff" clip-path="url(#i)"><path d="M102.819 117.231a14.487 14.487 0 0 1-8.237-10.043.96.96 0 0 0-.313-.513 17.204 17.204 0 0 1-3.819-4.719A4.162 4.162 0 0 1 94.77 95.8a6.484 6.484 0 0 0 1.525.094.939.939 0 0 0 .7-.382 14.028 14.028 0 0 1 8.106-5.374.928.928 0 0 0 .713-.907v-6.837a.941.941 0 0 0-.807-.931 17.228 17.228 0 0 1-1.468-.275 15.943 15.943 0 0 1-5.2-2.3.887.887 0 0 0-.594-.163 19.054 19.054 0 0 1-6.787-.837c-3.45-.892-4.217-5.847-1.2-7.744a7.977 7.977 0 0 0 1.562-1.388.915.915 0 0 0 .219-.75 15.942 15.942 0 0 1 1.212-8.725 15.757 15.757 0 0 1 12.244-9.268.936.936 0 0 0 .8-.975A8.42 8.42 0 0 0 97.375 41H65.5a8.45 8.45 0 0 0-8.437 8.438v13.937a.945.945 0 0 0 1.037.931 21.248 21.248 0 0 1 2.157-.118 20.592 20.592 0 0 1 18.73 12.08.94.94 0 0 0 .57.513c1.204.395 2.463.598 3.73.6a4.888 4.888 0 0 1 3.776 7.969 24.189 24.189 0 0 1-7.106 6.094.904.904 0 0 0-.432.493 20.55 20.55 0 0 1-19.3 13.376 21.25 21.25 0 0 1-2.125-.125.938.938 0 0 0-.723.237.955.955 0 0 0-.314.694v6.444A8.451 8.451 0 0 0 65.5 121h31.875c2.11 0 4.143-.794 5.694-2.225a.944.944 0 0 0 .29-.839.94.94 0 0 0-.54-.705ZM75.563 47.875a3.971 3.971 0 0 1-3.431-2.2l-1.5-2.8H92.25l-1.506 2.8a3.972 3.972 0 0 1-3.431 2.2h-11.75Zm12.437 65H74.875a.937.937 0 0 1 0-1.875H88a.937.937 0 0 1 0 1.875Zm19.365-7.5h2.476l.67-2.5h-2.476l-.67 2.5Z"/><path d="M103.824 92.5a12.274 12.274 0 0 0-5.889 4.975.277.277 0 0 1-.187.125 9.003 9.003 0 0 1-3.308.05 2.277 2.277 0 0 0-2.362 3.372c1 1.852 2.385 3.468 4.062 4.74a.263.263 0 0 1 .112.174c.879 6.028 6.553 10.797 12.475 10.732a12.485 12.485 0 0 0 10.955-6.757 12.481 12.481 0 0 0-.83-12.845 12.624 12.624 0 0 0-15.028-4.566Zm10.426 10.375h-1.798l-.669 2.5h1.842a.937.937 0 0 1 0 1.875h-2.345l-.599 2.236a.941.941 0 0 1-1.149.663.933.933 0 0 1-.57-.437.951.951 0 0 1-.094-.712l.469-1.75h-2.476l-.606 2.263a.933.933 0 0 1-.437.57.951.951 0 0 1-.712.094.946.946 0 0 1-.57-.438.924.924 0 0 1-.094-.712l.476-1.777h-1.293a.939.939 0 0 1-.663-1.6.939.939 0 0 1 .663-.275h1.798l.67-2.5h-1.843a.939.939 0 0 1-.663-1.6.939.939 0 0 1 .663-.275h2.345l.6-2.236a.935.935 0 0 1 1.149-.663.937.937 0 0 1 .663 1.149l-.469 1.75h2.477l.606-2.263a.941.941 0 0 1 1.149-.664.93.93 0 0 1 .57.438.947.947 0 0 1 .093.712l-.478 1.777h1.295a.937.937 0 0 1 0 1.875ZM94.468 60.039a13.976 13.976 0 0 0-.906 8.625.457.457 0 0 1-.077.358 10.276 10.276 0 0 1-2.672 2.677 2.468 2.468 0 0 0 .675 4.39c2.234.724 4.597.955 6.929.68a.407.407 0 0 1 .302.075 14.274 14.274 0 0 0 8.581 2.92c10.273.046 17.177-11.195 12.429-20.418-5.333-10.358-20.534-10.007-25.261.693Zm13.765 11.985a1.736 1.736 0 0 1-1.716 0c-3.667-2.085-5.75-4.673-5.661-7.953a3.68 3.68 0 0 1 3.662-3.696 3.636 3.636 0 0 1 2.857 1.386 3.642 3.642 0 0 1 2.858-1.386 3.675 3.675 0 0 1 3.388 2.286c.183.448.276.926.274 1.41.092 3.28-1.995 5.867-5.662 7.953ZM78 90.62a.888.888 0 0 1 .454-.512 21.756 21.756 0 0 0 7.16-5.95 3.014 3.014 0 0 0-2.325-4.901 14.288 14.288 0 0 1-5.164-.995.966.966 0 0 1-.55-.532 18.652 18.652 0 0 0-7.453-8.847c-13.212-8.281-30.156 2.711-28.41 18.13 1.031 9.112 9.461 16.639 18.55 16.449 7.67.168 15.408-5.318 17.738-12.842ZM55.813 92.7a1.854 1.854 0 0 1-.938.255h-2.5A1.875 1.875 0 0 1 50.5 91.08v-9.375a1.875 1.875 0 0 1 1.875-1.875h2.5c.33 0 .653.086.938.25V92.7Zm1.875-.84V80.633c1.836-1.704 3.017-5.173 3.804-6.808 1.385-2.88 4.175.984 3.493 3.063-.235.72-.735 2.937-.735 2.937a5.625 5.625 0 0 1 5.625 5.625v1.875a5.625 5.625 0 0 1-5.625 5.625h-3.49a3.75 3.75 0 0 1-1.676-.396l-1.396-.692Z"/></g><defs><linearGradient id="a" x1="86.252" x2="86.252" y1="4" y2="164" gradientUnits="userSpaceOnUse"><stop offset=".54" stop-color="#CE42FF"/><stop offset=".96" stop-color="#8F0FBB"/></linearGradient><linearGradient id="b" x1="86.252" x2="86.252" y1="4" y2="164" gradientUnits="userSpaceOnUse"><stop offset=".54" stop-color="#CE42FF"/><stop offset=".96" stop-color="#8F0FBB"/></linearGradient><linearGradient id="c" x1="86.252" x2="86.252" y1="4" y2="164" gradientUnits="userSpaceOnUse"><stop offset=".54" stop-color="#CE42FF"/><stop offset=".96" stop-color="#8F0FBB"/></linearGradient><linearGradient id="d" x1="86.252" x2="86.252" y1="4" y2="164" gradientUnits="userSpaceOnUse"><stop offset=".54" stop-color="#CE42FF"/><stop offset=".96" stop-color="#8F0FBB"/></linearGradient><linearGradient id="e" x1="86.252" x2="86.252" y1="4" y2="164" gradientUnits="userSpaceOnUse"><stop offset=".54" stop-color="#CE42FF"/><stop offset=".96" stop-color="#8F0FBB"/></linearGradient><linearGradient id="f" x1="86.252" x2="86.252" y1="4" y2="164" gradientUnits="userSpaceOnUse"><stop offset=".54" stop-color="#CE42FF"/><stop offset=".96" stop-color="#8F0FBB"/></linearGradient><linearGradient id="g" x1="86.252" x2="86.252" y1="4" y2="164" gradientUnits="userSpaceOnUse"><stop offset=".54" stop-color="#CE42FF"/><stop offset=".96" stop-color="#8F0FBB"/></linearGradient><linearGradient id="h" x1="86.252" x2="86.252" y1="4" y2="164" gradientUnits="userSpaceOnUse"><stop offset=".54" stop-color="#CE42FF"/><stop offset=".96" stop-color="#8F0FBB"/></linearGradient><clipPath id="i"><path fill="#fff" d="M41.438 41h80v80h-80z"/></clipPath></defs></svg>