<svg xmlns="http://www.w3.org/2000/svg" width="32" height="108" fill="none"><path stroke="#fff" stroke-linecap="round" stroke-width="3.023" d="M15.785 2.483C10.998 8.556-2.858 25.724 4.667 34.83c.793.96 1.798 1.896 2.942 2.754m0 0c3.37 2.527 7.933 4.363 11.764 4.068 11.02-.852 15.64-17.293 1.181-15.316-5.914.808-9.96 5.957-12.945 11.248Zm0 0C6.5 39.547 5.54 41.529 4.684 43.317.019 53.054 1.84 62.136 5.12 71.912c1.665 4.965 14.542 26.105 15.12 24.61m3.713 8.394c.54-1.559 4.3-13.632 4.034-12.099-.347 2.007-.914 4.041-1.01 6.078-.114 2.41-.834 4.754-.681 7.159.134 2.11-9.038-4.184-10.35-5.626"/></svg>